<?xml version="1.0" standalone="no"?>
<!DOCTYPE svg PUBLIC "-//W3C//DTD SVG 20010904//EN"
 "http://www.w3.org/TR/2001/REC-SVG-20010904/DTD/svg10.dtd">
<svg version="1.0" xmlns="http://www.w3.org/2000/svg"
 width="996.000000pt" height="572.000000pt" viewBox="0 0 996.000000 572.000000"
 preserveAspectRatio="xMidYMid meet">
<metadata>
Created by potrace 1.16, written by Peter Selinger 2001-2019
</metadata>
<g transform="translate(0.000000,572.000000) scale(0.100000,-0.100000)"
fill="#000000" stroke="none">
<path d="M6165 4353 c-87 -10 -165 -40 -280 -108 -46 -26 -65 -41 -136 -100
-13 -11 -38 -31 -54 -45 -17 -14 -69 -68 -116 -121 -116 -132 -129 -148 -129
-157 0 -5 -11 -19 -25 -32 -22 -20 -105 -152 -105 -166 0 -13 -52 -77 -121
-149 -42 -44 -84 -93 -95 -110 -10 -16 -24 -36 -31 -43 -12 -13 -41 -105 -50
-158 -3 -17 0 -61 5 -98 8 -47 8 -94 1 -153 -11 -88 2 -278 22 -314 5 -10 12
-45 15 -77 7 -67 5 -70 -81 -82 -27 -4 -86 -14 -130 -23 -44 -8 -93 -18 -110
-21 -16 -3 -64 -12 -105 -20 -81 -17 -179 -34 -247 -43 -52 -7 -65 12 -35 54
27 40 118 241 127 283 4 19 11 37 14 40 12 8 49 157 67 270 27 161 29 511 4
655 -23 132 -43 199 -81 283 -16 35 -29 66 -29 70 0 4 -17 25 -36 47 -20 22
-44 49 -53 60 -70 84 -215 128 -351 105 -36 -6 -81 -13 -100 -16 -37 -6 -64
-17 -220 -92 -102 -49 -120 -60 -221 -139 -117 -91 -306 -294 -384 -413 -17
-25 -37 -53 -45 -62 -29 -32 -136 -211 -187 -313 -19 -38 -48 -95 -63 -125
-16 -30 -34 -75 -40 -100 -7 -25 -18 -58 -25 -75 -7 -16 -23 -61 -35 -100 -13
-38 -31 -96 -41 -128 -11 -31 -19 -76 -19 -100 0 -24 -5 -48 -11 -54 -7 -7
-15 -50 -20 -98 -4 -47 -12 -92 -19 -100 -6 -7 -11 -42 -12 -77 0 -34 -7 -90
-15 -122 -8 -32 -13 -73 -12 -90 4 -40 -4 -52 -38 -60 -94 -22 -313 -89 -403
-124 -36 -13 -94 -35 -130 -49 -36 -14 -83 -31 -105 -39 -22 -8 -59 -24 -82
-34 -24 -11 -45 -20 -48 -20 -12 0 -181 -83 -186 -92 -9 -15 2 -56 19 -70 23
-19 135 -14 230 11 205 54 553 97 685 84 80 -7 75 0 108 -148 23 -105 52 -199
75 -244 8 -14 14 -33 14 -42 0 -28 30 -91 64 -134 18 -22 45 -62 61 -90 51
-89 208 -225 260 -225 9 0 33 -9 54 -20 54 -27 188 -43 254 -28 62 13 182 74
252 128 91 71 203 197 282 320 41 63 113 209 113 228 0 19 30 21 122 6 316
-50 481 -65 728 -63 118 1 249 5 290 9 41 4 137 11 214 14 l138 7 -7 -103
c-12 -197 -15 -223 -24 -260 -5 -21 -9 -85 -10 -143 -1 -58 -4 -112 -7 -119
-3 -8 2 -26 11 -40 13 -19 26 -26 50 -26 18 0 37 6 43 13 5 6 13 93 16 192 12
368 22 485 41 499 15 11 208 45 345 61 25 3 69 8 99 11 l54 6 88 -91 c48 -50
91 -91 96 -91 11 0 63 -56 63 -68 0 -6 19 -25 43 -43 97 -76 190 -193 222
-284 10 -27 22 -54 26 -60 11 -16 22 -77 21 -110 -2 -40 11 -59 36 -51 23 8
32 33 32 97 0 52 -35 169 -55 185 -8 6 -23 31 -34 55 -10 24 -41 69 -68 99
-27 30 -58 70 -68 88 l-19 32 33 60 c21 39 42 102 58 173 14 62 29 119 34 128
11 21 99 45 214 59 147 18 186 39 170 91 -14 42 -107 49 -204 14 -53 -18 -115
-20 -129 -2 -7 8 -7 28 -1 57 28 145 56 385 79 680 6 69 12 130 14 137 5 12
34 16 206 34 123 13 156 16 205 23 57 8 139 14 300 21 77 3 178 11 225 17 47
6 108 12 135 14 60 3 267 13 385 18 47 2 182 10 300 17 234 13 624 18 635 7 4
-3 -1 -21 -11 -39 -27 -52 -35 -91 -23 -106 20 -23 33 -15 79 48 24 33 56 67
71 74 17 9 82 17 183 21 132 6 161 10 181 26 21 16 23 22 13 49 -16 45 -45 59
-126 60 -39 1 -75 -2 -79 -4 -17 -11 -113 -17 -363 -22 -140 -3 -325 -10 -410
-15 -85 -6 -240 -15 -345 -21 -104 -6 -255 -15 -335 -20 -80 -5 -188 -11 -240
-14 -52 -3 -133 -9 -180 -15 -47 -5 -166 -14 -265 -21 -99 -6 -195 -15 -212
-21 -18 -5 -37 -7 -42 -3 -6 3 -69 0 -142 -6 -111 -10 -132 -10 -140 2 -6 8
-8 122 -5 279 4 263 -9 507 -34 590 -5 19 -10 52 -10 73 0 41 -33 181 -54 232
-7 17 -26 71 -42 120 -40 124 -62 165 -131 238 -85 89 -127 113 -219 127 -70
10 -76 10 -129 3z m278 -177 c35 -34 77 -88 94 -121 34 -67 98 -248 108 -310
4 -22 12 -56 18 -75 6 -19 12 -42 13 -50 1 -8 5 -33 8 -55 12 -78 15 -101 23
-170 4 -38 8 -212 8 -386 0 -242 -3 -320 -13 -331 -8 -11 -37 -18 -85 -21
-115 -8 -400 -36 -427 -43 -50 -11 -138 -15 -144 -6 -9 15 29 94 64 133 16 19
30 39 30 45 0 6 6 17 14 23 7 6 16 25 20 42 3 16 26 61 51 100 49 76 95 162
95 179 0 6 18 47 40 93 44 92 67 226 56 327 -14 137 -119 272 -263 337 -49 22
-75 27 -168 29 -151 5 -257 -25 -391 -111 -34 -22 -56 -30 -60 -24 -4 6 -2 14
3 18 6 3 12 11 14 18 4 11 63 78 169 192 25 26 63 61 85 77 22 16 42 31 45 34
8 8 43 29 65 39 40 18 282 70 349 75 37 2 70 7 73 9 12 12 49 -11 106 -67z
m-2175 -103 c62 -40 96 -82 139 -171 46 -94 57 -127 74 -217 62 -334 26 -765
-82 -1003 -16 -35 -29 -67 -29 -73 0 -15 -86 -181 -119 -230 -55 -83 -49 -80
-271 -123 -138 -27 -220 -41 -234 -37 -4 1 -13 -3 -20 -8 -6 -5 -58 -19 -116
-30 -58 -11 -139 -27 -180 -36 -41 -8 -111 -22 -155 -31 -44 -8 -102 -21 -130
-29 -50 -13 -100 -24 -230 -51 -38 -8 -108 -24 -154 -35 -46 -11 -90 -18 -98
-15 -11 5 -13 26 -9 103 2 54 7 105 10 113 3 8 8 42 10 75 3 33 11 89 20 125
8 36 15 77 16 93 0 15 5 36 10 47 6 11 14 28 19 39 6 10 7 27 5 38 -3 11 2 25
10 32 9 8 16 24 16 36 0 59 106 349 144 395 7 8 20 35 29 60 9 25 36 75 60
112 23 37 62 99 87 139 25 40 60 89 79 108 18 20 40 49 48 64 8 16 28 36 44
45 16 10 29 22 29 28 0 6 23 32 50 58 28 26 50 53 50 60 0 12 85 85 160 137
19 13 39 29 46 34 12 11 116 63 179 90 185 77 169 73 323 74 120 1 147 -2 170
-16z m1666 -228 c3 -9 18 -15 39 -15 35 0 168 -40 215 -64 15 -8 43 -30 63
-49 75 -73 96 -256 47 -425 -14 -52 -33 -101 -40 -110 -8 -9 -19 -28 -25 -42
-38 -87 -99 -210 -118 -235 -12 -17 -37 -61 -55 -100 -18 -38 -43 -77 -55 -87
-13 -10 -37 -42 -53 -72 -31 -53 -31 -53 -104 -69 -106 -24 -167 -27 -184 -10
-10 11 -14 43 -14 126 0 106 -14 185 -36 207 -5 5 -21 11 -34 13 -23 4 -26 9
-31 68 -4 45 -2 74 8 96 12 26 13 42 3 87 -6 31 -16 58 -21 61 -5 4 -9 14 -9
24 0 27 -35 54 -59 46 -30 -9 -43 -40 -37 -83 10 -71 17 -438 10 -559 l-7
-122 -38 -15 c-22 -9 -80 -20 -131 -26 -122 -14 -120 -17 -130 152 -8 146 -4
161 43 151 21 -4 30 -1 35 11 7 17 -13 101 -40 171 -8 22 -15 58 -15 80 -1 38
22 118 38 140 5 5 16 33 25 60 9 28 27 70 41 94 14 23 25 49 25 57 0 8 4 14 9
14 5 0 13 9 16 21 9 29 118 142 179 186 61 45 63 46 101 76 17 13 46 30 65 39
19 9 70 33 114 53 55 26 81 33 86 25 4 -7 13 -2 24 14 18 29 41 34 50 11z
m756 -1280 c10 -12 10 -44 1 -158 -7 -78 -14 -155 -16 -172 -2 -16 -6 -57 -9
-90 -4 -33 -18 -116 -32 -185 -14 -69 -30 -151 -35 -183 -5 -33 -12 -63 -15
-69 -6 -9 -147 -3 -209 9 -35 7 -50 9 -175 22 -188 20 -301 56 -387 123 -30
24 -65 49 -77 57 -60 41 -67 53 -60 101 6 42 29 99 44 110 3 3 29 43 56 89 27
46 59 94 72 108 12 13 22 27 22 30 0 15 71 112 92 125 25 16 118 38 188 44
173 16 466 47 469 50 11 10 60 2 71 -11z m-861 -102 c0 -21 -129 -216 -145
-220 -6 -2 -14 6 -18 19 -10 40 -6 152 7 168 18 24 77 44 140 49 10 0 17 -6
16 -16z m-425 -62 c3 -4 1 -36 -4 -69 -6 -34 -11 -97 -12 -142 -1 -59 -5 -80
-15 -80 -7 0 -13 7 -13 15 0 8 -3 15 -8 15 -8 0 -72 80 -116 144 -36 53 -35
94 2 102 15 3 38 10 52 14 33 11 108 12 114 1z m-285 -68 c17 -21 31 -43 31
-49 0 -6 7 -17 14 -24 8 -6 25 -33 38 -58 12 -26 50 -75 85 -110 76 -76 79
-95 24 -155 -21 -23 -57 -62 -79 -87 -34 -37 -44 -43 -58 -34 -20 12 -64 134
-64 178 0 17 -5 48 -11 69 -8 31 -14 37 -37 37 -23 0 -31 -8 -50 -50 -28 -61
-68 -110 -91 -110 -12 0 -22 16 -34 53 -25 79 -83 101 -105 39 -6 -15 -21 -57
-35 -94 -23 -62 -110 -197 -144 -225 -23 -18 -42 -5 -49 35 -13 83 -47 207
-58 214 -24 16 -55 7 -78 -23 -57 -75 -95 -113 -127 -126 -31 -13 -36 -13 -60
4 -48 36 -81 129 -81 226 0 47 4 59 36 95 19 23 43 42 51 42 9 0 37 13 63 29
27 17 69 32 101 36 30 4 79 14 109 22 30 9 66 18 80 19 47 7 95 14 155 24 33
5 78 12 100 15 22 2 83 13 135 24 52 11 98 20 102 20 3 1 20 -16 37 -36z m446
-77 c-3 -11 -7 -59 -9 -107 -8 -133 -24 -159 -75 -120 l-23 18 36 114 c20 63
39 120 42 128 7 22 35 -8 29 -33z m-1548 -127 c11 -29 10 -33 -40 -83 -78 -80
-155 -127 -212 -129 -41 -2 -50 2 -71 28 -15 19 -20 33 -14 39 31 31 -24 50
-71 26 -27 -15 -26 -82 3 -129 33 -54 58 -72 91 -66 15 2 26 1 23 -4 -3 -5 17
-11 44 -13 44 -5 60 0 123 33 39 21 89 53 110 72 34 32 39 34 53 20 16 -16 15
-50 -3 -173 -4 -25 -6 -50 -5 -57 2 -6 -2 -14 -8 -18 -5 -3 -10 -17 -10 -30 0
-27 -35 -179 -45 -195 -10 -17 -86 -11 -191 14 -54 14 -151 34 -214 46 -63 11
-140 27 -170 35 -77 20 -291 55 -460 75 -47 6 -96 13 -110 15 -14 2 -59 6
-100 10 -41 3 -78 11 -82 18 -7 11 -13 94 -10 144 1 34 25 78 42 78 8 -1 38 7
65 16 28 9 77 24 110 34 33 9 74 21 91 26 17 5 44 11 60 13 16 3 63 12 104 20
41 9 107 23 145 30 39 8 104 23 145 35 41 11 86 21 101 21 14 0 62 9 105 19
44 11 108 22 144 26 36 4 70 11 75 15 10 8 57 14 135 18 31 2 37 -2 47 -29z
m1428 -209 c7 -32 47 -70 75 -70 21 0 28 -21 24 -70 -1 -19 -7 -109 -13 -199
-6 -90 -16 -170 -22 -177 -6 -7 -32 -16 -57 -19 -26 -3 -81 -10 -122 -15 -92
-11 -198 -18 -443 -26 -181 -7 -393 3 -542 26 -33 5 -96 14 -140 20 -128 18
-135 20 -135 41 0 11 9 54 20 97 21 83 28 116 37 175 7 47 26 57 56 29 48 -44
120 -35 197 27 59 46 57 47 75 -34 20 -90 52 -125 115 -125 41 0 72 24 128 99
15 20 29 38 32 41 7 7 38 60 57 98 19 36 36 41 55 13 7 -10 27 -21 44 -25 26
-6 39 -1 78 29 25 19 50 35 55 35 4 0 18 -26 29 -58 29 -79 70 -117 127 -117
38 0 50 6 85 40 23 22 65 75 93 118 55 84 81 98 92 47z m-2898 -120 c7 -14 13
-51 13 -82 l0 -56 -187 0 c-174 0 -201 -3 -373 -36 -101 -19 -186 -33 -188
-31 -2 2 1 12 7 23 7 13 26 23 53 27 24 3 62 15 85 26 24 10 50 19 58 19 8 0
23 4 33 9 9 6 51 14 92 20 46 6 79 16 86 26 6 8 20 15 30 15 10 0 27 7 38 15
12 9 30 12 49 8 22 -4 33 -1 42 10 7 10 27 19 44 21 18 2 35 7 39 10 15 16 67
0 79 -24z m3243 -61 c47 -38 92 -76 100 -83 26 -22 60 -66 60 -76 0 -6 22 -26
49 -46 54 -38 58 -63 12 -65 -37 -2 -56 -5 -136 -23 -38 -9 -110 -19 -159 -22
l-89 -7 8 99 c4 54 9 133 10 174 3 124 2 120 33 120 19 0 53 -21 112 -71z
m355 -60 c28 -6 102 -16 165 -24 221 -26 250 -37 173 -67 -75 -30 -100 -37
-217 -62 l-109 -24 -25 27 c-58 62 -132 149 -132 155 0 9 88 6 145 -5z m-3285
-95 c174 -14 486 -67 790 -134 156 -35 223 -49 263 -55 21 -3 37 -12 37 -19 0
-14 -19 -63 -50 -133 -41 -88 -152 -241 -172 -235 -5 1 -7 -2 -3 -7 5 -10 -89
-111 -104 -111 -3 0 -19 -13 -36 -28 -30 -28 -76 -55 -150 -88 -49 -22 -175
-30 -241 -16 -72 16 -189 87 -238 145 -22 28 -55 66 -72 86 -32 36 -122 216
-142 281 -6 19 -23 71 -37 116 -14 45 -25 93 -25 108 0 15 -4 35 -9 45 -6 10
-8 27 -5 39 6 22 4 22 194 6z m3653 -90 c3 -3 2 -14 -3 -23 -24 -46 -50 -127
-50 -156 0 -19 -8 -39 -20 -50 -20 -18 -22 -17 -97 56 -43 41 -83 79 -90 86
-27 25 -13 41 46 54 20 4 61 14 91 22 59 16 113 21 123 11z"/>
</g>
</svg>
