<?xml version="1.0"?>
<svg xmlns="http://www.w3.org/2000/svg" xmlns:xlink="http://www.w3.org/1999/xlink" xmlns:svgjs="http://svgjs.com/svgjs" version="1.1" width="512" height="512" x="0" y="0" viewBox="0 0 512.002 512.002" style="enable-background:new 0 0 512 512" xml:space="preserve" class=""><g><g xmlns="http://www.w3.org/2000/svg"><path d="m511.909 488.834-37.018-331c-.85-7.592-7.268-13.333-14.907-13.333h-408.014c-7.64 0-14.06 5.742-14.907 13.335l-36.97 331c-.474 4.242.882 8.484 3.728 11.666s6.911 5 11.18 5h482.002c4.269 0 8.335-1.818 11.181-5s4.2-7.426 3.725-11.668z" fill="#454040" data-original="#454040" style=""/><path d="m511.909 488.834-37.018-331c-.85-7.592-7.268-13.333-14.907-13.333h-203.983v361h241.001c4.269 0 8.335-1.818 11.181-5s4.201-7.425 3.726-11.667z" fill="#2e2e2e" data-original="#2e2e2e" style=""/><circle clip-rule="evenodd" cx="159.501" cy="223.001" fill="#2e2e2e" fill-rule="evenodd" r="30" data-original="#2e2e2e" style=""/><circle clip-rule="evenodd" cx="352.501" cy="223.001" fill="#1a1a1a" fill-rule="evenodd" r="30" data-original="#1a1a1a" style="" class=""/><g><path d="m352.501 233.001c-8.284 0-15-6.716-15-15v-100c0-44.939-36.561-81.5-81.5-81.5s-81.5 36.561-81.5 81.5v100c0 8.284-6.716 15-15 15s-15-6.716-15-15v-100c0-61.481 50.019-111.5 111.5-111.5s111.5 50.019 111.5 111.5v100c0 8.284-6.716 15-15 15z" fill="#89ff85" data-original="#fff4f4" style="" class=""/></g><path d="m256.001 6.501v30c44.939 0 81.5 36.561 81.5 81.5v100c0 8.284 6.716 15 15 15s15-6.716 15-15v-100c0-61.481-50.018-111.5-111.5-111.5z" fill="#89ff85" data-original="#f6efea" style="" class=""/></g></g></svg>
