<?xml version="1.0" standalone="no"?>
<!DOCTYPE svg PUBLIC "-//W3C//DTD SVG 20010904//EN"
 "http://www.w3.org/TR/2001/REC-SVG-20010904/DTD/svg10.dtd">
<svg version="1.0" xmlns="http://www.w3.org/2000/svg"
 width="1500.000000pt" height="899.000000pt" viewBox="0 0 1500.000000 899.000000"
 preserveAspectRatio="xMidYMid meet">
<metadata>
Created by potrace 1.16, written by Peter Selinger 2001-2019
</metadata>
<g transform="translate(0.000000,899.000000) scale(0.100000,-0.100000)"
fill="#000000" stroke="none">
<path d="M0 4495 l0 -4495 7500 0 7500 0 0 4495 0 4495 -7500 0 -7500 0 0
-4495z m5612 3305 c16 -8 28 -22 28 -31 0 -9 7 -19 15 -23 13 -5 15 -122 14
-948 0 -519 0 -957 0 -975 1 -26 8 -35 46 -56 25 -14 45 -21 45 -16 0 7 47 9
125 7 69 -2 125 -6 125 -10 0 -5 9 -8 19 -8 33 0 51 -11 51 -32 0 -11 7 -26
15 -34 12 -12 14 -81 13 -447 -2 -484 0 -499 58 -523 40 -17 67 -17 134 -3 45
10 54 16 66 44 11 27 13 250 10 1341 -3 1091 -1 1315 10 1343 8 18 14 42 14
52 0 18 11 24 35 19 5 -1 15 7 22 16 7 10 13 12 13 6 0 -9 5 -10 19 -2 25 13
431 14 431 1 0 -5 12 -11 27 -13 22 -2 29 -10 34 -33 4 -16 8 -23 10 -15 2 8
6 -70 9 -175 3 -104 8 -197 10 -205 9 -26 24 -38 40 -29 41 22 137 31 375 34
174 2 267 -1 280 -8 11 -6 25 -10 31 -9 7 1 17 -11 22 -28 6 -16 16 -30 22
-30 8 0 11 -36 9 -115 -1 -64 2 -120 7 -125 7 -7 6 -98 -6 -310 0 -8 0 -195 0
-414 0 -219 -2 -401 -5 -404 -3 -3 0 -10 5 -17 12 -15 12 54 4 -797 -5 -529
-4 -718 5 -718 15 0 15 -117 -1 -122 -14 -5 -15 -111 -1 -115 6 -2 8 -250 5
-643 -5 -622 -4 -640 14 -641 17 -1 17 -2 2 -6 -22 -6 -23 -19 -3 -27 8 -3 15
-14 15 -25 0 -30 11 -51 26 -51 8 0 14 -5 14 -10 0 -6 25 -36 55 -67 30 -31
55 -60 55 -64 0 -4 9 -14 21 -23 12 -8 32 -30 45 -50 15 -22 33 -36 45 -36 12
0 23 -8 26 -20 3 -11 9 -20 14 -20 5 0 5 -8 2 -17 -5 -12 -2 -15 10 -10 9 3
17 2 17 -4 0 -5 10 -20 23 -32 13 -12 26 -30 30 -40 4 -11 12 -15 19 -11 8 5
9 2 5 -9 -4 -11 -2 -14 9 -10 9 3 14 -1 14 -12 0 -10 20 -37 45 -61 25 -24 42
-44 39 -44 -3 0 5 -11 18 -24 13 -13 39 -42 59 -65 20 -22 48 -45 62 -52 17
-8 23 -17 20 -27 -4 -10 -2 -13 5 -8 8 5 12 0 12 -13 0 -11 9 -22 20 -26 11
-4 17 -11 14 -17 -5 -7 -1 -9 9 -5 10 4 14 2 11 -7 -3 -7 6 -18 20 -25 13 -8
27 -22 29 -33 4 -13 10 -17 18 -12 7 4 10 3 6 -3 -4 -5 5 -20 18 -31 14 -12
25 -29 25 -38 0 -10 5 -14 15 -10 10 3 15 1 14 -7 -1 -6 1 -21 5 -32 4 -11 12
-32 18 -47 18 -49 -22 -191 -57 -205 -8 -3 -15 -11 -15 -19 0 -8 -5 -14 -10
-14 -6 0 -20 -9 -32 -20 -12 -11 -32 -20 -44 -20 -12 0 -24 -5 -26 -11 -5 -14
248 -12 -2293 -12 -1215 0 -2223 0 -2240 0 -16 0 -93 1 -170 2 -77 2 -822 3
-1657 2 -834 0 -1544 2 -1577 6 -34 3 -64 10 -67 14 -3 5 -14 9 -24 9 -10 0
-34 13 -52 30 -36 33 -44 36 -52 18 -3 -7 -3 -2 0 11 5 20 3 23 -10 18 -11 -4
-15 -3 -11 4 4 5 0 25 -9 43 -25 52 -31 151 -12 181 9 13 16 31 16 40 0 8 6
15 13 15 6 1 25 22 42 48 16 26 40 55 52 65 13 10 23 25 23 34 0 11 6 14 20
10 16 -4 20 -2 15 12 -3 10 1 24 10 31 13 11 15 10 9 -6 -4 -14 -1 -13 15 6
11 14 21 28 21 33 0 4 6 7 14 7 8 0 17 8 20 18 3 9 19 26 36 37 16 11 30 29
30 39 0 11 3 17 6 13 8 -8 45 31 63 65 8 16 17 26 19 23 9 -9 42 27 35 38 -3
5 -1 7 5 3 6 -3 16 7 23 23 7 16 17 27 22 24 4 -3 11 5 14 17 3 13 11 19 20
16 8 -3 11 -1 8 4 -7 11 22 26 32 16 5 -5 -100 -125 -197 -227 -14 -14 -63
-68 -110 -120 -47 -51 -94 -102 -105 -113 -122 -124 -155 -182 -155 -268 0
-91 49 -161 133 -193 38 -14 427 -15 4042 -13 l4000 3 40 21 c57 30 94 87 107
166 13 74 4 107 -41 156 -14 15 -48 53 -75 83 -27 30 -101 110 -165 179 -63
69 -131 143 -151 165 -122 136 -162 179 -235 260 -45 50 -111 122 -146 160
-148 164 -269 286 -294 295 -21 8 -25 15 -20 28 35 80 74 195 80 233 23 158
-108 337 -284 388 -134 40 -247 33 -359 -21 -99 -47 -158 -102 -199 -187 -25
-49 -28 -67 -27 -146 0 -80 4 -99 37 -178 20 -48 37 -95 37 -103 0 -12 -104
-14 -762 -14 -419 0 -758 -3 -755 -7 4 -3 -10 -14 -30 -24 -37 -17 -8 -17 772
-18 l811 -1 44 -92 c40 -81 87 -169 191 -355 l29 -52 -31 -18 c-16 -10 -32
-28 -35 -40 -11 -42 -24 -23 -24 35 0 66 -5 75 -45 90 -16 6 -102 41 -190 78
-88 36 -171 67 -184 68 -23 1 -33 -20 -171 -363 -81 -201 -151 -366 -157 -368
-6 -2 -117 14 -248 37 -131 22 -241 40 -245 40 -4 0 -44 85 -90 189 l-83 189
-77 7 c-57 5 -88 3 -121 -8 -57 -20 -192 -77 -201 -86 -19 -17 96 -1 157 23
56 22 83 26 139 24 l70 -3 80 -182 81 -182 50 -11 c28 -6 154 -28 280 -50 253
-42 247 -43 270 22 37 98 267 664 274 671 4 4 71 -19 148 -51 76 -33 156 -65
176 -71 l37 -13 0 -79 c0 -88 0 -89 74 -68 27 8 41 8 49 0 19 -19 128 -13 165
9 43 26 44 64 2 88 -16 9 -30 19 -30 23 0 3 32 63 71 135 39 71 98 182 130
246 33 65 65 118 73 118 7 0 23 -12 36 -28 43 -48 574 -646 611 -687 228 -248
358 -403 359 -426 0 -29 -33 -69 -58 -69 -9 0 -1806 0 -3992 0 l-3975 0 -18
21 c-22 28 -22 38 6 76 20 29 569 648 702 793 128 139 172 196 184 239 7 24
24 61 38 83 14 21 23 41 19 45 -3 3 -6 2 -6 -4 0 -5 -33 -43 -73 -84 -135
-140 -227 -242 -227 -254 0 -6 6 -17 12 -24 11 -11 7 -13 -19 -8 -22 4 -35 2
-40 -7 -4 -8 -41 -48 -81 -90 -65 -69 -92 -85 -92 -55 0 6 4 8 8 5 5 -3 15 5
23 16 8 12 25 33 37 46 29 30 41 90 21 104 -11 8 -12 10 -1 15 9 3 4 11 -17
24 -41 25 -66 65 -66 109 0 55 19 72 74 68 40 -3 49 -8 76 -44 17 -22 36 -39
43 -36 7 2 12 -3 12 -12 0 -18 15 -21 25 -6 9 14 27 1 19 -13 -4 -7 13 8 37
33 70 70 83 116 83 300 2 726 2 718 -30 776 -14 25 -48 69 -75 97 -37 39 -49
58 -49 82 0 17 -5 36 -11 42 -11 11 -22 139 -21 238 0 28 1 123 2 212 1 131
-2 167 -15 193 -9 18 -15 50 -14 75 4 60 18 43 22 -26 3 -43 7 -54 20 -53 9 0
292 1 627 2 l610 2 0 65 c0 45 -4 65 -12 65 -7 1 -274 2 -593 3 -434 1 -586 5
-605 14 l-25 13 25 -2 c14 -2 45 1 68 6 38 7 46 13 61 47 11 24 19 69 20 112
1 39 6 76 12 81 5 6 9 27 9 48 0 32 3 38 23 40 36 2 41 3 56 12 17 11 83 15
323 22 151 4 181 3 200 -10 12 -9 33 -16 45 -16 18 0 23 -6 23 -24 0 -14 7
-32 16 -40 11 -12 14 -27 10 -54 -18 -115 2 -201 50 -214 36 -10 263 -12 286
-3 22 9 21 -27 19 577 -2 440 -1 497 12 492 11 -4 16 2 19 23 3 26 7 28 53 32
38 2 45 5 30 11 -13 6 8 9 61 9 96 1 133 15 141 54 3 16 6 115 7 220 1 148 4
191 14 189 7 -1 12 8 12 23 0 15 7 28 18 32 9 4 20 11 24 17 11 16 727 15 759
-1 13 -7 33 -13 44 -15 14 -2 22 -13 25 -38 4 -22 11 -34 19 -32 10 2 11 -24
6 -130 -8 -193 -9 -251 -2 -368 3 -57 3 -107 -1 -110 -7 -5 2 -373 10 -437 3
-17 12 -43 22 -58 17 -25 14 -51 -5 -40 -5 4 -9 3 -10 -2 0 -4 -2 -28 -5 -53
-11 -99 -14 -176 -17 -425 l-3 -260 30 -29 c29 -29 30 -29 115 -21 47 4 120 9
161 10 101 4 141 22 155 70 16 60 4 179 -21 207 -12 13 -20 28 -17 35 2 6 -6
18 -19 27 -12 9 -19 16 -15 16 5 0 1 10 -7 22 -9 12 -16 40 -16 62 0 43 34
124 56 133 8 3 14 16 14 29 0 13 4 24 9 24 25 0 28 89 23 715 -5 766 -4 789 8
793 6 2 10 14 10 26 0 14 12 32 30 46 17 13 30 28 30 35 0 6 11 18 25 25 16 8
25 22 25 37 0 17 6 23 23 25 37 2 41 3 57 13 8 5 33 12 54 15 64 8 81 42 78
148 -2 63 2 95 13 116 8 15 15 34 15 42 0 15 78 29 114 20 26 -6 31 -31 44
-193 6 -70 11 -86 35 -113 18 -20 34 -29 44 -26 9 4 30 2 47 -4 17 -5 51 -15
75 -21 34 -8 41 -13 30 -21 -11 -7 -11 -11 -1 -15 7 -2 19 -11 27 -20 8 -8 15
-13 16 -11 14 56 20 234 22 720 2 393 5 520 15 530 6 6 12 22 12 35 0 37 43
42 345 39 222 -1 286 -5 307 -16z m7529 -776 c68 -35 109 -97 109 -164 0 -24
4 -30 21 -30 17 0 20 -4 15 -22 -3 -13 -6 -29 -6 -35 0 -7 -7 -13 -15 -13 -13
0 -15 -26 -15 -170 l0 -170 -35 0 -35 0 0 170 c0 143 -2 170 -15 170 -12 0
-15 -28 -17 -167 l-3 -168 -27 -3 -28 -3 -1 93 c-1 51 -4 106 -8 121 l-6 29
-82 -66 c-45 -36 -86 -66 -91 -66 -5 0 -17 11 -26 25 -15 23 -15 27 -1 41 37
37 5 100 -46 89 -18 -4 -37 0 -54 11 -24 16 -25 18 -10 40 15 23 14 24 -5 24
-19 0 -20 -6 -20 -170 l0 -170 -30 0 -30 0 0 170 c0 164 -1 170 -20 170 -27 0
-44 -44 -31 -79 28 -74 42 -148 34 -182 -9 -34 -60 -79 -89 -79 -23 0 -17 59
7 79 l21 17 -21 82 c-11 45 -21 102 -21 127 0 28 -4 44 -10 40 -6 -4 -10 -73
-10 -176 l0 -169 -30 0 c-22 0 -33 6 -41 23 -15 34 -110 88 -164 95 -41 4 -47
8 -60 40 -8 19 -15 40 -15 47 0 20 89 72 176 105 44 16 72 30 64 30 -37 4
-255 -2 -260 -6 -2 -3 -5 -78 -5 -167 l0 -162 -32 -3 -33 -3 0 170 0 171 -54
0 c-30 0 -61 3 -70 6 -9 3 -16 1 -16 -5 0 -6 9 -11 20 -11 53 0 110 -61 110
-118 0 -33 -21 -82 -40 -92 -25 -14 -63 -13 -78 2 -9 9 -12 -3 -12 -55 l0 -67
-34 0 c-27 0 -35 5 -40 23 -7 31 -102 86 -165 96 -28 4 -53 10 -54 12 -1 2 -8
19 -15 38 -10 30 -9 37 4 53 9 9 26 20 38 24 11 4 24 11 27 16 3 5 44 25 90
44 l84 34 -138 0 -138 0 3 -170 3 -170 -32 0 -33 0 0 170 0 170 -135 0 -136 0
3 -137 3 -138 38 3 c77 7 128 41 141 94 5 20 1 33 -14 48 -29 29 -40 25 -27
-9 15 -40 -13 -73 -57 -69 -40 4 -61 41 -52 91 8 45 44 67 111 67 38 0 52 -5
76 -29 25 -25 29 -37 29 -83 0 -97 -60 -151 -196 -178 -33 -6 -72 -10 -88 -8
l-28 3 1 172 2 172 -23 3 c-18 2 -24 10 -26 36 l-3 32 785 0 786 0 0 -25 0
-25 42 27 c35 24 52 28 105 27 54 0 70 -5 108 -32 41 -29 45 -30 45 -12 0 11
-6 20 -14 20 -7 0 -21 11 -29 24 -12 18 -27 24 -66 28 -72 7 -101 29 -101 77
0 44 20 66 77 87 52 18 147 18 184 -2z m-2311 -219 c0 -14 2 -25 5 -25 2 0 15
11 29 25 32 32 104 34 159 5 l37 -20 0 20 c0 18 7 20 61 20 l60 0 -3 -32 c-2
-25 -8 -34 -25 -36 -23 -3 -23 -4 -23 -196 l0 -192 -29 2 c-16 1 -43 12 -59
24 -30 22 -31 22 -80 5 -56 -20 -92 -15 -122 17 -27 29 -25 45 7 61 24 13 28
13 44 -7 17 -21 18 -21 63 -4 34 13 53 15 72 8 14 -6 27 -10 30 -10 2 0 4 44
4 98 0 78 -4 103 -20 129 -26 43 -62 65 -101 61 -45 -4 -51 -28 -7 -28 45 0
75 -23 87 -66 18 -67 -5 -120 -68 -153 -31 -17 -51 -7 -51 27 0 21 7 32 25 40
29 13 43 56 25 77 -14 17 -56 20 -65 5 -9 -15 -44 -12 -61 4 -17 17 -18 49 -4
77 9 16 7 19 -10 19 -20 0 -21 -4 -18 -170 l3 -170 -37 0 -38 0 0 63 c-1 70
-18 100 -68 118 -39 13 -102 -3 -120 -31 -15 -24 -8 -55 13 -64 9 -3 12 0 9 8
-7 19 35 66 60 66 23 0 58 -32 68 -61 3 -8 0 -29 -7 -46 -25 -59 -134 -66
-191 -12 -20 19 -24 32 -24 84 0 56 3 64 30 89 17 14 44 29 60 33 67 13 8 87
-70 88 l-45 0 -3 -167 -2 -168 -35 0 -35 0 0 98 c0 147 -35 176 -76 64 -25
-66 -56 -92 -113 -92 -73 1 -103 37 -62 74 16 15 22 15 40 4 58 -36 83 65 35
139 -28 42 -47 53 -96 53 -25 0 -28 4 -28 35 l0 35 385 0 385 0 0 -25z m1490
-575 c65 -23 114 -72 129 -127 6 -21 11 -126 11 -233 l2 -195 -294 0 -293 0
-5 143 c-4 112 -8 145 -20 152 -9 6 -232 9 -586 8 -466 -3 -574 -6 -587 -17
-15 -12 -17 -40 -17 -213 l0 -199 1060 2 c583 0 1062 4 1064 8 3 4 31 4 63 0
32 -4 275 -8 540 -8 l481 -1 4 -132 c2 -73 2 -137 1 -143 -2 -7 -327 -9 -958
-7 -525 2 -955 2 -955 -1 0 -3 17 -39 38 -80 46 -89 57 -165 41 -290 -13 -109
-54 -193 -111 -233 l-43 -29 -195 -2 c-107 -2 -206 -3 -220 -3 -14 0 -37 -11
-52 -25 -27 -25 -46 -70 -35 -81 3 -3 84 -17 179 -29 291 -40 486 -75 611
-111 17 -5 18 13 15 380 -2 252 0 386 7 387 6 1 300 1 654 0 711 -2 682 1 747
-67 80 -82 100 -205 90 -549 -3 -126 -10 -248 -16 -270 -5 -22 -12 -53 -16
-70 -10 -45 -77 -129 -121 -151 -34 -17 -67 -19 -331 -22 l-292 -3 2 212 3
212 48 3 c83 3 131 56 129 143 0 24 -8 61 -17 82 -25 54 -68 69 -202 69 l-106
0 6 -615 6 -615 -299 0 -298 0 1 62 2 63 -60 9 c-41 6 -78 5 -120 -3 -61 -13
-225 -87 -225 -102 0 -5 -5 -9 -12 -9 -6 0 -26 -11 -44 -25 -43 -33 -148 -81
-205 -94 -24 -6 -89 -11 -144 -11 -270 0 -450 130 -544 393 -17 48 -31 99 -31
112 0 13 -5 25 -11 27 -7 2 -9 15 -5 35 7 29 10 31 69 37 63 7 211 30 412 65
61 11 112 17 114 15 3 -3 5 -69 5 -147 1 -102 5 -150 15 -170 17 -33 73 -62
98 -52 10 4 29 9 42 11 37 5 161 70 216 114 88 70 222 107 362 98 l72 -5 -3
29 c-1 15 -5 31 -8 34 -22 21 -700 172 -943 210 -95 14 -437 64 -442 64 -2 0
-3 106 -3 236 0 198 3 240 16 263 17 29 49 47 104 57 19 4 40 10 45 15 6 4 77
10 158 13 155 6 218 17 279 48 81 40 78 115 -6 158 -41 21 -299 19 -376 -2
-78 -23 -113 -37 -122 -51 -6 -9 -8 -9 -8 1 0 10 -5 10 -20 2 -37 -20 -43 -4
-37 102 4 55 4 112 0 129 l-5 29 -79 -1 -79 -1 -2 -790 -3 -790 -293 1 -293 1
1 791 0 791 -92 -4 -93 -3 -3 143 -3 142 96 0 95 0 0 235 c0 309 10 353 94
412 71 51 62 50 1116 52 959 1 987 0 1040 -19z m-442 -2836 c42 -9 103 -30
135 -47 53 -28 58 -33 52 -56 -4 -14 -9 -29 -13 -33 -4 -4 -44 12 -90 34 -60
31 -95 42 -131 42 -84 2 -133 -41 -111 -95 l12 -29 454 0 c296 0 454 3 454 10
0 6 -4 10 -10 10 -5 0 -10 13 -10 28 0 33 48 105 82 123 66 36 171 25 290 -29
62 -28 65 -31 60 -61 -2 -17 -8 -33 -12 -36 -5 -3 -44 12 -87 34 -99 50 -149
58 -198 35 -45 -21 -60 -49 -46 -87 l11 -28 183 1 c100 1 188 1 195 1 12 -1
16 -38 6 -65 -3 -8 -12 -12 -20 -9 -12 4 -14 -22 -14 -166 l0 -171 -35 0 c-24
0 -35 5 -35 14 0 36 -120 103 -196 109 -23 2 -29 9 -40 46 -12 40 -11 46 4 58
27 21 177 93 195 93 9 0 19 5 22 10 4 6 -40 10 -124 10 l-131 0 0 -170 0 -170
-30 0 -30 0 0 170 c0 144 -2 170 -15 170 -13 0 -15 -26 -15 -170 l0 -170 -30
0 -30 0 0 173 0 172 -75 -3 -76 -4 26 -20 c17 -13 25 -29 25 -51 0 -29 1 -30
14 -12 12 17 18 18 40 7 24 -11 26 -17 26 -70 0 -111 -62 -182 -159 -182 -92
0 -167 72 -197 192 -17 66 -12 78 32 78 17 0 23 -8 28 -37 4 -21 16 -58 27
-83 32 -70 114 -101 167 -64 34 24 26 31 -30 27 -44 -4 -58 0 -81 19 -52 42
-47 161 6 186 17 8 0 11 -76 13 l-97 4 0 -172 0 -173 -35 0 -35 0 0 104 c0 82
-3 108 -16 120 -23 24 -41 19 -53 -14 -8 -24 -16 -30 -40 -30 -21 0 -34 7 -42
23 -15 28 -28 37 -58 37 -37 0 -61 -28 -61 -71 0 -21 5 -41 10 -44 6 -3 10 3
10 14 0 27 26 51 57 51 64 0 85 -75 35 -123 -63 -60 -173 -15 -186 77 -15 100
38 176 122 176 43 0 92 -17 92 -32 0 -13 20 -9 36 7 9 8 33 15 55 15 28 0 39
4 39 15 0 16 11 15 -250 17 l-115 1 -2 -169 -1 -169 -31 -3 -31 -3 0 173 0
173 -90 0 -90 0 0 -52 c0 -29 3 -53 8 -53 4 0 22 16 41 35 33 34 61 42 95 29
13 -5 16 -22 16 -86 0 -121 -37 -179 -126 -199 -48 -11 -58 -10 -108 11 -76
31 -121 96 -131 193 l-7 67 35 0 c33 0 35 -1 40 -45 2 -25 16 -67 29 -93 19
-38 32 -50 66 -62 71 -25 123 11 138 95 l7 40 -37 -28 c-21 -17 -56 -31 -86
-36 l-50 -8 0 96 0 96 -90 -3 c-88 -3 -91 -4 -114 -35 -44 -60 -58 -139 -34
-192 14 -30 19 -31 36 -5 14 23 57 27 77 6 26 -26 28 -60 4 -90 -20 -26 -27
-28 -71 -24 -72 7 -116 66 -125 167 -6 69 22 150 70 206 l33 38 218 -2 218 -2
-8 23 c-22 64 22 132 102 160 27 9 50 17 52 18 2 0 38 -7 80 -16z m-1229 -184
l387 0 0 -35 c0 -33 -6 -39 -33 -36 -10 1 -13 -38 -13 -169 l0 -170 -35 0 -35
0 0 63 c-1 65 -13 89 -58 115 -30 17 -61 15 -102 -6 -38 -19 -51 -61 -24 -83
11 -9 14 -8 14 9 0 22 43 62 67 62 8 0 25 -11 38 -25 30 -29 32 -74 6 -106
-16 -20 -28 -24 -79 -24 -55 0 -63 3 -91 32 -25 27 -31 41 -31 78 0 65 23 103
76 126 24 11 44 26 44 33 0 45 -142 96 -153 55 -3 -10 -5 -87 -4 -171 l0 -153
-31 -3 -32 -3 0 170 c0 171 0 171 -22 171 -13 1 -88 1 -168 0 l-145 0 -32 -36
c-45 -51 -57 -152 -23 -204 8 -13 12 -11 26 8 13 19 23 23 45 18 16 -3 29 -1
29 4 0 6 32 10 71 10 113 0 157 31 133 94 -14 36 -134 40 -134 4 0 -9 3 -9 12
0 18 18 56 14 68 -7 24 -46 -1 -81 -60 -81 -30 0 -43 6 -64 31 -30 35 -30 40
-14 86 28 77 178 86 242 14 14 -16 20 -37 20 -75 1 -63 -17 -89 -79 -116 l-40
-17 63 -29 c57 -26 62 -31 56 -54 -3 -14 -9 -29 -14 -33 -4 -5 -56 14 -115 42
-59 28 -110 51 -112 51 -3 0 -14 -12 -26 -26 -18 -23 -26 -26 -67 -22 -49 5
-71 20 -106 73 -15 23 -19 48 -19 110 0 70 4 87 30 133 40 72 80 106 118 98
16 -3 204 -6 416 -6z m-3281 -26 c61 -30 127 -101 136 -145 24 -123 -19 -210
-134 -270 -37 -20 -60 -24 -135 -24 -82 0 -95 3 -145 31 -133 75 -166 227 -74
337 59 70 118 95 225 96 62 1 84 -4 127 -25z m5450 -1951 c-3 -26 -6 -28 -63
-33 -57 -5 -60 -7 -63 -32 -4 -30 -2 -31 66 -28 41 1 42 1 42 -29 0 -31 0 -31
-55 -31 l-55 0 0 -45 0 -45 -40 0 -40 0 0 135 0 135 106 0 105 0 -3 -27z m120
-110 l3 -133 -41 0 -40 0 -2 43 c-1 34 0 213 2 225 0 2 17 2 38 0 l37 -3 3
-132z m225 126 c22 -10 23 -14 13 -40 -7 -20 -15 -28 -26 -23 -39 15 -76 15
-89 0 -11 -13 -9 -17 14 -26 14 -5 33 -10 41 -10 8 0 30 -10 49 -22 44 -29 48
-72 9 -111 -31 -31 -71 -41 -127 -33 -64 10 -73 18 -57 55 8 21 16 28 24 22
11 -9 44 -14 84 -12 31 1 28 29 -5 37 -97 21 -121 45 -109 108 4 20 8 36 9 36
1 0 20 7 42 15 49 17 96 19 128 4z m157 -40 l0 -50 48 3 47 3 -3 48 -4 48 44
-3 43 -3 3 -132 3 -133 -46 0 -47 0 3 47 c3 47 3 47 -31 55 -53 11 -60 5 -60
-52 l0 -50 -40 0 -40 0 0 135 0 135 40 0 40 0 0 -51z"/>
<path d="M3244 5279 c-47 -11 -117 -66 -140 -112 -20 -38 -63 -282 -53 -298
13 -22 83 23 89 57 5 27 9 29 54 31 64 2 86 23 86 80 0 40 2 43 28 43 15 0 65
-7 112 -15 47 -8 97 -15 111 -15 25 0 25 1 18 58 -11 94 -54 142 -152 168 -58
15 -93 16 -153 3z"/>
<path d="M4208 4810 c-9 -6 -38 -64 -64 -131 -55 -137 -53 -154 12 -154 37 0
40 2 64 52 39 82 52 73 90 -69 18 -68 36 -127 40 -131 12 -13 50 11 50 32 0
30 -72 255 -84 263 -6 4 -21 8 -34 8 -22 0 -22 1 -7 36 20 49 19 81 -4 94 -24
12 -41 12 -63 0z"/>
<path d="M2864 4688 c-157 -161 -255 -348 -315 -593 -17 -70 -23 -132 -27
-276 -4 -170 -3 -190 15 -231 22 -48 89 -109 138 -125 l30 -10 -42 -6 c-54 -9
-70 -34 -75 -112 l-3 -60 373 -5 372 -5 20 25 c22 26 26 80 10 110 -6 11 -22
26 -36 33 -24 13 -18 14 81 20 183 12 217 10 211 -10 -34 -111 -55 -290 -62
-529 -5 -158 -4 -213 5 -218 6 -4 36 -10 65 -13 49 -5 54 -8 52 -29 -1 -22 -5
-24 -58 -24 -55 0 -58 1 -58 25 l0 25 -112 0 -113 0 0 -25 0 -25 107 0 107 0
3 -70 3 -71 188 -2 188 -2 -6 25 c-8 30 -18 37 -70 50 -93 23 -144 41 -155 55
-11 13 11 15 179 15 111 0 191 4 191 9 0 5 7 17 16 25 14 15 -2 16 -175 16
-105 0 -191 3 -191 8 0 4 16 66 35 137 125 461 182 728 169 781 -18 73 -481
193 -746 194 -49 0 -88 4 -88 8 0 17 80 196 95 212 8 9 15 21 15 26 1 5 18 38
40 73 34 56 37 66 24 78 -8 8 -27 31 -42 51 -15 20 -43 52 -62 72 -60 62 -111
144 -108 173 5 33 34 65 77 83 38 16 107 19 116 4 3 -5 12 -7 20 -3 12 4 9 13
-15 46 -29 39 -35 42 -129 63 -54 12 -118 32 -142 43 -23 12 -45 21 -49 21 -3
0 -33 -28 -66 -62z"/>
<path d="M4296 4249 c-51 -40 -23 -109 45 -109 32 0 79 35 79 59 0 26 -48 71
-75 71 -12 0 -34 -9 -49 -21z"/>
<path d="M3995 4052 c-17 -15 -129 -39 -225 -47 -51 -5 -94 -41 -113 -96 l-19
-51 29 -58 c25 -52 33 -60 73 -74 25 -8 79 -27 120 -42 87 -30 180 -35 205
-11 8 8 19 17 25 19 16 5 28 104 24 198 -5 116 -11 148 -32 154 -46 13 -78 16
-87 8z"/>
<path d="M1290 3645 c0 -15 39 -76 107 -167 59 -79 131 -177 162 -218 151
-206 177 -239 183 -240 4 0 10 11 14 25 5 18 -3 36 -31 72 -20 26 -82 111
-138 188 -56 77 -111 152 -122 167 -11 14 -27 36 -35 48 -8 12 -27 38 -43 58
-15 19 -26 37 -24 38 2 3 756 6 824 4 6 0 38 -38 72 -85 l61 -85 -241 0 c-254
0 -285 -5 -309 -49 -12 -23 -13 -81 -2 -99 16 -24 67 -27 411 -27 l345 0 -3
59 c-1 32 -8 67 -14 77 -15 24 -51 39 -93 39 -41 0 -44 2 -112 96 -31 43 -52
82 -52 98 l0 26 -480 0 -480 0 0 -25z"/>
<path d="M5216 2605 c-16 -8 -33 -15 -40 -15 -6 0 -23 -6 -38 -14 -14 -8 -42
-19 -63 -26 -20 -6 -34 -15 -32 -18 66 -124 55 -233 -35 -319 -74 -71 -206
-97 -322 -64 -57 17 -160 110 -171 154 -4 15 -10 27 -14 27 -6 0 -99 -33 -136
-49 -11 -5 -32 -13 -47 -20 -16 -6 -28 -15 -28 -20 0 -6 16 -36 35 -69 60
-103 159 -177 293 -219 75 -23 93 -25 205 -20 135 5 186 20 283 82 114 73 184
172 210 297 17 80 13 123 -18 216 -28 82 -44 96 -82 77z"/>
<path d="M4758 2432 c-60 -23 -68 -30 -68 -52 0 -30 31 -63 72 -79 87 -33 175
80 112 143 -20 21 -35 19 -116 -12z"/>
<path d="M1758 2365 c-2 -25 0 -45 4 -45 3 0 10 -15 13 -32 30 -136 162 -270
325 -329 56 -21 83 -24 195 -24 110 0 140 4 197 23 78 27 192 104 235 159 55
70 99 172 105 248 l3 40 -122 3 -123 3 0 -24 c0 -87 -64 -179 -160 -228 -63
-32 -194 -34 -261 -3 -94 44 -169 141 -169 222 l0 32 -119 0 -119 0 -4 -45z"/>
<path d="M2190 2386 c0 -32 43 -82 76 -89 62 -11 134 34 134 85 l0 28 -105 0
c-104 0 -105 0 -105 -24z"/>
</g>
</svg>
