<?xml version="1.0" standalone="no"?>
<!DOCTYPE svg PUBLIC "-//W3C//DTD SVG 20010904//EN"
 "http://www.w3.org/TR/2001/REC-SVG-20010904/DTD/svg10.dtd">
<svg version="1.0" xmlns="http://www.w3.org/2000/svg"
 width="1503.000000pt" height="903.000000pt" viewBox="0 0 1503.000000 903.000000"
 preserveAspectRatio="xMidYMid meet">
<metadata>
Created by potrace 1.16, written by Peter Selinger 2001-2019
</metadata>
<g transform="translate(0.000000,903.000000) scale(0.100000,-0.100000)"
fill="#000000" stroke="none">
<path d="M20 6989 c0 -1119 -3 -3144 -7 -4502 l-6 -2467 869 0 c478 0 3853 -3
7500 -7 l6631 -6 6 3303 c4 1817 7 3840 7 4495 l0 1192 -97 6 c-54 3 -1965 6
-4248 6 -2282 1 -5614 4 -7402 8 l-3253 6 0 -2034z m14638 1945 l292 -6 0
-1132 c0 -622 -3 -2613 -7 -4425 l-6 -3294 -7426 7 c-4084 4 -7427 9 -7429 10
-1 2 1 1994 5 4429 l6 4425 7136 -4 c3925 -2 7268 -7 7429 -10z"/>
<path d="M6275 7744 c-59 -6 -225 -34 -265 -44 -19 -5 -78 -17 -130 -26 -52
-9 -99 -20 -105 -24 -5 -5 -32 -11 -60 -15 -81 -10 -159 -28 -169 -37 -6 -4
-31 -8 -57 -8 -26 0 -59 -4 -74 -10 -25 -9 -26 -13 -23 -77 l3 -68 103 1 c65
0 106 4 114 12 7 7 29 12 51 12 44 0 174 26 199 40 10 5 43 12 75 15 32 2 50
2 40 -1 -34 -11 -51 -64 -55 -171 -8 -203 41 -263 218 -263 71 0 82 3 126 33
75 50 94 92 94 211 0 95 -1 99 -31 137 -22 28 -38 39 -57 39 -36 0 -60 15 -38
23 9 4 16 13 16 21 0 17 11 21 104 37 93 16 283 7 326 -15 18 -9 39 -16 46
-16 7 0 -1 -15 -17 -32 -16 -18 -43 -56 -58 -83 -16 -28 -36 -57 -45 -64 -9
-7 -16 -26 -16 -42 0 -26 -3 -29 -31 -29 -23 0 -43 -11 -71 -37 -35 -34 -104
-123 -133 -173 -6 -10 -16 -25 -23 -33 -9 -10 -12 -39 -10 -84 l3 -68 48 -3
c26 -2 47 -6 47 -9 0 -3 -18 -25 -40 -49 -22 -24 -40 -52 -40 -61 0 -16 -11
-18 -100 -19 -81 0 -103 -3 -119 -18 -20 -18 -20 -17 -23 44 -2 44 -8 65 -18
70 -54 27 -72 31 -130 28 l-65 -3 0 -70 c0 -62 2 -70 20 -74 11 -2 26 -12 33
-22 9 -14 27 -19 60 -20 28 -1 37 -4 22 -6 -37 -7 -90 -63 -90 -95 0 -21 -5
-28 -19 -28 -32 0 -42 -24 -39 -92 l3 -63 47 -3 47 -3 3 -42 3 -42 66 -3 66
-3 36 47 37 47 0 -39 c0 -64 15 -76 90 -72 l65 3 3 33 c3 29 6 32 37 32 21 0
38 6 43 16 5 8 20 21 33 28 22 11 24 18 24 81 l0 70 -33 3 -32 3 20 26 c11 14
20 34 20 44 0 11 7 19 15 19 8 0 23 12 32 27 l18 27 5 -64 5 -65 75 0 75 0 0
75 0 75 -62 3 c-35 2 -63 5 -63 8 0 3 25 36 55 72 30 37 76 93 102 126 27 32
56 66 66 76 14 14 17 30 15 81 l-3 64 -62 3 c-59 3 -63 4 -63 27 0 22 4 25 36
25 30 0 44 8 88 54 29 29 58 67 65 85 9 21 20 31 35 31 32 0 46 19 46 61 0 21
5 41 10 44 6 3 10 37 10 74 0 58 -3 71 -23 89 -13 12 -29 22 -37 22 -7 0 -21
6 -29 14 -43 38 -111 49 -331 51 -118 2 -233 1 -255 -1z m-95 -311 c25 -18 42
-41 49 -64 15 -51 14 -60 -14 -112 -14 -27 -20 -49 -15 -52 17 -10 31 5 56 59
17 37 22 60 18 85 -5 24 -3 32 5 27 19 -12 12 -88 -12 -131 -13 -23 -42 -52
-70 -69 -46 -29 -50 -29 -95 -17 -60 16 -78 32 -98 93 -27 82 -6 175 44 195
49 19 91 15 132 -14z"/>
<path d="M5055 7511 c-28 -6 -30 -9 -33 -61 l-3 -55 -66 3 c-36 2 -75 -1 -87
-7 -12 -6 -43 -12 -71 -13 l-50 -3 0 -70 c0 -69 1 -70 32 -85 27 -13 32 -21
35 -55 l3 -40 75 0 c74 0 75 0 78 28 3 21 9 27 27 27 13 0 27 5 30 10 3 6 29
10 58 10 l51 0 -37 -38 c-20 -21 -37 -41 -37 -45 0 -4 -9 -16 -20 -27 -18 -18
-20 -31 -18 -98 l3 -77 67 -3 67 -3 20 39 c11 22 43 64 71 95 l51 56 -3 68 -3
68 -50 3 -50 3 3 57 c2 31 7 66 13 77 6 12 9 48 7 80 l-3 60 -65 2 c-36 0 -78
-2 -95 -6z"/>
<path d="M4514 7337 c-3 -8 -4 -41 -2 -73 l3 -59 70 0 70 0 0 70 0 70 -68 3
c-51 2 -69 -1 -73 -11z"/>
<path d="M7554 6877 c-3 -8 -4 -41 -2 -73 l3 -59 40 -3 40 -3 -3 -39 c-3 -33
-8 -39 -30 -42 -26 -3 -27 -6 -30 -71 -3 -62 -1 -69 18 -74 l21 -6 -21 -14
c-11 -8 -20 -23 -20 -34 0 -10 -6 -19 -13 -19 -19 0 -77 -63 -77 -83 0 -10 -8
-17 -18 -17 -10 0 -35 -17 -55 -38 -37 -38 -38 -41 -35 -103 l3 -64 64 -3 c62
-3 65 -2 103 35 21 20 38 45 38 55 0 11 7 18 18 18 20 0 82 59 82 78 0 7 6 12
13 12 18 0 127 114 127 134 0 10 8 16 24 16 26 0 56 33 56 61 0 11 10 18 29
21 27 4 29 3 19 -16 -39 -74 -93 -151 -123 -178 -19 -16 -42 -42 -51 -57 -9
-15 -31 -37 -50 -50 -19 -13 -34 -28 -34 -33 0 -5 -13 -21 -30 -35 -24 -20
-30 -33 -30 -63 0 -37 -1 -39 -36 -42 -24 -2 -41 -10 -48 -23 -6 -11 -17 -24
-23 -28 -7 -4 -13 -28 -13 -52 l0 -45 -42 0 c-39 0 -51 -7 -128 -75 -47 -42
-87 -81 -89 -88 -2 -6 -10 -16 -17 -20 -8 -4 -14 -19 -14 -32 0 -25 -1 -25
-100 -25 l-100 0 0 53 c0 56 -11 76 -44 79 -12 0 -1 4 24 7 l45 6 0 75 0 75
-45 16 c-25 9 -58 22 -75 29 -17 8 -66 14 -110 14 -79 1 -80 1 -83 -25 -2 -17
-11 -29 -23 -32 -10 -3 -19 -12 -19 -21 0 -12 -11 -16 -49 -16 -28 0 -52 -4
-56 -9 -3 -6 -57 -8 -128 -6 l-122 4 -6 37 c-4 21 -16 45 -27 55 -19 14 -22
29 -24 115 l-3 99 -75 0 -75 0 2 -103 c1 -57 4 -111 8 -120 4 -9 6 -47 5 -84
-1 -56 3 -73 24 -106 21 -33 26 -55 28 -124 l3 -83 35 -3 c57 -4 80 -21 80
-58 0 -46 38 -74 101 -74 42 0 48 -3 51 -22 3 -25 32 -35 106 -37 26 -1 41 -5
37 -11 -3 -5 -13 -10 -21 -10 -9 0 -34 -13 -57 -28 -39 -27 -121 -74 -190
-109 -27 -14 -28 -17 -25 -81 3 -61 5 -67 26 -70 18 -3 22 -10 22 -36 0 -19 6
-39 14 -45 12 -10 206 -30 299 -31 25 0 27 -3 27 -43 0 -68 13 -79 95 -75 l70
3 3 53 3 52 59 0 59 0 3 -52 3 -53 70 0 70 0 6 50 5 50 5 -45 4 -45 70 0 70 0
3 41 c3 39 5 42 40 48 55 8 165 -11 282 -51 88 -30 164 -65 365 -166 11 -6 50
-12 87 -15 l68 -5 0 -52 0 -52 -92 -9 c-86 -8 -93 -11 -96 -31 -3 -19 -10 -23
-41 -23 -28 0 -45 -8 -72 -33 -45 -44 -177 -191 -211 -236 -85 -112 -94 -121
-143 -142 -27 -12 -57 -27 -65 -34 -8 -8 -31 -15 -50 -17 l-35 -3 0 -70 0 -70
35 -6 c19 -4 32 -7 28 -8 -4 0 -33 -8 -65 -17 -122 -33 -121 -33 -126 -13 -4
15 -15 19 -54 19 l-48 0 3 66 c4 62 2 68 -27 98 -25 26 -30 41 -33 86 l-3 55
-52 3 -53 3 0 40 c0 27 -5 42 -16 46 -9 3 -64 2 -122 -3 l-107 -9 -3 -52 -3
-52 -37 -3 c-36 -3 -37 -4 -40 -45 -3 -37 -6 -43 -26 -43 -18 0 -27 10 -39 40
l-16 41 -68 -3 -68 -3 -3 -57 c-3 -59 16 -132 45 -178 20 -31 18 -121 -3 -133
-8 -5 -14 -23 -14 -47 0 -43 2 -41 -81 -55 -52 -8 -60 -23 -57 -102 l3 -68 60
-3 c77 -4 242 25 330 59 28 10 68 23 90 28 22 5 67 16 100 25 33 9 123 21 200
26 168 11 422 68 515 117 14 7 31 13 37 13 37 0 290 132 391 204 63 45 128 91
146 102 30 21 98 94 194 212 42 51 43 55 49 140 5 80 4 89 -16 106 -17 16 -21
30 -21 84 0 61 -2 66 -39 103 -35 35 -44 39 -89 39 -50 0 -51 1 -54 33 -3 28
-8 33 -43 42 -22 6 -58 22 -80 36 -39 26 -70 41 -229 114 -181 82 -287 95
-758 92 -362 -2 -389 1 -348 38 11 10 20 31 20 47 0 24 4 28 28 28 16 0 37 9
47 20 9 10 40 27 69 36 28 9 56 20 61 24 6 4 23 10 39 14 15 4 47 16 70 26 22
11 64 27 91 35 71 24 95 41 95 70 0 20 5 25 23 25 29 0 57 29 57 58 0 14 6 22
16 22 9 0 44 27 78 59 33 32 80 76 104 97 37 33 42 42 42 81 l0 43 43 0 c56 0
97 42 97 101 0 37 1 39 32 39 24 0 43 11 77 44 217 211 236 234 296 351 19 38
39 73 45 79 5 5 10 50 10 98 0 80 -2 91 -24 113 -30 30 -74 38 -175 34 l-80
-4 -3 45 -3 45 -70 0 -70 0 -3 -42 c-2 -29 -8 -43 -17 -43 -10 0 -15 18 -17
68 l-3 67 -68 3 c-51 2 -69 -1 -73 -11z m-1251 -1119 c18 -12 42 -31 54 -42
54 -51 69 -64 83 -70 8 -3 38 -20 65 -37 28 -16 58 -33 68 -36 9 -3 17 -9 17
-13 0 -31 239 -34 287 -4 12 8 35 14 49 14 39 0 94 22 94 36 0 8 -17 14 -42
17 l-43 4 48 1 c26 1 47 -2 47 -7 0 -5 2 -15 5 -23 3 -8 -8 -20 -27 -30 -36
-19 -162 -46 -219 -47 -20 0 -48 -5 -62 -10 -18 -7 -54 -7 -109 0 -81 10 -113
19 -69 19 32 0 16 18 -35 40 -24 11 -71 42 -104 69 -33 28 -69 55 -79 60 -19
11 -76 81 -66 81 4 0 21 -10 38 -22z m1939 -1365 c-49 -62 -127 -143 -155
-161 -14 -9 -76 -53 -139 -98 -102 -72 -354 -204 -391 -204 -6 0 -23 -6 -37
-13 -93 -49 -347 -106 -515 -117 -77 -5 -167 -17 -200 -26 -33 -9 -78 -20
-100 -25 -22 -5 -62 -18 -90 -29 -27 -10 -77 -24 -110 -30 -33 -6 -80 -16
-104 -21 -24 -6 -46 -7 -49 -4 -13 13 20 27 89 36 41 6 104 22 140 35 37 14
106 35 155 47 48 12 89 27 91 33 4 13 -66 44 -101 44 -12 0 -33 9 -46 20 -13
11 -27 20 -31 20 -17 0 -111 105 -140 157 -39 68 -34 78 8 15 70 -107 106
-137 230 -195 34 -15 38 -2 13 35 -19 27 -13 24 31 -18 62 -58 112 -74 230
-74 137 0 491 101 699 199 81 38 240 138 334 210 61 47 196 180 196 194 0 4 5
7 11 7 6 0 -3 -17 -19 -37z"/>
<path d="M5725 6850 c-3 -5 -34 -10 -69 -10 -34 0 -66 -4 -71 -9 -6 -5 -28
-11 -50 -13 -35 -3 -40 -6 -43 -30 -2 -19 -10 -28 -25 -30 -21 -3 -22 -8 -22
-83 l0 -80 32 -9 c21 -7 33 -17 35 -30 2 -14 12 -22 29 -24 17 -2 29 -11 32
-23 4 -16 14 -19 69 -19 35 0 68 4 74 9 5 6 29 11 54 13 38 2 46 7 48 25 2 15
11 23 30 25 l27 3 -3 135 c-1 74 -4 141 -7 148 -5 15 -131 17 -140 2z"/>
<path d="M11410 6804 c-16 -9 -57 -14 -112 -14 -106 0 -180 -15 -204 -41 -9
-10 -23 -19 -30 -19 -6 0 -26 -16 -43 -35 -25 -29 -31 -45 -31 -80 l0 -45 -69
0 c-68 0 -70 -1 -90 -34 -39 -63 -22 -295 22 -304 8 -2 17 -12 20 -22 3 -11
13 -23 24 -26 10 -3 28 -10 39 -16 27 -13 207 -16 251 -5 31 8 32 8 35 -30 l3
-38 105 0 105 0 3 83 3 83 47 -7 c26 -3 54 -13 63 -20 8 -8 25 -14 36 -14 11
0 26 -7 33 -15 7 -8 19 -15 26 -15 8 0 14 -9 14 -20 0 -10 6 -23 13 -27 6 -4
17 -17 23 -28 10 -18 22 -20 115 -20 l104 0 3 33 c3 29 6 32 19 21 9 -8 54
-15 110 -17 76 -4 99 -8 114 -23 16 -16 34 -19 107 -19 55 0 92 4 100 12 19
19 17 377 -3 405 -10 14 -12 24 -5 28 5 3 10 15 10 26 0 14 7 19 25 19 35 0
46 35 43 129 l-3 76 -395 1 c-341 1 -400 4 -432 18 -46 20 -162 20 -198 0z
m135 -68 c29 -13 35 -20 35 -46 0 -20 -9 -39 -25 -54 -30 -28 -32 -46 -6 -46
26 0 48 23 73 76 22 48 24 49 63 34 17 -7 24 -7 20 0 -3 6 -2 10 3 10 14 0 23
-30 16 -52 -4 -14 0 -21 15 -25 23 -6 36 -40 29 -78 -3 -14 -2 -25 1 -25 4 0
5 -16 3 -35 -2 -19 1 -41 6 -48 6 -7 9 -22 6 -34 -3 -11 1 -27 9 -35 15 -15
17 -64 3 -86 -4 -7 -4 -17 0 -24 4 -6 3 -8 -4 -4 -6 3 -23 1 -38 -4 -20 -8
-29 -8 -35 1 -4 6 -11 9 -17 5 -6 -3 -13 -2 -17 4 -3 5 1 10 9 10 8 0 18 5 22
12 5 8 0 9 -16 5 -12 -3 -33 -1 -47 4 -16 6 -22 6 -18 -1 3 -6 1 -10 -5 -10
-6 0 -15 12 -20 26 -8 21 -15 25 -33 19 -30 -9 -110 -6 -121 5 -6 6 -4 15 3
23 9 12 8 16 -4 21 -9 3 -13 11 -10 17 4 6 14 8 22 5 8 -3 25 1 37 10 13 8 36
17 51 20 24 4 64 38 65 55 0 4 -7 12 -15 19 -11 9 -18 10 -29 1 -34 -28 -143
31 -130 71 4 14 0 18 -16 18 -21 0 -22 3 -15 48 7 46 30 86 45 77 4 -3 13 2
20 10 15 19 22 19 65 1z m-175 -295 l0 -280 -40 2 c-38 1 -40 3 -40 35 0 22
-8 40 -25 56 -14 13 -25 26 -25 29 0 3 19 5 43 4 l42 -2 2 150 c1 83 4 167 6
188 6 45 -13 59 -43 32 -11 -10 -32 -19 -47 -21 -15 -1 -29 -8 -31 -13 -2 -6
-11 -11 -20 -11 -9 0 -25 -14 -35 -32 -16 -27 -16 -33 -4 -46 12 -11 18 -12
36 0 17 10 25 10 41 0 11 -6 31 -12 45 -12 22 0 25 -4 25 -34 0 -34 -15 -57
-22 -35 -2 6 -14 2 -30 -10 -28 -22 -43 -27 -33 -11 8 14 -18 13 -50 -2 -22
-10 -29 -8 -50 12 -14 13 -25 29 -25 36 0 6 -7 17 -15 24 -31 26 -12 139 22
126 11 -5 13 -2 9 9 -3 10 1 18 12 22 9 3 26 14 37 24 26 23 83 37 158 38 l57
1 0 -279z m795 270 c83 -1 162 1 178 5 29 7 32 0 21 -42 -6 -24 -54 -31 -54
-8 0 8 -7 14 -15 14 -8 0 -15 -7 -15 -16 0 -10 -6 -14 -14 -11 -7 3 -18 1 -24
-5 -8 -8 -15 -8 -26 1 -8 7 -21 9 -27 5 -8 -5 -9 -3 -4 6 6 9 -3 11 -41 5 -82
-11 -226 -17 -260 -10 -21 3 -35 13 -39 26 -10 31 -49 21 -53 -13 -2 -16 -8
-28 -13 -28 -14 0 -22 27 -15 53 5 23 7 24 128 21 68 -1 191 -3 273 -3z m105
-121 c6 0 10 -27 10 -66 0 -45 5 -70 15 -81 13 -12 15 -39 13 -146 -3 -143 -5
-147 -64 -133 -22 6 -24 10 -20 59 2 28 4 64 5 80 1 17 7 27 16 27 20 0 19 16
-1 24 -12 5 -15 17 -13 49 4 38 2 43 -16 43 -11 -1 -19 5 -17 12 1 8 -2 11 -7
8 -5 -4 -16 2 -23 12 -7 10 -28 19 -48 20 -19 2 -37 7 -41 13 -3 6 -28 -11
-58 -40 -45 -44 -51 -54 -47 -83 10 -81 46 -115 66 -63 11 29 57 35 67 10 5
-14 7 -14 23 0 14 13 20 13 26 4 4 -7 2 -15 -4 -17 -18 -6 -14 -19 7 -25 31
-8 13 -55 -30 -80 -69 -40 -180 7 -223 95 -21 41 -22 118 -1 118 8 0 15 5 15
10 0 6 -4 10 -10 10 -18 0 -10 17 28 58 49 53 92 76 92 49 0 -6 15 -17 34 -23
29 -9 37 -8 48 6 8 9 13 21 10 28 -8 25 50 3 75 -28 10 -13 13 -11 22 13 6 16
11 36 11 46 0 27 13 34 22 11 4 -11 12 -20 18 -20z m-1330 -104 c0 -8 8 -17
19 -21 15 -4 17 -13 13 -54 -2 -28 0 -51 6 -55 7 -4 6 -15 -3 -34 -14 -25 -13
-27 7 -35 12 -4 26 -3 32 3 7 7 4 10 -8 10 -9 0 -14 5 -11 11 5 7 15 5 31 -6
23 -15 28 -14 75 10 59 29 60 29 53 11 -4 -10 3 -16 23 -18 80 -9 -23 -81
-113 -79 -30 0 -62 5 -72 10 -9 5 -25 12 -35 15 -10 3 -15 11 -12 16 10 15
-15 42 -33 35 -10 -4 -12 0 -8 11 3 8 -1 22 -9 30 -20 21 -19 89 2 125 18 31
43 39 43 15z"/>
<path d="M12624 6769 c-9 -10 -23 -19 -30 -19 -8 0 -20 -12 -28 -28 -8 -15
-23 -35 -34 -46 -14 -11 -29 -51 -42 -110 -18 -75 -21 -108 -16 -186 7 -103
31 -199 53 -207 7 -3 13 -11 13 -17 0 -7 15 -23 33 -37 30 -22 41 -24 149 -24
115 0 118 1 145 27 20 20 29 41 33 77 l5 50 40 -19 c22 -11 47 -20 55 -20 8 0
26 -9 40 -20 14 -11 31 -20 38 -20 6 0 12 -7 12 -15 0 -9 7 -27 16 -40 15 -23
22 -25 105 -25 77 0 90 3 102 20 l14 20 18 -20 c16 -18 31 -20 121 -20 58 0
106 4 109 10 3 6 14 10 24 10 29 0 51 44 51 99 l0 49 40 -19 c21 -10 46 -19
53 -19 23 0 76 -54 92 -94 l15 -36 100 0 c99 0 101 0 110 26 6 14 10 50 10 80
l0 54 53 0 c68 0 97 19 97 65 0 19 5 37 10 40 6 3 10 46 10 95 0 49 -4 92 -10
95 -22 13 -9 34 23 37 l32 3 0 100 0 100 -587 2 c-323 1 -590 -2 -593 -7 -2
-4 -24 -4 -47 0 -24 4 -127 8 -230 8 -171 0 -188 -2 -204 -19z m352 -64 c5
-11 11 -12 25 -5 28 15 76 -13 97 -56 14 -30 14 -36 2 -44 -11 -7 -14 -25 -12
-70 3 -58 2 -61 -17 -55 -22 7 -29 -9 -10 -21 7 -4 1 -16 -15 -33 -20 -21 -23
-30 -14 -39 7 -7 18 -12 26 -12 7 0 10 -5 7 -11 -4 -6 -1 -9 6 -8 8 1 28 -4
44 -11 17 -7 35 -14 40 -14 10 -1 11 -9 7 -56 -3 -29 -26 -35 -57 -14 -24 16
-25 18 -9 35 21 23 7 25 -24 4 -20 -14 -25 -14 -62 3 -39 18 -44 32 -10 32 9
0 24 6 33 13 15 10 11 12 -27 15 -36 2 -45 -1 -49 -18 -3 -13 -14 -20 -29 -20
-35 0 -55 20 -62 60 -6 35 -5 36 49 59 31 13 54 29 52 35 -2 6 -27 14 -56 18
-66 8 -91 32 -91 87 l0 40 32 -10 c47 -13 48 -13 48 26 0 39 -5 42 -32 18 -16
-14 -18 -14 -18 0 0 20 49 59 67 53 7 -3 15 -1 18 4 9 15 35 12 41 -5z m996 0
c21 -7 39 -9 40 -4 2 4 49 11 106 15 l102 7 0 -37 0 -36 -44 0 c-25 0 -57 5
-72 10 -19 8 -30 7 -40 -1 -12 -10 -13 -9 -8 5 7 18 -10 22 -29 6 -7 -6 -20
-16 -30 -23 -24 -16 -12 -48 17 -46 45 4 66 -1 66 -17 0 -8 5 -12 11 -9 6 4
21 -3 34 -15 18 -17 23 -29 18 -51 -4 -22 -2 -29 11 -29 22 0 22 -56 -1 -68
-12 -7 -14 -18 -10 -41 5 -24 2 -33 -13 -41 -24 -13 -76 -13 -100 0 -28 15
-40 -8 -39 -76 2 -97 3 -94 -38 -94 -35 0 -39 4 -55 40 -21 51 -21 56 2 53 25
-3 33 24 10 37 -26 14 -30 13 -30 -9 0 -24 -29 -36 -37 -15 -3 9 -2 28 3 42 7
20 16 26 39 27 l30 0 -2 79 c0 43 -5 82 -10 87 -8 8 -92 -26 -104 -43 -3 -5
-19 -12 -35 -17 -18 -4 -30 -15 -32 -28 -2 -16 4 -21 33 -26 38 -6 65 -22 65
-39 0 -6 -9 -8 -20 -5 -12 3 -20 1 -19 -6 5 -40 0 -45 -30 -34 -17 6 -28 14
-26 17 9 14 -22 43 -39 37 -10 -4 -14 -11 -11 -17 4 -6 -8 -10 -29 -10 -41 0
-68 31 -64 71 2 15 -2 23 -9 21 -7 -1 -13 2 -13 6 0 14 23 32 42 32 9 0 15 6
13 13 -5 15 122 78 163 81 15 1 38 12 50 24 12 12 31 22 42 22 13 0 24 10 30
25 6 16 17 25 30 25 12 0 19 4 15 10 -3 5 -12 7 -20 3 -11 -4 -14 1 -13 18 3
20 -2 24 -30 27 -31 3 -33 2 -23 -17 19 -35 4 -51 -48 -50 -45 2 -46 2 -11 9
l35 7 -43 2 c-24 0 -41 5 -38 10 8 12 -20 22 -39 15 -8 -4 -15 -12 -15 -19 0
-15 -122 -28 -179 -19 -33 5 -42 2 -65 -22 -14 -16 -41 -60 -60 -99 -38 -79
-42 -141 -13 -207 18 -42 40 -49 59 -18 13 20 58 28 58 11 0 -5 10 -7 21 -4
42 11 67 -68 35 -109 -16 -22 -42 -23 -50 -3 -3 8 -12 15 -19 15 -8 0 -20 -7
-27 -15 -11 -13 -8 -15 14 -15 14 0 26 -5 26 -11 0 -6 -19 -9 -47 -7 -39 2
-50 7 -58 25 -6 15 -16 21 -26 18 -16 -6 -49 32 -53 62 -1 8 -8 18 -14 22 -7
4 -15 37 -19 73 -6 68 3 162 15 154 4 -2 18 2 32 11 24 13 24 14 3 10 -17 -4
-23 0 -23 11 0 25 15 43 31 40 10 -2 13 6 11 35 -3 25 1 37 10 38 7 0 -16 8
-52 18 -72 19 -103 11 -75 -19 12 -13 12 -19 2 -29 -11 -11 -13 -94 -5 -221 3
-43 2 -45 -23 -42 -20 2 -28 -3 -34 -20 l-7 -23 -8 25 c-8 25 -14 353 -6 361
2 2 177 5 388 6 288 1 392 -2 420 -12z m-1319 -57 c-5 -28 -4 -31 8 -21 12 10
18 8 32 -8 15 -17 16 -20 2 -26 -9 -3 -23 -24 -32 -46 -15 -36 -18 -38 -29
-22 -16 22 -34 11 -34 -21 0 -15 -6 -24 -15 -24 -8 0 -15 -7 -15 -15 0 -17 16
-20 25 -5 3 6 13 10 21 10 11 0 14 -15 14 -63 0 -35 5 -68 11 -74 8 -8 8 -17
0 -31 -15 -29 -14 -32 12 -32 13 0 34 11 47 25 28 30 84 34 99 8 6 -10 11 -13
11 -8 0 6 5 3 10 -5 17 -26 11 -68 -14 -97 -21 -25 -31 -28 -83 -28 -59 0
-112 24 -113 52 0 7 -6 16 -14 20 -14 8 -46 91 -46 119 0 11 6 13 20 9 21 -7
23 -3 14 33 -4 13 -12 21 -19 18 -22 -8 -23 16 -4 97 12 51 27 87 44 105 14
15 28 35 31 45 10 30 24 18 17 -15z"/>
<path d="M6951 6713 c-35 -33 -53 -59 -57 -83 -4 -19 -13 -44 -21 -55 -16 -24
-18 -168 -1 -216 6 -19 19 -44 28 -56 25 -33 101 -88 139 -101 48 -17 169 -15
223 3 56 20 124 84 149 142 23 55 26 185 4 223 -8 14 -14 35 -15 46 0 24 -79
103 -128 128 -23 12 -60 16 -151 16 l-120 0 -50 -47z m269 -44 c52 -32 110
-91 110 -112 0 -13 -5 -17 -15 -13 -20 7 -32 -21 -16 -37 18 -18 13 -49 -13
-88 -21 -31 -32 -37 -72 -42 -25 -2 -60 -1 -78 4 -42 12 -122 95 -134 139 -6
24 -14 35 -26 33 -30 -2 -10 45 40 93 43 42 47 44 107 44 45 0 71 -6 97 -21z"/>
<path d="M5167 6643 c-4 -3 -7 -35 -7 -69 l0 -63 52 -43 c28 -24 70 -60 94
-81 41 -37 44 -38 111 -35 l68 3 3 64 c4 74 3 74 -111 167 -78 63 -80 64 -141
64 -35 0 -66 -3 -69 -7z"/>
<path d="M4674 6618 c-15 -23 -17 -187 -4 -203 9 -11 33 -15 84 -15 63 0 75 3
94 23 18 19 22 35 22 93 0 103 -11 114 -110 114 -52 0 -81 -4 -86 -12z"/>
<path d="M3383 6477 c-4 -8 -35 -18 -68 -23 l-60 -9 -5 -62 c-4 -52 -7 -61
-20 -53 -8 5 -34 10 -57 10 l-42 0 -3 68 -3 67 -76 3 c-65 2 -78 0 -94 -18
-11 -12 -31 -20 -51 -20 -33 0 -74 -36 -74 -66 0 -9 -11 -14 -28 -14 -37 0
-52 -17 -52 -58 l0 -33 -115 7 c-127 7 -141 3 -165 -56 -10 -23 -19 -30 -48
-32 -36 -3 -37 -4 -40 -45 -3 -40 -5 -43 -33 -43 -57 0 -69 -14 -69 -83 0 -68
18 -107 49 -107 10 0 26 -9 35 -19 22 -24 13 -61 -14 -61 -10 0 -22 -4 -25
-10 -3 -5 -30 -10 -59 -10 -73 0 -86 -16 -86 -109 0 -59 4 -79 22 -103 30 -42
16 -75 -39 -97 -49 -19 -91 -56 -95 -83 -6 -37 -92 -73 -186 -77 -65 -2 -85
-7 -95 -21 -7 -10 -21 -19 -32 -21 -17 -4 -20 -14 -23 -71 -3 -65 -2 -67 31
-92 19 -14 41 -26 50 -26 15 0 17 -13 17 -87 0 -50 6 -99 13 -112 11 -22 9
-28 -10 -48 -15 -14 -23 -34 -23 -56 0 -19 -7 -40 -15 -47 -9 -7 -15 -29 -15
-51 0 -28 -5 -41 -20 -49 -16 -9 -20 -21 -20 -65 0 -29 -5 -57 -10 -60 -5 -3
-10 -23 -10 -44 0 -30 -4 -40 -20 -44 -17 -4 -20 -14 -20 -71 0 -63 1 -66 35
-92 31 -23 35 -32 35 -70 l0 -43 -57 -3 -58 -3 -3 -72 c-3 -64 0 -77 23 -111
14 -22 28 -57 31 -78 3 -21 9 -48 14 -59 22 -51 30 -93 30 -146 l0 -58 -42 -3
-43 -3 -3 -70 c-1 -38 -7 -79 -13 -90 -5 -11 -9 -52 -7 -90 l3 -70 68 -3 c42
-2 74 2 83 9 12 10 14 2 14 -49 l0 -61 42 -20 c29 -14 36 -20 22 -21 -28 0
-44 -19 -44 -52 0 -20 -4 -26 -15 -22 -10 4 -15 25 -17 67 l-3 62 -76 3 c-96
4 -101 -2 -97 -100 3 -71 4 -73 30 -76 25 -3 27 -7 30 -55 l3 -52 70 0 70 0 5
40 c4 29 7 35 12 23 4 -10 15 -18 25 -18 16 0 18 -10 18 -72 l0 -73 75 0 75 0
3 65 c2 36 7 69 13 75 5 5 9 21 9 36 0 26 2 27 60 31 50 2 60 0 64 -14 3 -13
14 -18 40 -18 33 0 36 -2 36 -30 l0 -30 -78 0 c-55 0 -84 -5 -101 -16 -22 -16
-23 -21 -19 -115 3 -92 2 -98 -17 -101 -17 -3 -20 -12 -23 -71 -4 -86 4 -97
74 -97 l54 0 0 -39 c0 -35 5 -42 48 -73 26 -18 70 -44 97 -57 28 -13 57 -27
65 -32 8 -5 25 -13 38 -19 20 -9 22 -17 22 -78 0 -90 12 -102 101 -102 75 0
89 9 89 62 l0 37 63 3 62 3 3 55 c5 79 -36 278 -60 291 -10 5 -18 18 -18 29 0
10 -4 21 -9 24 -5 3 -11 17 -13 31 -5 22 -2 25 25 25 17 0 44 5 61 11 27 10
42 7 105 -17 l74 -29 1 -80 1 -80 65 -5 c65 -4 65 -4 -30 -10 l-95 -5 -7 -85
c-4 -47 -11 -114 -17 -150 -6 -36 -11 -95 -11 -132 0 -90 15 -101 134 -97 69
3 88 0 104 -14 14 -12 36 -17 86 -17 64 0 69 -2 100 -34 29 -32 37 -35 114
-41 45 -4 85 -12 88 -16 7 -12 147 -11 160 0 5 5 54 12 109 15 55 3 125 9 155
13 l55 8 3 60 c1 33 -1 78 -6 100 -7 38 -10 40 -49 43 -45 3 -53 15 -53 80 0
18 -4 41 -9 50 -5 9 -10 58 -13 107 l-4 90 39 19 c31 15 52 17 105 13 81 -8
112 -32 112 -88 0 -21 4 -40 9 -43 13 -8 0 -99 -16 -111 -11 -8 -13 -41 -11
-155 3 -136 4 -145 23 -148 11 -2 30 -8 41 -14 36 -17 235 -6 267 15 25 16 27
23 27 80 0 35 -4 67 -9 72 -5 6 -11 33 -15 62 -5 43 -3 55 13 70 29 28 53 231
31 258 -9 10 -9 15 -1 15 6 0 23 24 38 53 l28 52 5 -75 5 -75 65 -3 65 -3 -3
-55 c-3 -41 -9 -57 -23 -64 -15 -8 -19 -22 -19 -60 l0 -50 -64 0 c-92 0 -108
-15 -104 -100 l3 -65 60 -3 c38 -2 74 3 98 13 31 13 37 20 37 45 0 32 14 40
24 15 5 -13 20 -15 78 -13 67 3 73 5 76 25 3 21 9 23 67 23 86 0 145 29 145
71 0 29 1 29 58 29 49 0 63 4 95 31 34 28 37 35 37 80 0 27 5 80 12 119 10 61
15 70 33 70 35 0 45 20 45 87 0 59 1 63 23 63 30 0 47 18 47 51 0 25 10 38 88
111 19 18 22 31 22 97 l0 76 71 -3 c94 -5 109 8 109 92 1 69 15 96 52 96 38 0
48 18 48 91 0 58 -3 70 -23 86 -21 16 -23 24 -19 93 4 77 12 96 47 116 15 8
21 24 23 58 l3 46 43 0 c60 0 76 21 76 97 0 74 -24 103 -87 103 l-40 0 -7 61
c-3 34 -6 79 -6 100 0 27 -6 42 -20 52 -16 11 -18 16 -7 20 33 13 47 256 17
292 -8 9 -8 15 0 20 5 3 10 37 10 74 0 60 2 69 20 74 18 5 20 14 20 115 0 99
2 110 19 115 17 4 20 19 26 128 4 68 5 138 3 154 -3 28 -6 30 -48 33 l-45 3 3
75 c5 96 -1 104 -85 104 -59 0 -67 -3 -91 -29 l-25 -30 -29 25 c-20 16 -42 24
-68 24 -20 0 -42 6 -48 13 -13 16 -21 77 -10 77 4 0 31 21 58 47 50 47 50 47
50 111 0 95 -6 102 -94 102 -53 0 -77 4 -86 15 -9 11 -33 15 -86 15 l-73 0 -3
53 -3 52 -40 3 -40 3 -1 113 c-2 164 7 156 -174 156 l-150 0 -22 -45 c-12 -25
-27 -45 -34 -45 -6 0 -36 23 -65 51 -30 28 -67 57 -84 66 -16 8 -49 27 -71 42
-40 25 -42 29 -48 90 -5 47 -15 75 -37 107 -34 50 -50 56 -139 52 -60 -3 -65
-5 -68 -27 -4 -22 -7 -23 -72 -19 -54 3 -76 9 -102 28 -31 23 -41 25 -158 25
l-125 0 -3 -32 c-4 -41 -15 -42 -43 -3 -13 16 -40 41 -61 55 -32 21 -49 25
-112 25 -52 0 -78 -4 -83 -13z m130 -79 c45 -30 76 -69 77 -94 1 -81 159 -32
160 49 0 28 9 34 26 17 7 -7 20 -7 42 1 25 8 37 7 59 -5 81 -45 100 -50 179
-50 53 -1 87 -6 97 -15 22 -18 22 -43 0 -39 -10 1 -24 -1 -30 -5 -7 -5 -53
-13 -103 -19 -94 -12 -112 -22 -57 -33 60 -13 103 -39 114 -70 6 -16 19 -51
28 -77 10 -27 21 -48 25 -48 4 0 5 -11 3 -24 -7 -34 15 -42 27 -10 8 20 8 29
-1 35 -7 4 -9 14 -6 23 7 17 -16 81 -33 91 -11 7 -4 25 9 25 4 0 16 -16 27
-35 18 -34 34 -46 34 -24 0 6 -12 31 -27 57 -18 31 -23 47 -15 50 7 2 12 8 12
14 0 5 7 17 16 26 15 15 16 14 10 -5 -8 -26 9 -39 29 -23 16 14 21 70 6 70 -5
0 -9 20 -8 45 3 62 28 58 76 -12 21 -31 31 -102 20 -142 -4 -13 15 -27 121
-84 25 -14 67 -46 93 -73 52 -51 83 -62 166 -56 45 3 47 5 65 48 23 57 43 57
52 -1 5 -34 2 -51 -10 -70 -13 -19 -13 -25 -3 -25 16 0 61 47 71 73 5 15 12
17 38 12 32 -7 33 -7 16 12 -14 15 -15 22 -6 31 19 19 37 14 42 -10 13 -64 13
-95 0 -113 -17 -23 -18 -68 -3 -93 8 -12 8 -37 2 -80 -8 -47 -7 -67 3 -80 7
-9 14 -15 16 -12 2 3 13 19 24 35 12 17 25 45 29 63 3 18 11 32 17 32 6 0 7
-8 3 -17 -10 -25 -17 -165 -8 -161 5 2 31 15 60 30 29 15 67 29 85 30 32 3 33
2 31 -34 -1 -21 1 -38 5 -38 4 0 34 11 67 25 71 29 91 31 99 9 9 -23 -56 -85
-136 -128 -76 -42 -93 -59 -84 -83 5 -11 10 -13 14 -7 11 17 51 36 62 29 17
-11 42 -66 36 -81 -3 -8 10 -35 29 -60 27 -35 35 -55 35 -88 0 -23 6 -50 13
-61 25 -33 37 -8 34 69 -2 63 0 73 13 66 21 -11 54 -49 76 -87 23 -41 29 -41
53 -3 32 53 92 113 103 102 13 -13 2 -32 -18 -32 -8 0 -14 -7 -14 -15 0 -8 7
-15 15 -15 28 0 15 -28 -30 -68 -25 -22 -45 -41 -45 -44 0 -2 43 -3 95 -1 l95
3 0 -30 c0 -29 -13 -40 -25 -20 -3 6 -17 7 -30 4 -12 -3 -26 -1 -29 5 -8 12
-66 15 -66 4 0 -5 10 -19 21 -33 56 -69 67 -97 74 -176 5 -60 3 -83 -7 -97
-13 -18 -16 -18 -50 -1 -20 9 -39 26 -42 38 -4 15 -8 18 -17 9 -11 -11 9 -78
51 -168 10 -22 22 -52 25 -66 6 -23 3 -27 -21 -32 -39 -7 -50 -1 -78 46 -45
75 -40 72 -75 46 -23 -17 -49 -24 -96 -27 -36 -2 -65 -7 -65 -10 0 -3 7 -13
16 -23 16 -18 11 -18 -115 -14 -104 3 -131 1 -131 -9 0 -8 7 -19 15 -26 8 -7
15 -21 15 -32 0 -26 19 -60 29 -53 5 2 14 -2 21 -10 16 -19 39 -19 46 0 4 8
13 15 22 15 8 0 24 7 34 17 28 25 33 9 14 -48 -12 -39 -13 -55 -5 -65 17 -21
42 -17 59 9 8 13 26 40 38 60 17 26 31 37 48 37 13 0 24 5 24 10 0 13 37 50
50 50 18 0 11 -16 -20 -43 -33 -30 -40 -71 -13 -85 15 -9 14 -12 -5 -37 -26
-32 -28 -55 -7 -55 8 0 29 -12 45 -27 17 -16 37 -34 45 -41 16 -13 20 -59 7
-78 -15 -24 -50 -19 -81 10 -36 35 -39 29 -10 -28 12 -22 25 -49 30 -58 12
-24 12 -48 0 -29 -8 12 -12 12 -26 -3 -13 -13 -20 -14 -31 -5 -14 12 -17 7
-15 -21 1 -9 -12 -23 -29 -33 -16 -10 -30 -26 -30 -36 0 -10 -8 -22 -17 -25
-37 -13 -73 -38 -73 -49 0 -8 3 -8 12 1 7 7 24 12 38 12 14 0 30 4 36 9 5 5
45 19 89 31 104 29 111 33 120 72 4 18 9 35 10 38 24 64 30 68 64 51 13 -7 18
-24 20 -63 1 -29 3 -64 4 -77 2 -20 -4 -27 -31 -34 -24 -8 -31 -14 -27 -27 6
-19 -9 -34 -45 -45 -14 -4 -38 -13 -55 -20 -16 -7 -73 -27 -125 -45 -52 -18
-106 -40 -120 -49 -14 -9 -46 -27 -72 -40 -26 -13 -54 -34 -63 -48 -14 -20
-19 -22 -31 -12 -13 10 -20 10 -36 0 -11 -7 -23 -10 -26 -6 -10 10 13 40 34
43 28 6 40 20 27 33 -17 17 -103 -27 -103 -51 0 -50 38 -88 57 -57 10 17 51
28 59 16 9 -16 39 -10 52 11 14 23 32 26 32 6 0 -22 -87 -97 -105 -90 -9 4
-15 1 -15 -9 0 -8 -7 -20 -15 -27 -8 -7 -15 -25 -15 -41 0 -15 -5 -31 -11 -35
-6 -3 -9 -15 -6 -25 6 -21 -14 -42 -34 -34 -17 7 -49 108 -49 152 0 30 -15 52
-27 39 -3 -3 -7 -33 -8 -67 -1 -39 -7 -64 -16 -70 -11 -7 -9 -10 8 -15 24 -7
37 -30 22 -39 -5 -4 -17 -4 -27 -1 -13 5 -22 -1 -30 -19 -11 -23 -10 -25 13
-25 33 0 75 -17 75 -31 0 -7 -12 -9 -35 -5 -30 6 -35 4 -35 -12 0 -21 31 -62
47 -62 9 0 30 22 93 98 6 6 21 12 33 12 35 0 66 26 60 51 -4 12 3 32 15 49 12
16 26 47 31 69 10 48 43 107 57 103 5 -1 9 -15 9 -30 0 -25 4 -27 42 -30 37
-3 41 -1 36 16 -5 22 50 92 63 79 4 -4 9 -28 10 -54 2 -25 8 -51 14 -57 20
-20 9 -23 -80 -22 -102 1 -102 2 -76 -84 10 -33 18 -45 32 -45 15 0 20 9 22
40 4 50 18 67 51 63 24 -3 26 -6 27 -60 1 -54 0 -58 -21 -58 -16 0 -28 -10
-39 -35 -9 -19 -23 -35 -31 -35 -8 0 -25 -5 -37 -11 -20 -8 -23 -16 -20 -44 5
-40 -24 -139 -50 -175 -15 -21 -17 -33 -9 -72 4 -26 6 -58 4 -72 -3 -15 3 -36
18 -55 23 -32 23 -32 32 -9 4 13 7 74 6 135 -3 117 5 149 31 118 10 -12 10
-19 3 -23 -8 -5 -9 -19 -4 -42 l8 -35 6 45 c4 25 9 79 11 120 4 66 7 77 31 98
27 23 56 26 56 7 0 -5 -3 -43 -7 -83 -4 -47 -2 -95 6 -133 15 -70 5 -100 -39
-119 -29 -11 -58 -59 -63 -100 -2 -20 -9 -25 -30 -25 -14 0 -29 -3 -33 -7 -4
-4 -16 -3 -26 2 -10 6 -20 7 -22 3 -10 -17 -18 -68 -22 -132 -2 -37 -11 -98
-20 -137 -9 -38 -13 -83 -10 -101 5 -27 1 -35 -28 -57 -43 -33 -47 -33 -47 4
0 18 -6 33 -15 36 -8 4 -20 26 -27 51 -6 25 -17 47 -24 50 -17 6 -19 83 -3 83
8 0 9 13 5 38 -6 38 -5 39 24 39 34 0 34 -2 19 -46 -8 -23 -8 -35 1 -46 6 -7
15 -35 20 -62 7 -43 8 -39 9 42 1 85 10 115 33 115 5 0 6 -30 4 -67 -5 -62 -5
-64 4 -23 6 25 12 120 14 211 1 91 6 170 9 176 12 19 11 68 -2 91 -16 30 -25
22 -23 -23 1 -27 -5 -38 -27 -55 -16 -11 -35 -20 -42 -20 -7 0 -20 -6 -28 -14
-9 -8 -39 -20 -66 -26 -28 -7 -64 -16 -81 -21 -77 -23 -128 -4 -105 39 17 32
113 113 127 108 22 -9 16 -18 -41 -66 -30 -25 -55 -53 -55 -63 0 -16 3 -16 40
3 23 12 59 39 80 60 41 41 64 50 73 28 4 -9 6 -8 6 2 1 17 35 50 51 50 15 0 0
27 -18 34 -9 3 -35 16 -57 30 -60 38 -97 58 -100 54 -5 -6 -16 -98 -11 -98 2
0 16 4 30 10 28 10 35 0 13 -19 -21 -17 -74 -25 -81 -12 -11 17 -43 13 -48 -6
-3 -10 -18 -25 -34 -33 -16 -7 -43 -27 -61 -44 -31 -28 -83 -44 -83 -25 0 5 5
9 11 9 6 0 8 11 4 29 -5 22 0 35 17 55 20 23 32 27 81 28 39 1 57 6 57 14 0
13 -58 34 -93 34 -15 0 -17 5 -12 28 5 26 4 28 -29 29 -29 1 -35 -3 -41 -24
-3 -14 -1 -31 4 -36 6 -6 11 -18 11 -27 0 -25 -24 -70 -37 -70 -7 0 -13 -7
-13 -15 0 -9 -8 -19 -17 -22 -10 -4 -22 -13 -27 -21 -7 -11 -10 -12 -16 -2 -6
10 -14 8 -35 -9 -30 -23 -86 -28 -129 -11 -22 8 -28 5 -48 -21 -13 -16 -35
-45 -50 -63 -19 -23 -24 -36 -16 -44 12 -12 3 -32 -15 -32 -7 0 -17 -10 -22
-22 -8 -18 -18 -23 -45 -21 -19 1 -36 7 -38 13 -3 9 -6 9 -12 0 -7 -11 -82
-20 -172 -20 -15 0 -29 -4 -33 -10 -3 -5 0 -10 8 -10 8 0 17 -7 21 -15 3 -9 0
-15 -9 -15 -8 0 -15 -7 -15 -16 0 -13 8 -15 53 -9 28 4 54 8 57 9 3 0 7 -3 9
-9 5 -11 -13 -21 -94 -55 -27 -11 -67 -30 -87 -40 -20 -11 -43 -20 -50 -20 -7
0 -30 -9 -51 -20 -20 -11 -49 -20 -63 -20 -23 0 -25 3 -19 29 13 59 -48 45
-134 -31 -24 -21 -46 -36 -49 -33 -3 3 0 11 6 17 18 18 14 30 -8 23 -32 -10
-43 4 -26 31 23 34 20 42 -21 54 -53 15 -79 36 -65 53 16 18 25 89 14 106 -8
11 -15 10 -38 -5 -15 -11 -36 -18 -45 -16 -16 3 -17 -5 -16 -65 2 -64 1 -68
-20 -71 -17 -3 -26 3 -32 21 -12 31 -29 43 -43 29 -7 -7 2 -22 31 -49 42 -39
68 -102 36 -89 -8 3 -22 9 -30 12 -23 9 -18 -8 10 -35 31 -29 32 -43 3 -39
-23 3 -56 51 -57 82 -1 22 -49 96 -62 96 -4 0 -22 -12 -39 -26 -17 -15 -34
-23 -38 -19 -4 4 3 14 16 22 12 9 22 19 22 24 0 4 11 19 23 33 18 19 27 22 35
14 8 -8 15 -8 26 1 7 6 19 10 26 9 7 -2 13 13 16 39 3 35 1 41 -12 36 -12 -4
-14 0 -9 20 6 22 2 28 -29 42 -37 18 -44 29 -26 40 18 11 11 35 -20 65 -34 33
-36 28 33 103 43 47 44 46 17 -11 -26 -53 -25 -73 4 -94 20 -14 28 -15 50 -5
29 14 32 24 12 46 -23 26 -30 61 -12 61 8 0 18 -5 21 -11 5 -7 14 -4 26 7 23
21 24 37 4 54 -8 7 -15 21 -15 31 0 26 14 30 -144 -42 -71 -32 -120 -42 -221
-43 -89 -1 -90 -1 -103 27 -7 15 -17 25 -23 22 -15 -10 -10 -31 11 -50 11 -10
20 -29 20 -42 0 -20 4 -23 20 -18 14 4 28 -2 47 -21 17 -17 28 -23 31 -15 3 8
12 5 27 -9 32 -30 48 -17 40 29 l-6 36 48 -51 c62 -67 96 -132 87 -168 -3 -14
-9 -28 -13 -30 -9 -6 -155 53 -202 81 -20 11 -51 42 -70 67 l-33 47 -17 -23
c-18 -24 -30 -68 -22 -80 2 -5 13 -8 24 -8 29 0 23 -14 -11 -27 -31 -12 -44
-5 -34 20 3 8 -2 31 -10 52 -20 48 -21 94 -1 101 27 11 16 35 -45 95 -33 32
-55 61 -50 64 12 8 62 -27 90 -62 20 -26 24 -24 21 10 -2 11 5 17 19 17 19 0
20 4 14 37 -4 20 -16 46 -27 58 -34 36 -47 62 -44 86 3 15 11 24 22 24 10 0
20 6 23 13 5 17 26 15 54 -7 18 -15 32 -18 58 -12 46 9 49 33 8 53 -88 42 -82
41 -163 23 -42 -9 -83 -14 -90 -11 -8 3 -17 1 -20 -4 -13 -21 -90 -21 -155 -1
-60 19 -66 19 -82 4 -18 -16 -17 -17 12 -29 20 -9 28 -18 24 -28 -3 -9 -12
-16 -20 -16 -30 0 -8 -44 34 -67 29 -17 34 -16 23 5 -22 41 21 111 48 78 9
-11 7 -17 -9 -29 -22 -15 -21 -15 14 -32 20 -10 38 -21 41 -24 5 -10 -19 -79
-33 -93 -14 -14 -42 -3 -42 17 0 12 6 15 23 10 22 -7 22 -7 -3 18 -26 25 -43
27 -34 3 6 -15 -19 -38 -38 -35 -7 1 -21 -1 -30 -5 -11 -5 -28 1 -51 18 -19
14 -38 26 -43 26 -5 0 -24 -14 -41 -31 -38 -34 -43 -22 -12 27 16 26 18 35 7
38 -7 3 -30 10 -50 16 -42 13 -52 30 -13 22 35 -6 75 22 75 53 0 20 -5 25 -25
25 -14 0 -41 7 -60 14 -41 17 -47 46 -10 46 14 0 29 8 35 20 6 11 17 20 25 20
7 0 16 8 19 18 9 29 0 106 -12 110 -8 2 -10 -5 -6 -25 3 -16 -1 -40 -9 -57
l-15 -29 -4 29 c-2 16 0 45 4 64 6 29 4 38 -15 52 -39 31 -58 52 -73 81 l-15
27 37 0 c26 0 47 -9 77 -34 80 -64 114 -72 123 -28 4 19 17 32 45 45 38 18 57
46 22 32 -10 -4 -35 -9 -55 -12 -21 -3 -38 -10 -38 -14 0 -5 -11 -9 -25 -9
-18 0 -30 10 -47 40 -17 29 -28 38 -40 34 -10 -3 -23 -2 -30 3 -25 15 -38 11
-57 -20 -30 -49 -94 -106 -116 -105 -11 0 -27 -1 -35 -3 -12 -3 -15 9 -13 71
2 69 -18 178 -37 205 -4 6 -8 21 -8 35 0 27 -20 79 -49 122 -9 15 -14 30 -11
33 12 13 49 -17 82 -67 39 -57 33 -59 52 30 3 15 16 44 30 65 26 40 24 62 -7
54 -20 -5 -39 18 -39 48 0 10 19 35 42 56 41 37 42 39 17 39 -14 0 -29 -4 -34
-9 -6 -6 -27 6 -55 31 -40 35 -42 39 -19 34 26 -6 26 -5 22 39 -5 37 -1 49 21
75 29 35 33 58 11 66 -36 14 -9 44 40 44 30 0 39 14 19 31 -51 42 -36 79 32
79 36 0 44 3 44 18 0 13 -12 22 -40 31 -36 11 -39 14 -30 32 9 16 17 19 46 13
29 -5 33 -4 28 10 -4 11 0 16 15 17 42 3 46 4 56 24 5 11 20 34 32 51 15 20
23 48 24 82 4 76 -10 83 -62 33 -24 -22 -48 -41 -55 -41 -6 0 -15 -11 -18 -25
-9 -35 -21 -31 -41 11 -15 32 -16 45 -6 98 21 109 21 111 -19 114 -20 2 -49
14 -65 27 l-30 24 43 -6 c28 -4 42 -2 42 6 0 6 -7 14 -15 17 -32 13 1 26 59
23 67 -3 118 10 183 50 30 18 42 31 40 43 -6 22 24 49 76 69 34 13 47 26 68
67 14 28 31 57 37 65 7 8 9 22 6 31 -4 9 0 24 9 34 30 34 58 94 52 113 -5 15
-1 19 15 19 13 0 25 10 32 28 7 15 13 28 14 30 0 1 9 0 18 -4 10 -4 16 -18 16
-40 0 -36 8 -42 29 -21 11 10 12 6 7 -19 -8 -38 7 -47 62 -37 37 7 86 8 132 1
37 -5 38 27 2 46 -16 8 -32 24 -35 36 -6 22 -27 28 -27 6 0 -15 -30 -26 -73
-26 -23 0 -30 7 -43 41 -13 31 -21 39 -35 36 -18 -5 -18 -4 1 21 25 31 12 54
-19 35 -16 -10 -18 -9 -14 5 5 20 -65 82 -91 82 -8 0 -20 9 -26 19 -14 28 20
37 59 17 29 -16 101 -22 101 -10 0 4 -16 24 -35 45 -46 52 -46 69 3 69 34 1
39 5 57 42 11 23 25 44 32 46 23 7 47 -47 45 -106 -2 -80 33 -116 72 -73 15
16 16 30 10 90 -6 60 -4 72 10 77 19 7 64 -20 73 -44 8 -21 74 -92 86 -92 5 0
7 7 3 15 -4 11 1 15 19 15 14 0 25 4 25 8 0 12 -53 83 -79 106 -23 21 -29 70
-9 82 16 10 68 -51 68 -80 0 -23 63 -115 80 -117 30 -5 35 -1 40 25 3 16 13
34 22 39 14 9 22 5 45 -22 16 -17 37 -33 47 -35 10 -1 21 -8 25 -15 12 -18 87
-22 125 -6 19 8 49 32 67 53 19 22 49 47 67 56 17 9 32 18 32 21 0 2 -11 15
-25 29 -28 28 -32 46 -10 46 8 0 15 4 15 9 0 6 -15 4 -34 -4 -29 -13 -36 -13
-46 0 -6 8 -9 19 -5 26 4 6 3 14 -2 18 -6 3 -13 16 -17 27 -6 19 -2 22 26 26
24 4 37 -1 55 -18 13 -13 23 -30 23 -37 0 -8 11 -22 23 -30 13 -9 30 -29 37
-46 10 -26 15 -29 31 -20 27 14 23 36 -13 75 -23 24 -32 42 -30 59 2 14 -1 25
-6 25 -6 0 -12 7 -16 15 -8 22 20 19 57 -7z m2069 -1900 c40 -53 61 -107 60
-151 -1 -22 -4 -42 -6 -45 -3 -2 -24 7 -48 20 -33 18 -43 29 -43 49 0 14 -5
32 -10 40 -12 16 -13 88 -2 107 12 19 23 15 49 -20z m72 -650 c9 -78 7 -126
-5 -133 -16 -11 -18 -3 -22 63 -2 34 -6 64 -9 68 -8 8 -22 -142 -14 -154 4 -6
2 -13 -3 -16 -4 -3 -11 -19 -14 -35 -3 -15 -14 -32 -24 -35 -30 -12 -43 20
-40 103 2 68 5 79 31 108 16 18 37 35 47 38 10 3 21 15 24 26 11 34 22 21 29
-33z m-3720 -314 c10 -9 16 -33 16 -62 0 -26 3 -57 6 -69 5 -17 2 -23 -10 -23
-25 0 -30 -25 -10 -49 22 -25 31 -106 11 -97 -6 3 -20 9 -29 12 -10 4 -18 10
-18 15 0 5 -9 9 -20 9 -17 0 -20 5 -17 33 2 17 9 44 15 60 8 19 8 35 1 54 -9
23 -4 105 8 126 7 12 31 8 47 -9z m430 -500 c9 -4 16 -18 16 -34 0 -15 11 -44
26 -65 20 -30 25 -49 24 -94 -1 -152 16 -222 53 -208 20 7 28 57 11 64 -10 3
-10 10 -2 28 7 17 7 33 -1 56 -13 39 -15 116 -2 124 16 9 21 -11 27 -112 4
-54 13 -111 20 -127 8 -16 14 -37 14 -48 0 -10 5 -18 10 -18 6 0 10 -11 10
-24 0 -15 7 -27 18 -30 15 -5 23 -29 39 -109 12 -56 19 -104 17 -106 -7 -7
-139 40 -189 68 -40 22 -50 33 -48 52 1 13 3 43 5 66 2 26 8 43 16 43 6 0 12
10 12 23 0 16 -3 18 -9 8 -7 -10 -13 -11 -30 -2 -11 6 -31 9 -45 5 l-24 -6 -7
118 c-4 65 -5 154 -1 199 4 55 2 85 -5 92 -26 26 6 52 45 37z m-162 -171 c11
-23 20 -28 48 -28 31 0 35 -3 38 -28 3 -25 1 -28 -18 -22 -15 5 -31 -1 -55
-19 -18 -14 -41 -26 -49 -26 -19 0 -56 69 -56 104 0 49 71 63 92 19z m2388
-35 c0 -88 20 -108 111 -108 77 0 86 7 95 73 6 40 10 46 35 49 l29 5 0 -71 c0
-39 -3 -94 -6 -123 l-7 -51 -101 1 c-98 2 -101 1 -104 -20 -2 -13 -10 -23 -17
-23 -11 0 -15 21 -17 88 l-3 87 -62 3 -63 3 0 74 0 75 55 0 55 0 0 -62z m-182
-28 c0 -34 -6 -66 -12 -73 -6 -7 -25 -38 -41 -69 -17 -32 -36 -58 -42 -58 -16
0 -17 22 -1 38 6 6 13 35 14 63 1 29 8 56 16 60 22 14 1 21 -24 8 -12 -7 -39
-14 -58 -16 l-34 -2 29 19 c17 11 45 23 63 26 20 4 40 18 53 35 11 16 24 29
29 29 4 0 8 -27 8 -60z m382 -290 c0 -10 5 -30 11 -42 8 -19 6 -34 -10 -72
-12 -26 -21 -55 -21 -64 0 -33 -15 -45 -38 -31 -18 11 -24 10 -41 -5 -12 -11
-21 -30 -21 -43 0 -26 0 -26 -34 -13 -34 12 -34 43 0 59 24 10 26 16 21 54 -3
23 -2 65 1 92 l7 50 14 -32 c20 -49 44 -43 69 17 21 51 42 66 42 30z m-1829
-220 c-2 -131 -4 -146 -23 -164 -16 -15 -26 -17 -47 -10 -21 8 -26 15 -24 39
2 17 5 54 7 84 3 29 12 64 21 77 17 27 20 60 5 69 -5 3 -10 17 -10 31 0 23 3
25 37 22 l37 -3 -3 -145z m134 109 c-4 -6 -1 -10 6 -8 50 6 66 -1 79 -40 9
-29 10 -50 1 -90 -6 -29 -11 -70 -11 -91 0 -22 -4 -40 -10 -40 -5 0 -10 -11
-10 -25 0 -20 -5 -25 -23 -25 -45 0 -54 25 -60 163 -6 124 0 167 26 167 4 0 5
-5 2 -11z m1205 -44 c0 -14 -6 -25 -13 -25 -22 0 -33 -52 -27 -128 3 -40 1
-80 -3 -88 -6 -11 -2 -23 13 -39 l22 -23 -22 -12 c-32 -17 -140 -26 -140 -11
0 6 -13 11 -29 11 l-30 0 1 84 c1 93 4 96 61 49 36 -29 43 -29 51 3 10 37 -10
57 -48 50 -31 -6 -31 -5 -31 37 0 37 3 42 25 45 14 2 29 8 35 13 5 5 31 9 57
9 40 0 48 3 48 18 0 10 3 22 7 25 13 14 23 6 23 -18z m-875 -54 l65 -1 0 -33
c0 -21 8 -39 21 -50 19 -16 20 -26 16 -110 -2 -51 -8 -100 -12 -109 -8 -19
-35 -25 -35 -8 0 6 -19 10 -42 11 -68 1 -138 15 -154 31 -21 21 -25 86 -7 114
13 21 13 27 -1 55 -15 29 -14 33 4 57 11 13 20 30 20 36 0 6 14 10 30 10 17
-1 59 -2 95 -3z"/>
<path d="M3877 6202 c-10 -10 -17 -26 -17 -35 0 -10 -8 -17 -20 -17 -21 0 -27
-15 -10 -25 21 -13 8 -32 -49 -73 -60 -44 -76 -69 -60 -93 7 -11 10 -9 15 9 4
15 14 22 30 22 14 0 35 13 51 32 58 66 62 69 83 58 10 -5 27 -10 38 -10 21 0
32 -18 32 -51 0 -17 17 -25 44 -20 4 1 14 -4 22 -10 11 -9 14 -7 14 9 0 11
-14 31 -31 44 -17 13 -48 41 -70 63 -33 32 -39 45 -35 67 7 36 -15 54 -37 30z"/>
<path d="M4255 6048 c-3 -12 -4 -50 -3 -83 l3 -60 57 -3 c32 -2 66 2 77 7 22
12 36 62 15 54 -16 -6 -58 32 -50 45 8 13 -34 49 -66 57 -23 6 -28 3 -33 -17z"/>
<path d="M3274 5383 c-7 -15 -14 -35 -17 -44 -3 -9 -19 -19 -36 -22 -23 -5
-29 -11 -24 -22 8 -23 -17 -65 -39 -65 -10 0 -18 -5 -18 -11 0 -5 -4 -8 -9 -5
-4 3 -6 17 -4 31 4 20 0 27 -21 35 -34 13 -33 25 4 42 30 13 79 78 59 78 -6 0
-29 -16 -52 -35 -90 -75 -157 -125 -167 -125 -15 0 -12 -16 7 -31 10 -9 43
-14 94 -14 49 0 83 -5 91 -13 16 -16 58 -15 100 2 62 26 68 46 52 164 -9 59
-10 61 -20 35z"/>
<path d="M5299 5061 c-13 -10 -29 -16 -36 -14 -22 8 -23 -16 -2 -57 12 -22 19
-44 15 -47 -7 -8 91 -42 121 -43 27 0 33 9 23 36 -6 16 -15 20 -32 17 -15 -3
-30 2 -38 12 -12 15 -10 16 26 13 35 -3 39 -1 42 22 2 14 11 31 20 38 23 18 6
28 -59 36 -46 5 -61 2 -80 -13z"/>
<path d="M4873 4653 c-47 -51 -53 -68 -24 -58 18 5 38 -15 66 -70 14 -26 53
-32 62 -9 3 9 0 38 -7 63 -7 25 -15 62 -19 81 -3 19 -13 36 -21 37 -8 2 -34
-18 -57 -44z"/>
<path d="M3322 4653 c-20 -35 -15 -60 13 -67 29 -8 24 -26 -7 -26 -28 0 -50
-30 -35 -49 9 -10 8 -16 -4 -25 -8 -6 -18 -19 -22 -28 -8 -23 -23 -23 -31 -1
-6 15 -8 15 -16 3 -18 -29 -8 -106 12 -94 5 3 4 12 -3 21 -10 12 -10 16 2 23
10 7 15 5 17 -7 5 -22 -18 -62 -40 -69 -11 -3 -18 -15 -18 -29 0 -30 -46 -85
-71 -85 -31 0 -52 43 -44 91 7 41 7 42 -16 35 -13 -5 -36 -10 -51 -13 -32 -6
-35 -15 -13 -33 8 -7 15 -17 15 -22 0 -7 -5 -6 -13 0 -7 6 -30 12 -50 14 -30
2 -43 -4 -65 -26 l-27 -28 60 5 c43 3 67 1 80 -9 10 -8 26 -14 36 -14 9 0 22
-7 29 -15 7 -8 23 -15 36 -15 12 0 26 -5 30 -11 4 -7 11 -2 18 13 7 14 20 23
36 23 19 0 30 -11 53 -55 15 -30 37 -64 48 -76 10 -11 19 -33 19 -50 0 -35 14
-59 29 -50 6 4 9 2 6 -6 -2 -7 2 -22 10 -32 15 -20 15 -20 30 0 9 11 13 31 10
49 -2 17 -8 54 -11 83 -4 30 -12 52 -19 52 -6 0 -20 9 -31 21 -12 14 -25 18
-41 14 -18 -4 -23 -1 -23 15 0 10 -9 35 -20 55 -11 19 -15 35 -9 35 12 0 79
71 79 85 0 6 14 18 30 27 33 19 38 35 14 45 -18 7 -37 50 -28 64 3 6 14 3 25
-7 18 -16 20 -16 37 -1 39 35 46 118 9 104 -19 -7 -54 30 -59 63 l-3 25 -13
-22z"/>
<path d="M4082 4572 c-7 -12 -10 -27 -7 -32 3 -5 1 -11 -5 -15 -19 -12 -11
-45 10 -45 23 0 40 -34 40 -81 0 -16 4 -29 9 -29 5 0 18 -19 30 -42 l20 -41
12 29 c8 21 8 43 1 79 -6 31 -6 54 0 62 12 14 -4 25 -26 17 -11 -4 -19 2 -26
20 -5 14 -13 26 -18 26 -5 0 -13 17 -18 38 -9 36 -10 36 -22 14z"/>
<path d="M4574 4496 c-3 -9 -12 -16 -20 -16 -8 0 -14 -9 -14 -20 0 -25 -1 -25
-45 0 -36 20 -36 20 -30 1 5 -16 -1 -23 -27 -35 -18 -7 -41 -20 -52 -28 -17
-13 -15 -16 27 -32 40 -15 49 -15 80 -3 23 10 37 24 41 41 5 19 13 26 31 26
28 0 25 -26 -5 -35 -10 -3 -20 -15 -23 -26 -3 -11 -15 -23 -27 -26 -23 -6 -22
-26 2 -31 9 -2 19 5 22 15 3 10 22 35 41 55 20 20 31 39 26 42 -5 4 -7 21 -4
40 5 35 -12 60 -23 32z"/>
<path d="M3890 4317 c0 -22 -63 -72 -90 -72 -21 0 -27 -7 -38 -42 -10 -30 -19
-43 -32 -43 -22 0 -34 -15 -25 -31 5 -7 15 -5 31 5 29 20 34 20 34 2 0 -8 8
-22 17 -32 9 -9 17 -28 18 -43 1 -65 53 -1 54 68 1 24 1 24 -20 5 l-21 -19 16
39 c9 21 16 46 16 55 0 10 13 35 30 57 30 40 38 64 20 64 -5 0 -10 -6 -10 -13z"/>
<path d="M2459 4255 c-24 -25 -48 -45 -52 -45 -5 0 -29 -16 -54 -35 -25 -19
-56 -35 -69 -35 -13 0 -24 -4 -24 -9 0 -6 -16 -11 -36 -13 -46 -4 -68 -32 -41
-53 16 -11 16 -15 4 -22 -8 -4 -27 -23 -43 -42 l-28 -33 32 7 c21 4 38 2 47
-5 22 -19 42 -5 49 33 4 19 12 37 19 40 30 11 167 -80 167 -112 0 -30 106
-159 119 -146 2 3 -15 26 -38 53 -51 62 -56 107 -14 115 18 3 37 -2 56 -15 15
-11 30 -18 33 -15 9 9 -17 90 -37 115 -10 14 -16 28 -13 33 8 13 34 11 34 -2
0 -17 57 -3 87 21 28 22 53 26 53 9 0 -19 -26 -37 -59 -42 -43 -7 -46 -11 -17
-26 26 -14 70 -96 81 -149 4 -18 11 -29 17 -26 5 4 7 21 3 40 -5 28 -3 34 11
34 11 0 14 5 10 16 -9 24 3 37 21 22 13 -10 19 -8 39 17 28 35 30 53 9 61 -8
4 -15 12 -15 20 0 16 16 19 25 4 12 -19 26 -11 15 9 -5 11 -10 22 -10 25 0 11
46 6 58 -6 6 -6 15 -8 19 -4 4 4 -7 18 -24 32 -18 14 -30 31 -27 38 3 7 -1 18
-9 25 -11 9 -25 7 -63 -10 -57 -24 -131 -19 -141 9 -14 42 -104 112 -143 112
-4 0 -27 -20 -51 -45z"/>
<path d="M2025 4270 c-3 -5 -27 -10 -51 -10 -35 0 -50 -5 -65 -22 -23 -29 -24
-50 -1 -46 23 4 24 -5 7 -46 -31 -74 -38 -121 -29 -186 5 -35 14 -65 21 -67
13 -5 20 26 27 132 12 170 27 207 64 160 18 -23 22 -24 53 -13 25 9 34 8 37 0
2 -8 9 -9 22 -2 15 8 17 6 13 -10 -6 -23 9 -26 27 -6 9 12 1 25 -46 70 -59 58
-68 63 -79 46z"/>
<path d="M4924 4095 c7 -20 18 -41 24 -47 16 -16 15 -28 -3 -28 -9 0 -18 -12
-22 -30 -3 -17 -10 -33 -14 -36 -5 -3 -16 -21 -24 -40 -8 -19 -21 -34 -29 -34
-9 0 -16 -7 -16 -16 0 -14 -40 -106 -86 -198 -11 -22 -12 -32 -3 -42 9 -11 8
-18 -3 -32 -10 -11 -12 -27 -7 -47 3 -16 7 -23 8 -15 1 13 2 13 11 0 5 -8 11
-12 14 -9 3 3 17 50 31 104 14 54 29 103 35 109 5 5 10 23 10 38 0 17 5 28 14
28 8 0 16 6 19 14 3 8 19 17 36 21 43 9 81 42 81 70 0 13 5 27 10 30 6 3 10
20 10 36 0 23 4 30 16 27 19 -3 30 -21 39 -60 5 -26 35 -41 35 -18 0 6 12 10
26 10 14 0 32 7 41 15 13 13 13 21 3 45 -12 29 -20 34 -47 31 -6 -1 -17 7 -25
17 -23 33 -57 46 -83 32 -30 -16 -72 -6 -80 19 -3 11 -12 24 -19 30 -12 10
-12 6 -2 -24z"/>
<path d="M4580 4111 c-15 -4 -31 -20 -40 -38 -12 -27 -21 -33 -47 -33 -17 0
-35 -5 -39 -11 -3 -6 -19 -9 -35 -5 -23 4 -34 0 -55 -22 -27 -29 -44 -63 -44
-90 0 -13 4 -12 19 7 l19 24 6 -21 c10 -30 24 -28 28 5 3 28 28 45 28 19 0 -9
5 -16 11 -16 6 0 9 9 6 20 -4 17 -2 20 14 15 13 -4 19 -2 19 9 0 9 -4 16 -10
16 -5 0 -10 7 -10 15 0 21 13 19 72 -11 49 -25 52 -25 65 -8 7 10 13 25 13 34
0 9 6 22 12 28 10 10 10 15 -1 21 -9 6 -10 11 -2 15 12 8 15 37 4 35 -5 -1
-19 -4 -33 -8z"/>
<path d="M3620 4070 c-6 -11 -8 -31 -4 -45 4 -16 1 -32 -8 -43 -53 -65 -79
-169 -30 -120 8 8 14 5 23 -15 14 -31 21 -33 39 -12 10 13 10 19 -4 33 -9 10
-16 24 -16 30 0 15 46 16 55 2 3 -6 20 -17 36 -26 24 -12 34 -13 45 -3 16 13
19 55 4 64 -6 4 -26 40 -46 81 -29 62 -39 74 -59 74 -14 0 -29 -8 -35 -20z"/>
<path d="M2890 3973 c0 -5 7 -17 15 -27 8 -11 15 -39 15 -63 0 -35 3 -43 18
-43 18 0 52 -29 52 -44 0 -4 -9 -6 -20 -4 -21 3 -22 -4 -9 -40 5 -13 9 -32 9
-42 0 -32 17 -32 51 0 22 20 40 28 52 24 10 -3 48 5 83 17 l66 23 -7 44 c-11
75 -23 92 -64 91 -36 -1 -161 24 -207 41 -13 5 -24 14 -24 20 0 5 -7 10 -15
10 -8 0 -15 -3 -15 -7z"/>
<path d="M3467 3847 c-8 -18 -25 -54 -37 -82 -29 -66 -69 -125 -86 -125 -8 0
-14 5 -14 10 0 6 -4 10 -9 10 -11 0 -36 -69 -28 -76 3 -3 24 4 48 15 24 11 58
22 75 26 26 5 30 10 27 29 -4 17 3 29 22 45 38 29 46 27 38 -11 -9 -47 9 -26
25 30 25 87 27 106 9 99 -11 -4 -15 -1 -12 13 2 11 -6 25 -19 34 -22 14 -24
13 -39 -17z"/>
<path d="M4587 3837 c-3 -18 -14 -81 -25 -142 -11 -62 -19 -148 -18 -198 0
-48 -1 -87 -4 -87 -3 0 -11 15 -18 33 -26 65 -38 82 -56 79 -10 -2 -24 2 -32
9 -11 9 -18 9 -26 1 -20 -20 -31 -13 -25 16 18 86 26 114 41 136 23 36 22 127
-3 147 -18 16 -18 13 -25 -78 -7 -101 -37 -188 -66 -188 -8 0 -21 -12 -28 -27
-15 -32 -61 -39 -83 -12 -9 11 -22 14 -41 10 -21 -4 -28 -2 -28 9 0 8 9 15 20
15 13 0 20 7 20 20 0 18 -5 19 -55 16 -48 -4 -55 -2 -61 16 -4 15 -9 17 -17 9
-9 -9 -8 -17 1 -32 17 -26 7 -42 -18 -29 -17 9 -22 5 -40 -29 -11 -22 -24 -42
-30 -46 -19 -11 -9 -30 26 -53 24 -15 43 -20 60 -16 18 5 31 1 45 -15 24 -26
31 -26 54 -1 22 24 33 25 56 4 16 -15 19 -13 41 25 28 49 38 52 38 10 0 -23 4
-30 15 -25 11 4 16 -6 21 -44 6 -45 9 -50 31 -50 18 0 24 -4 19 -15 -4 -10 1
-15 14 -15 11 0 20 5 20 10 0 6 14 10 30 10 38 0 38 14 1 45 -35 30 -54 73
-49 111 l4 29 13 -30 c15 -35 30 -46 53 -39 21 6 52 -48 43 -75 -4 -14 1 -18
27 -18 18 0 39 4 46 10 8 7 18 5 30 -5 9 -9 23 -13 30 -11 14 6 16 39 2 48 -5
3 -10 28 -10 55 0 33 -8 62 -25 91 -31 56 -31 77 0 89 20 7 25 17 25 42 0 18
4 48 10 67 8 29 6 38 -15 63 -23 27 -26 56 -5 43 21 -13 17 14 -4 28 -23 16
-24 15 -29 -16z"/>
<path d="M3592 3768 c-6 -24 -10 -59 -9 -78 2 -30 5 -35 27 -35 18 0 26 6 28
23 4 25 27 30 36 7 3 -8 12 -15 21 -15 17 0 21 25 5 35 -18 11 -10 25 14 25
31 0 70 -21 106 -56 35 -34 41 -69 10 -61 -25 7 -34 -7 -15 -23 8 -7 15 -18
15 -25 0 -10 51 -45 66 -45 1 0 4 26 7 58 3 31 8 72 12 90 5 19 2 44 -5 63
-11 24 -17 29 -34 24 -27 -8 -31 -8 -91 0 -63 8 -153 34 -161 46 -11 19 -22 8
-32 -33z"/>
<path d="M2762 3640 c-36 -30 -41 -50 -13 -50 10 0 24 -7 31 -15 7 -8 22 -12
38 -9 15 2 33 0 41 -5 11 -7 8 -16 -14 -45 -15 -20 -34 -36 -41 -36 -19 0 -17
-14 4 -33 27 -24 32 -21 26 13 -7 35 5 39 31 10 24 -26 37 -25 34 3 -1 12 1
37 5 56 7 29 4 36 -23 62 -17 15 -31 32 -31 36 0 4 -13 15 -28 24 -27 15 -29
15 -60 -11z"/>
<path d="M3185 3648 c-102 -34 -98 -75 11 -117 31 -11 60 -19 65 -16 8 5 4 67
-7 123 -5 24 -20 26 -69 10z"/>
<path d="M3461 3426 c-19 -12 -49 -35 -68 -53 -18 -17 -41 -33 -51 -35 -9 -2
-16 -11 -16 -21 1 -9 -2 -14 -7 -11 -16 9 -48 -6 -43 -20 3 -8 -7 -19 -25 -27
-24 -11 -29 -18 -25 -35 8 -31 -16 -42 -34 -16 -20 30 -38 28 -47 -5 -4 -19
-2 -29 9 -35 9 -5 16 -15 16 -22 0 -8 12 -17 26 -20 20 -5 30 -2 41 14 14 20
16 20 34 4 32 -29 24 -44 -18 -37 l-38 6 22 -19 c13 -10 29 -28 37 -39 14 -19
15 -18 32 20 9 22 17 47 16 55 0 8 4 25 10 37 14 28 4 53 -21 53 -25 0 -37 18
-22 33 9 9 14 8 21 -3 9 -13 10 -13 10 1 0 9 20 24 47 36 l47 20 55 -20 c73
-27 225 -32 216 -8 -15 39 -50 79 -61 70 -6 -5 -36 -9 -65 -8 -83 3 -115 27
-65 50 18 9 30 7 55 -5 23 -12 31 -13 31 -4 0 22 -14 35 -50 50 -32 13 -38 13
-69 -6z"/>
<path d="M2958 3334 c-4 -5 -27 -9 -52 -9 -44 0 -47 -2 -61 -38 -15 -38 -20
-79 -9 -89 3 -4 18 -2 34 2 21 6 30 5 34 -7 4 -10 13 -12 28 -7 13 4 31 7 41
6 26 -1 67 16 67 28 0 5 -7 10 -15 10 -8 0 -15 5 -15 10 0 6 5 10 10 10 19 0
10 22 -11 27 -11 3 -26 19 -33 36 -7 17 -15 27 -18 21z"/>
<path d="M4180 3275 c0 -8 44 -75 73 -110 l25 -30 15 35 c13 30 15 32 16 12 1
-26 69 -104 83 -96 15 9 50 -7 44 -21 -2 -7 4 -15 15 -18 26 -7 38 22 16 35
-18 9 -23 38 -8 38 8 0 31 52 31 70 0 7 -29 15 -84 24 -11 1 -22 8 -24 14 -5
16 -35 15 -50 0 -7 -7 -28 -13 -47 -15 -31 -2 -36 1 -43 30 -6 25 -14 33 -35
35 -15 2 -27 1 -27 -3z"/>
<path d="M3857 3169 c-10 -6 -29 -8 -41 -5 -13 3 -32 -1 -44 -10 -13 -9 -31
-13 -42 -9 -11 3 -25 3 -30 0 -14 -9 34 -46 52 -40 16 6 48 -14 32 -21 -6 -3
-20 -11 -30 -19 -16 -13 -17 -16 -4 -25 27 -18 95 -12 115 10 24 27 31 25 49
-11 20 -40 12 -56 -32 -64 -20 -4 -49 -13 -64 -21 -15 -8 -64 -16 -109 -19
-45 -2 -86 -8 -92 -14 -14 -14 1 -31 29 -31 14 0 34 -4 44 -10 10 -5 52 -11
94 -13 98 -5 122 10 155 94 22 57 22 64 9 88 -9 14 -21 50 -29 79 -13 54 -26
62 -62 41z"/>
<path d="M3413 3144 c-3 -9 -1 -24 5 -34 6 -10 7 -21 3 -26 -14 -17 -34 -92
-27 -103 17 -27 66 -4 66 31 0 18 7 20 115 34 63 8 70 12 51 33 -15 16 -14 20
10 41 22 22 23 25 7 31 -9 3 -29 0 -43 -8 -27 -14 -136 -8 -154 8 -15 13 -26
11 -33 -7z"/>
<path d="M3365 2892 c-19 -25 -20 -30 -7 -67 7 -22 17 -44 23 -49 15 -16 10
-23 -14 -19 -19 4 -23 -1 -33 -41 -10 -43 -9 -47 13 -62 13 -8 34 -14 46 -12
21 3 22 8 22 102 0 92 -1 99 -22 109 -26 12 -30 27 -8 27 8 0 15 9 15 20 0 27
-11 24 -35 -8z"/>
<path d="M3656 2832 c-18 -18 -3 -32 34 -32 23 0 40 -5 40 -11 0 -9 -27 -10
-95 -6 l-95 5 6 -26 c9 -37 19 -54 42 -75 19 -17 21 -16 61 17 22 19 58 40 79
47 40 13 52 24 52 50 0 12 -7 15 -23 12 -13 -3 -40 2 -59 10 -20 9 -39 13 -42
9z"/>
<path d="M11692 6048 c-8 -8 -12 -57 -12 -154 0 -115 3 -144 15 -154 10 -8 68
-16 153 -21 136 -8 212 -24 212 -45 0 -6 9 -19 20 -29 24 -22 17 -35 -20 -35
-15 0 -50 -11 -78 -25 -54 -27 -142 -115 -142 -141 0 -10 -8 -26 -17 -37 -15
-16 -19 -44 -22 -178 -3 -139 -1 -160 13 -165 9 -4 16 -18 16 -34 0 -64 74
-146 179 -197 53 -27 63 -28 201 -28 136 1 148 2 178 24 18 12 32 29 32 37 0
9 10 14 28 14 15 0 33 5 40 12 9 9 12 3 12 -28 0 -22 5 -45 12 -52 16 -16 570
-17 596 -1 14 9 35 3 105 -30 48 -23 101 -41 117 -41 18 0 33 -7 39 -18 5 -10
36 -28 68 -41 32 -13 91 -39 131 -58 41 -18 77 -33 82 -33 5 0 21 -6 37 -14
15 -8 51 -24 78 -36 28 -12 58 -26 67 -31 27 -14 164 -11 176 4 6 6 14 30 18
51 4 22 17 55 30 74 19 27 24 48 24 96 0 62 -11 86 -38 86 -23 0 -189 78 -198
93 -3 4 6 7 20 7 38 0 97 37 177 113 11 9 19 28 19 41 0 18 6 25 22 28 25 3
35 32 37 108 0 26 6 51 12 57 7 7 9 37 6 79 -7 94 -16 134 -38 166 -11 14 -19
30 -19 36 0 5 -18 30 -41 56 -41 46 -109 86 -148 86 -11 0 -23 5 -26 10 -3 6
-26 10 -51 10 -25 0 -44 5 -44 11 0 8 59 9 205 4 263 -10 245 -22 245 170 0
96 -4 145 -12 153 -17 17 -2499 17 -2516 0z m2456 -146 c2 -49 -2 -89 -8 -97
-8 -9 -34 -11 -103 -7 -107 6 -221 6 -400 0 -70 -3 -130 -1 -133 4 -3 4 -15 8
-27 8 -18 0 -19 -2 -7 -10 13 -9 13 -10 -1 -10 -8 0 -19 4 -25 10 -13 13 -96
-1 -102 -18 -2 -6 8 -16 23 -22 14 -5 23 -14 20 -20 -10 -16 5 -33 18 -21 14
11 67 3 67 -11 0 -5 9 -7 20 -3 11 3 25 3 30 0 6 -4 34 -8 63 -9 37 -2 63 -11
91 -29 27 -19 52 -27 82 -27 44 0 68 -15 40 -26 -14 -5 -14 -8 -1 -21 13 -13
17 -13 30 0 8 8 11 17 8 21 -10 9 13 7 43 -4 21 -8 24 -14 16 -22 -16 -16 -15
-28 3 -28 8 0 15 7 15 15 0 23 13 18 49 -20 18 -20 31 -42 28 -50 -4 -9 -1
-12 9 -8 9 3 14 -1 14 -11 0 -9 9 -26 19 -37 10 -11 21 -35 24 -52 3 -18 7
-40 9 -49 2 -9 -1 -17 -7 -17 -5 0 -10 9 -9 19 1 33 -13 23 -19 -12 -3 -20 1
-42 10 -56 10 -16 12 -36 7 -67 -5 -38 -10 -44 -33 -47 -16 -2 -25 -8 -23 -17
2 -8 0 -26 -3 -40 l-7 -26 -14 28 c-15 28 -34 36 -34 14 0 -7 5 -18 11 -24 15
-15 4 -44 -13 -38 -7 2 -26 6 -43 8 -27 4 -30 2 -30 -24 0 -16 3 -29 8 -29 4
0 7 6 7 14 0 11 39 31 47 23 6 -6 -15 -25 -51 -45 -26 -16 -42 -20 -49 -13 -7
7 -18 4 -34 -9 -13 -10 -30 -17 -38 -14 -7 3 -18 -3 -24 -14 -12 -23 -43 -38
-35 -17 4 10 -1 12 -18 8 -32 -8 -48 -22 -48 -44 0 -11 7 -17 18 -16 10 0 38
-8 62 -20 25 -11 64 -28 88 -38 29 -13 41 -23 37 -33 -4 -11 1 -13 20 -8 14 4
25 2 25 -4 0 -5 8 -10 19 -10 10 0 32 -7 47 -15 16 -8 36 -15 45 -15 25 0 29
-11 14 -40 -11 -21 -20 -27 -35 -23 -11 3 -20 0 -20 -6 0 -6 5 -11 10 -11 17
0 11 -48 -7 -59 -16 -9 -16 -12 -3 -20 22 -15 -15 -26 -43 -14 -44 21 -113 51
-141 62 -22 9 -26 15 -18 23 19 19 14 28 -18 28 -16 0 -30 -5 -30 -11 0 -5 5
-7 10 -4 6 3 10 1 10 -4 0 -15 0 -15 -82 22 -40 19 -99 44 -130 57 -31 13 -55
27 -52 32 3 5 3 21 -1 36 -5 24 -11 28 -46 29 -35 2 -39 0 -34 -18 4 -10 4
-19 1 -19 -3 0 -44 18 -91 40 -47 22 -89 40 -94 40 -5 0 -12 12 -15 26 -9 34
4 164 15 164 5 0 9 -4 9 -10 0 -5 5 -10 11 -10 5 0 8 4 5 9 -3 4 68 11 157 15
171 7 212 10 238 21 9 3 21 -1 29 -10 16 -19 40 -20 40 -1 0 8 7 17 16 20 8 3
13 9 11 14 -3 4 14 16 36 27 64 31 147 117 147 154 0 32 -26 88 -50 108 -22
18 -60 16 -60 -3 0 -8 -4 -12 -10 -9 -6 4 -10 -7 -10 -24 0 -21 -11 -43 -36
-71 -37 -40 -72 -55 -60 -24 4 11 1 14 -12 12 -11 -2 -17 -13 -17 -31 1 -17
-4 -26 -11 -23 -7 3 -14 -4 -17 -15 -7 -26 -27 -24 -27 2 0 15 -4 19 -16 15
-9 -3 -20 -6 -25 -6 -5 0 -8 -9 -6 -21 4 -35 -39 -58 -133 -70 -47 -6 -107
-15 -135 -21 -58 -11 -118 3 -97 24 15 15 16 31 1 23 -7 -5 -10 83 -9 287 1
161 1 306 1 322 -1 27 -3 28 -33 23 -18 -3 -42 -9 -52 -13 -14 -5 -17 -4 -12
4 8 13 -14 15 -62 6 l-31 -6 5 -217 c2 -119 8 -238 13 -266 l9 -50 1 73 c1 53
4 72 15 72 21 0 28 -104 11 -154 -8 -23 -15 -53 -15 -67 0 -18 -6 -28 -20 -32
-13 -3 -20 -14 -20 -30 0 -16 7 -26 20 -30 15 -4 20 -14 20 -39 0 -19 -3 -38
-7 -41 -3 -4 -6 -33 -6 -64 -1 -50 2 -58 19 -61 10 -2 23 -8 29 -13 5 -5 -28
-9 -83 -9 -91 0 -92 0 -92 25 0 16 6 25 15 25 17 0 21 56 5 80 -7 12 -10 8
-10 -15 0 -16 -5 -37 -10 -45 -7 -10 -9 131 -8 425 l3 440 -47 -3 -48 -4 -2
-461 -3 -462 -90 0 -90 0 -5 172 c-3 112 -9 176 -17 184 -6 6 -10 17 -7 23 2
6 -12 22 -32 35 -29 18 -34 25 -23 33 10 7 8 8 -9 3 -15 -4 -24 -2 -28 8 -3 9
-17 18 -30 21 -37 10 -19 26 20 19 28 -4 36 -1 45 16 11 20 -1 32 -13 13 -5
-8 -44 -8 -76 -1 -8 2 -14 -3 -15 -11 0 -12 -12 -14 -53 -12 -66 4 -159 -14
-193 -38 -30 -21 -57 -26 -82 -15 -22 9 -24 8 -32 -36 -6 -31 -4 -37 14 -42
18 -4 21 -13 21 -54 0 -27 -5 -54 -10 -59 -6 -6 -7 -19 -4 -29 7 -17 8 -16 16
4 6 18 11 20 26 12 24 -13 42 4 42 37 0 31 17 61 52 93 24 22 40 27 91 29 92
3 101 2 105 -10 2 -5 10 -10 17 -10 8 0 26 -20 40 -43 27 -47 31 -62 14 -51
-6 3 -15 0 -20 -7 -13 -20 -11 -29 6 -29 8 0 15 5 15 10 0 6 5 10 10 10 14 0
12 -88 -3 -131 -13 -38 -34 -69 -45 -67 -31 4 -55 -5 -59 -22 -8 -30 -49 -52
-84 -45 -16 4 -35 2 -42 -4 -15 -12 -127 -3 -127 10 0 5 -6 9 -14 9 -22 0 -71
29 -71 42 -1 7 -7 12 -14 10 -19 -4 -81 57 -75 73 3 7 -2 15 -10 18 -19 7 -22
57 -4 57 9 0 9 3 0 12 -7 7 -12 21 -12 32 0 20 0 20 -16 0 -14 -17 -15 -10
-11 84 2 61 9 108 16 115 9 9 13 7 17 -10 7 -25 34 -40 34 -18 0 8 -5 15 -11
15 -7 0 -9 10 -7 25 3 14 1 25 -3 25 -21 0 -5 25 46 77 47 46 60 54 81 49 18
-5 24 -3 19 5 -9 14 13 29 45 29 31 0 118 41 125 58 3 8 -3 16 -14 19 -10 2
-24 17 -32 31 -7 15 -24 40 -38 55 l-26 28 23 18 c15 11 21 23 16 34 -8 22
-20 21 -51 -3 -21 -16 -29 -18 -47 -7 -28 16 -42 17 -176 20 -64 2 -121 7
-128 11 -13 8 -18 167 -5 179 3 4 542 6 1197 5 l1191 -3 3 -83z"/>
<path d="M12362 5796 c-18 -9 -21 -16 -16 -40 3 -16 15 -45 25 -63 11 -19 19
-39 19 -46 0 -7 -5 -4 -11 6 -10 17 -11 17 -24 1 -10 -15 -9 -23 8 -53 26 -45
36 -52 64 -45 13 4 43 -5 74 -20 29 -15 56 -23 60 -19 10 10 14 257 5 272 -4
5 -37 9 -74 9 -37 -1 -76 1 -87 4 -11 3 -30 0 -43 -6z"/>
<path d="M13562 5563 c21 -26 17 -47 -9 -51 -22 -3 -32 11 -15 21 4 2 0 1 -8
-1 -19 -7 -41 -6 -122 2 l-68 7 0 -100 c0 -99 9 -126 33 -102 6 6 21 11 33 11
41 0 96 31 144 81 26 27 51 49 56 49 4 0 3 -5 -4 -12 -7 -7 -12 -19 -12 -27 0
-13 3 -13 17 2 14 14 15 22 7 46 -7 18 -8 34 -2 45 15 27 2 46 -33 46 -30 0
-31 -1 -17 -17z"/>
<path d="M1427 5634 c-12 -12 -8 -139 5 -152 17 -17 133 -16 147 2 7 9 11 41
9 83 l-3 68 -75 3 c-42 1 -79 0 -83 -4z"/>
<path d="M1237 4924 c-4 -4 -7 -20 -7 -35 0 -26 -3 -28 -42 -31 l-43 -3 0 -70
0 -70 70 0 70 0 3 32 c3 30 6 32 45 35 l42 3 0 70 0 70 -65 3 c-36 2 -69 0
-73 -4z"/>
<path d="M7250 4843 c-28 -10 -50 -36 -50 -58 0 -13 -7 -25 -15 -29 -11 -4
-15 -22 -15 -76 0 -54 4 -72 15 -76 11 -5 15 -22 15 -69 0 -58 2 -65 31 -89
26 -23 40 -26 100 -26 53 0 71 4 75 15 5 11 22 15 65 15 55 0 63 3 94 35 l35
34 0 115 0 114 -43 44 c-27 28 -56 47 -76 51 -39 8 -209 8 -231 0z m170 -70
c37 -7 110 -76 109 -102 0 -10 -2 -11 -6 -3 -8 21 -22 13 -37 -22 -17 -40 -60
-66 -109 -66 -49 0 -98 63 -100 128 -2 40 1 48 23 59 28 14 70 16 120 6z"/>
<path d="M6587 4812 c-15 -15 -27 -32 -27 -36 0 -4 -13 -19 -30 -33 -16 -13
-30 -33 -30 -43 0 -10 -7 -20 -15 -24 -9 -3 -15 -19 -15 -41 0 -24 -5 -35 -15
-35 -25 0 -46 -62 -43 -126 l3 -59 67 -3 c66 -3 66 -3 82 29 9 18 16 45 16 61
0 18 5 28 15 28 9 0 18 7 22 16 3 9 19 30 34 47 16 17 29 37 29 44 0 7 6 13
14 13 8 0 24 12 36 27 17 22 20 38 18 92 l-3 66 -65 3 c-61 3 -67 1 -93 -26z"/>
<path d="M1197 4433 c-12 -12 -8 -158 5 -171 7 -7 39 -12 73 -12 34 0 66 5 73
12 7 7 12 41 12 83 0 42 -5 76 -12 83 -13 13 -140 17 -151 5z"/>
<path d="M12636 4423 c-3 -4 -741 -7 -1639 -7 l-1632 -1 0 -100 c0 -94 1 -100
21 -103 20 -3 22 -12 29 -94 4 -50 11 -98 15 -107 5 -9 16 -36 25 -61 9 -25
33 -62 53 -82 l36 -38 -91 0 c-65 0 -94 -4 -102 -14 -8 -9 -11 -59 -9 -152 l3
-139 37 -3 38 -3 2 -242 3 -241 32 -7 c54 -11 63 -24 63 -96 0 -47 4 -65 15
-69 8 -4 15 -12 15 -20 0 -7 14 -33 31 -58 l30 -46 68 0 c68 0 117 -16 141
-45 7 -8 21 -15 32 -15 12 0 24 -12 34 -35 l14 -35 123 0 c82 0 127 4 135 12
7 7 12 32 12 55 0 42 1 43 22 32 23 -12 235 -8 257 5 8 5 11 73 11 219 1 191
2 210 16 192 8 -11 17 -31 20 -45 14 -72 16 -75 77 -84 54 -8 69 -17 47 -31
-5 -3 -10 -46 -10 -94 0 -149 44 -201 169 -201 102 0 157 39 171 120 l6 35 16
-35 c9 -19 18 -46 20 -60 l3 -25 134 -3 c90 -2 138 1 147 9 8 7 14 32 15 63 0
41 2 46 9 29 5 -13 14 -23 20 -23 5 0 10 -9 10 -19 0 -26 82 -97 128 -112 21
-6 41 -15 47 -20 11 -11 259 -12 269 -2 4 5 31 13 59 20 47 11 54 10 77 -8
108 -85 93 -79 214 -79 85 0 117 4 134 16 l22 15 2 462 3 462 5 -405 5 -405
121 -3 c99 -2 123 0 134 13 7 9 15 63 20 137 4 68 8 114 8 102 1 -11 11 -29
22 -39 11 -10 20 -26 20 -35 0 -10 9 -29 20 -43 11 -14 20 -30 20 -35 0 -15
84 -82 103 -82 9 0 19 -4 22 -10 4 -6 57 -10 125 -10 68 0 121 4 125 10 3 6
14 10 24 10 9 0 30 14 46 30 32 33 45 38 45 15 0 -9 7 -18 15 -21 8 -4 15 -14
15 -24 0 -10 7 -23 15 -30 8 -7 15 -18 15 -24 0 -15 101 -112 154 -148 22 -15
50 -28 61 -28 11 0 31 -7 43 -16 18 -12 46 -14 154 -11 73 3 148 8 167 12 40
9 101 43 101 56 0 5 9 9 21 9 14 0 24 10 32 30 7 17 19 30 29 30 24 0 65 86
79 166 18 102 7 288 -20 344 -48 99 -83 137 -153 169 -56 25 -60 36 -56 146
l3 80 119 3 c67 1 126 7 133 14 9 7 13 42 13 124 0 64 4 115 10 119 6 4 10 90
10 224 0 212 1 219 20 224 19 5 21 12 18 104 l-3 98 -425 2 c-234 1 -572 4
-751 7 -180 3 -329 2 -333 -1z m159 -74 c22 -6 53 -20 68 -31 15 -11 34 -17
42 -14 8 3 15 1 15 -5 0 -6 5 -7 10 -4 6 4 4 12 -5 21 -8 9 -15 19 -15 24 0
11 368 12 375 1 9 -16 -34 -23 -123 -19 -62 2 -86 0 -89 -9 -3 -9 7 -13 33
-13 31 0 35 -2 25 -12 -7 -8 -38 -13 -74 -13 l-62 0 -1 -30 c-3 -100 -3 -104
-26 -107 -30 -4 -34 -26 -6 -37 17 -6 25 -5 30 8 4 9 7 -7 7 -36 1 -28 -4 -55
-9 -58 -6 -4 -7 -11 -4 -17 12 -20 14 -180 2 -176 -6 2 -12 14 -13 27 -2 28
-25 44 -42 29 -7 -6 -13 -7 -13 -2 -1 5 -1 52 -1 104 1 113 -6 150 -25 150
-17 0 -19 31 -2 48 9 9 6 12 -14 12 -21 0 -27 5 -31 33 -5 37 -1 45 15 29 16
-16 28 -15 28 2 0 17 -61 30 -71 15 -5 -8 -14 -7 -30 6 l-24 17 26 -6 c39 -9
57 17 24 32 -26 12 -75 1 -75 -16 0 -5 -19 -13 -42 -18 -52 -11 -61 -35 -18
-51 21 -8 30 -18 30 -35 0 -18 2 -20 9 -9 8 12 11 8 16 -15 3 -16 10 -36 15
-45 6 -11 4 -23 -5 -35 -20 -27 -18 -32 10 -26 18 3 25 0 25 -12 0 -11 -9 -16
-30 -16 -17 0 -44 -10 -60 -22 -24 -18 -33 -19 -43 -9 -9 10 -9 14 5 22 10 5
14 17 11 29 -3 11 0 20 6 20 19 0 12 32 -15 68 -24 30 -31 34 -62 29 -59 -10
-112 29 -81 60 6 6 16 22 23 34 18 36 74 69 117 69 21 0 41 5 44 10 8 13 50
13 100 -1z m-1295 -33 c0 -28 -5 -35 -25 -40 l-25 -6 0 -214 c0 -179 -2 -215
-15 -219 -17 -7 -29 8 -21 28 3 8 2 15 -2 15 -4 0 -6 93 -5 207 1 155 5 208
15 214 7 4 10 10 7 13 -11 12 -603 15 -647 4 -24 -6 -39 -14 -32 -18 8 -5 6
-11 -5 -20 -13 -10 -15 -46 -15 -231 l0 -218 -37 2 -38 2 4 110 c3 98 1 115
-18 148 -19 35 -19 42 3 38 26 -5 46 12 46 39 0 35 -19 50 -27 22 -7 -28 -80
-36 -94 -11 -7 14 -4 19 11 24 11 3 24 4 30 0 5 -3 19 -1 31 5 18 10 20 18 15
51 l-6 39 42 0 c32 0 39 3 28 10 -8 5 -62 10 -120 11 -58 0 -159 1 -225 2
l-120 2 -2 -35 c-1 -19 -2 -131 -2 -247 0 -141 -4 -213 -11 -213 -5 0 -10 3
-10 8 0 4 -5 14 -10 22 -9 13 -13 11 -30 -10 l-20 -25 0 220 c-1 181 -3 224
-16 240 -14 19 -13 20 13 26 19 5 9 7 -32 7 -58 1 -59 1 -30 -12 31 -14 30
-15 -19 -30 -12 -4 -13 -33 -10 -168 3 -90 2 -188 -2 -219 l-6 -57 -35 0 c-35
0 -35 0 -30 37 3 29 -1 43 -19 64 -13 15 -30 27 -39 27 -9 0 -38 -18 -65 -41
-35 -29 -54 -39 -68 -35 -11 4 -23 2 -27 -4 -3 -5 -25 -9 -48 -8 -41 1 -41 1
-7 5 52 6 56 19 5 18 -24 -1 -48 -4 -51 -8 -32 -31 -131 44 -158 120 -10 26
-23 59 -29 71 -9 20 -8 25 7 34 10 6 14 13 10 17 -15 11 -34 50 -34 71 0 15 7
20 24 20 14 0 28 5 31 10 13 20 25 -2 25 -45 0 -24 5 -47 11 -50 6 -4 8 -14 5
-22 -15 -39 70 -163 112 -163 8 0 23 -7 33 -16 19 -17 23 -17 81 19 52 31 80
71 86 122 4 38 7 44 33 47 25 4 29 1 29 -18 0 -26 24 -48 44 -41 11 5 13 22 9
86 -4 57 -3 81 6 81 18 0 13 27 -6 35 -14 5 -8 11 27 28 l45 22 -85 6 c-47 4
-192 7 -322 8 -153 1 -238 5 -238 11 0 7 345 10 1035 10 l1035 -1 0 -33z m964
23 c4 -4 -11 -9 -34 -13 -72 -11 -38 -32 48 -29 6 1 12 -3 12 -8 0 -5 -11 -9
-25 -9 -24 0 -25 -3 -25 -60 0 -33 -4 -60 -9 -60 -14 0 -19 21 -14 56 3 18 0
40 -6 50 -10 18 -10 18 -11 0 0 -10 -8 -25 -17 -32 -17 -13 -17 -15 0 -28 9
-7 17 -22 17 -33 0 -13 8 -23 21 -26 21 -6 21 -10 15 -89 -4 -46 -12 -87 -17
-93 -12 -12 -12 -65 0 -65 5 0 11 12 14 28 2 15 3 -1 3 -35 l-1 -63 -37 0 -38
0 -1 190 c-2 252 -2 249 -19 260 -12 8 -13 12 -2 19 11 6 10 10 -3 15 -25 9
-65 7 -65 -4 0 -5 12 -10 27 -10 24 0 25 -2 13 -14 -19 -18 -70 -30 -70 -16 0
5 -4 10 -10 10 -5 0 -10 -17 -10 -37 l1 -38 19 24 20 23 0 -210 0 -210 -35 1
c-28 1 -35 5 -35 21 0 12 -3 32 -6 46 -4 20 -3 22 5 10 9 -12 11 -9 11 14 0
25 -2 27 -16 15 -13 -11 -17 -10 -25 4 -15 25 -42 21 -74 -13 -27 -28 -52 -31
-41 -5 3 8 -2 11 -14 8 -10 -3 -21 0 -25 7 -9 14 45 70 61 63 16 -6 25 36 13
59 -5 10 -8 22 -5 26 6 10 -59 82 -74 82 -6 0 -8 5 -5 10 9 14 -1 12 -35 -5
-42 -22 -39 -45 5 -45 48 0 72 -35 56 -83 -9 -27 -19 -35 -54 -44 -26 -7 -46
-8 -51 -2 -6 5 -20 9 -32 9 -34 0 -54 37 -54 96 0 42 5 59 26 83 40 48 63 57
81 32 14 -20 63 -30 63 -13 0 18 44 29 67 17 13 -7 20 -15 16 -18 -3 -4 0 -7
8 -7 21 0 49 -53 49 -92 0 -22 7 -42 20 -53 11 -10 22 -16 24 -14 2 2 6 57 9
122 5 95 4 119 -7 123 -8 3 -16 14 -19 25 -5 17 -15 19 -104 19 -135 0 -203
-9 -203 -27 0 -8 5 -11 11 -8 16 11 59 13 65 4 2 -4 -4 -13 -15 -18 -25 -14
-41 -14 -21 -1 12 8 11 10 -7 10 -12 0 -25 -5 -28 -10 -4 -6 -55 -9 -126 -8
l-119 1 0 36 0 36 419 0 c231 0 422 -3 425 -6z m1616 -25 c0 -23 -5 -33 -20
-37 -19 -5 -20 -14 -20 -226 l0 -221 -34 0 c-28 0 -41 8 -73 44 -45 51 -132
98 -214 115 -50 10 -57 15 -62 39 -3 15 -1 30 5 33 6 4 7 12 3 19 -10 17 23
49 46 43 14 -4 19 0 19 14 0 11 10 24 23 30 45 22 113 51 150 64 21 7 37 20
37 29 0 13 -25 15 -180 18 l-180 2 0 -224 c0 -205 -1 -224 -17 -228 -10 -2
-27 -2 -38 1 -19 6 -20 15 -20 226 l0 220 -23 3 c-35 5 -54 -16 -46 -51 10
-45 -19 -29 -30 17 -9 34 -12 36 -39 30 -22 -5 -28 -3 -25 7 3 8 15 15 27 17
18 3 20 6 10 18 -6 8 -21 15 -33 15 -11 1 -3 5 19 8 22 4 192 6 377 6 l338 0
0 -31z m-4275 -42 c6 -14 22 -26 38 -29 31 -6 31 -9 13 -42 -8 -14 -11 -32 -8
-40 5 -14 4 -14 -14 -1 -10 8 -22 18 -25 23 -3 4 -23 0 -44 -9 -21 -8 -46 -13
-57 -11 -11 3 -18 0 -18 -10 0 -8 4 -12 10 -8 5 3 25 -1 44 -9 25 -10 37 -11
45 -3 8 8 11 8 11 -1 0 -7 5 -11 11 -9 6 1 14 -5 17 -13 2 -8 1 -12 -3 -8 -12
11 -35 -11 -35 -33 0 -9 7 -25 16 -34 20 -20 18 -23 -33 -31 -34 -5 -45 -2
-62 15 -25 25 -35 27 -27 6 3 -8 1 -15 -5 -15 -28 0 -40 139 -15 173 13 17 42
25 32 9 -4 -7 19 -8 43 -3 2 1 -7 10 -20 20 -23 19 -23 20 -4 26 11 4 31 11
43 16 l24 9 -24 20 -23 20 30 -2 c20 -2 33 -11 40 -26z m585 13 c0 -18 12 -19
27 -4 6 6 46 13 89 15 49 4 74 2 66 -3 -7 -5 -27 -9 -45 -8 -26 0 -33 -4 -35
-20 -1 -11 3 -30 10 -43 9 -17 9 -25 0 -34 -20 -20 -13 -30 18 -26 17 3 30 1
30 -4 0 -4 6 -8 14 -8 25 0 28 -19 7 -46 -12 -15 -21 -32 -21 -39 0 -7 -7 -15
-15 -19 -8 -3 -12 -12 -9 -21 3 -8 1 -15 -5 -15 -6 0 -11 7 -11 15 0 8 -7 15
-15 15 -8 0 -16 8 -16 18 -2 31 -9 51 -31 99 -13 26 -3 44 20 36 15 -6 15 -4
4 10 -8 8 -20 13 -28 10 -19 -7 -46 16 -40 34 4 9 0 14 -12 12 -36 -3 -52 1
-52 15 0 14 14 24 38 25 6 1 12 -6 12 -14z m558 -25 c-28 -24 -49 -52 -53 -70
-4 -17 -11 -30 -16 -30 -5 0 -9 -11 -9 -25 0 -18 -7 -28 -25 -35 -14 -5 -25
-16 -25 -24 0 -8 11 -23 25 -34 27 -22 34 -45 10 -36 -10 4 -15 0 -15 -13 0
-14 12 -24 40 -33 34 -11 42 -11 57 2 27 23 84 21 90 -3 3 -10 10 -19 15 -19
5 0 8 -17 6 -37 -3 -34 -6 -38 -30 -38 -15 -1 -30 -4 -34 -8 -4 -4 -2 -7 5 -7
7 0 9 -5 6 -10 -4 -6 -29 -9 -56 -7 -58 5 -100 38 -130 102 -33 72 -18 280 21
293 9 3 11 -1 5 -14 -12 -30 -11 -57 2 -61 7 -3 16 4 20 14 3 10 12 22 20 26
18 11 17 43 -2 51 -8 3 -15 14 -15 25 0 21 9 24 90 29 l44 3 -46 -41z m429
-27 c2 -62 -7 -79 -25 -47 -5 9 -18 14 -31 12 -27 -4 -29 -22 -1 -26 49 -8 4
-46 -52 -44 -32 2 -39 -1 -34 -13 3 -9 -1 -18 -9 -21 -8 -4 -15 -12 -15 -20 0
-7 -12 -19 -27 -26 -41 -20 -42 -39 -1 -31 18 3 35 10 36 15 6 14 29 9 87 -21
37 -20 58 -25 60 -18 3 7 6 44 8 82 3 60 3 56 5 -27 2 -89 -5 -117 -23 -88 -9
14 -52 13 -61 -2 -4 -6 -2 -14 5 -16 19 -6 74 -62 67 -69 -3 -3 -23 10 -45 29
-22 19 -53 40 -68 47 -15 7 -41 19 -56 27 -16 8 -38 14 -50 14 -46 0 -68 12
-62 31 5 13 2 19 -7 17 -7 -2 -13 6 -13 17 0 11 -4 23 -10 27 -15 11 11 32 43
34 15 1 31 3 36 3 4 1 6 8 2 16 -3 9 0 15 10 15 8 0 17 7 21 15 3 9 13 15 23
13 9 -2 24 3 33 11 9 7 28 14 42 15 14 0 25 4 25 7 0 3 18 16 41 28 49 28 46
46 -9 46 -23 1 -45 4 -49 8 -4 5 17 7 47 5 l55 -3 2 -62z m373 -61 c0 -26 4
-64 9 -84 6 -27 5 -38 -5 -42 -7 -3 -14 0 -16 6 -2 6 -9 8 -15 5 -9 -6 -7 -18
4 -45 8 -20 15 -39 14 -42 0 -3 5 -5 12 -5 7 0 11 10 9 27 -6 47 7 50 43 12
19 -20 32 -40 30 -44 -7 -11 5 -40 17 -40 5 0 6 5 3 10 -9 14 41 12 65 -2 15
-10 22 -10 32 0 6 6 17 12 23 12 14 0 55 -37 55 -50 0 -18 -48 -22 -78 -6 -32
16 -44 13 -35 -11 5 -13 0 -14 -28 -8 -18 4 -39 14 -45 23 -7 9 -19 13 -33 9
-17 -4 -30 3 -56 31 -19 20 -35 43 -35 50 0 7 -7 24 -16 37 -9 13 -13 29 -10
34 4 5 2 13 -4 16 -7 4 -9 30 -5 68 3 41 2 55 -4 42 -8 -18 -9 -19 -16 -2 -16
38 24 64 54 35 7 -7 12 -8 11 -3 -4 19 0 26 10 20 6 -3 10 -27 10 -53z m-182
32 c18 -5 22 -13 22 -50 0 -23 4 -45 9 -48 4 -3 11 -33 14 -66 3 -33 12 -72
21 -85 9 -13 16 -30 16 -37 0 -6 14 -26 31 -44 l30 -31 -78 -5 c-43 -3 -86 -9
-95 -13 -17 -7 -18 6 -18 182 0 104 3 193 7 196 8 8 12 8 41 1z m1720 -6 c-3
-7 -15 -15 -27 -18 -12 -3 -21 -9 -19 -15 2 -5 -13 -11 -32 -13 -38 -4 -80
-36 -80 -61 -1 -13 -3 -13 -15 3 -8 11 -21 16 -30 13 -19 -8 -20 -26 -1 -33
12 -5 34 -48 50 -96 7 -24 33 -23 41 1 3 10 19 24 34 31 25 10 34 9 56 -6 44
-29 56 -94 17 -94 -8 0 -12 -3 -9 -7 14 -14 -27 -43 -60 -43 -97 0 -173 81
-173 186 0 23 5 46 10 49 6 3 10 14 10 24 0 21 45 66 80 80 38 15 153 14 148
-1z m-716 -169 c-3 -66 -2 -72 25 -100 25 -25 35 -28 92 -29 68 0 101 16 101
50 0 12 10 19 31 22 27 4 30 2 25 -16 -3 -12 -6 -47 -6 -78 l0 -58 -165 0
-165 0 0 140 0 140 33 0 32 0 -3 -71z m-777 -269 c4 -6 17 -10 28 -9 37 2 41
-1 21 -16 -15 -11 -16 -14 -3 -15 8 0 21 6 28 13 10 10 15 8 26 -7 8 -10 18
-15 23 -12 6 4 8 -3 4 -16 -5 -20 -4 -21 11 -10 19 16 41 6 33 -14 -4 -10 2
-14 19 -14 15 0 24 -5 23 -12 -2 -7 2 -12 9 -11 6 1 26 5 44 8 35 6 52 15 29
15 -12 0 -50 37 -50 49 0 3 5 13 10 21 9 13 10 13 10 0 1 -12 3 -12 14 3 12
16 64 17 839 17 776 0 825 -1 832 -17 6 -17 7 -17 20 0 11 15 27 17 131 15
l119 -3 3 -46 3 -46 -42 4 c-27 3 -45 0 -50 -8 -10 -16 24 -41 44 -33 8 3 18
0 22 -5 3 -6 11 -8 17 -5 6 4 9 1 6 -7 -3 -11 -35 -15 -129 -19 l-124 -5 3 33
c4 31 3 32 -32 32 -33 0 -36 -2 -36 -29 0 -22 6 -30 25 -35 l24 -6 3 -160 c2
-88 2 -160 1 -160 -1 0 -8 -3 -17 -6 -13 -5 -16 1 -17 27 l-1 34 -9 -40 c-4
-22 -8 -52 -8 -67 -1 -24 3 -28 27 -28 27 0 58 32 47 49 -3 5 5 7 16 4 12 -4
24 -15 27 -25 3 -13 7 -16 12 -8 13 21 52 -7 44 -32 -5 -17 -3 -19 14 -14 23
8 41 -12 22 -24 -17 -10 -2 -33 16 -26 10 4 21 -9 35 -41 11 -25 17 -48 14
-51 -2 -3 -7 3 -11 12 -3 9 -10 16 -16 16 -5 0 -6 -5 -2 -11 3 -6 0 -22 -7
-36 -9 -16 -10 -26 -3 -31 16 -10 34 -48 35 -74 1 -19 3 -18 9 7 12 48 12 -2
-1 -69 -10 -58 -53 -157 -60 -139 -2 6 -14 13 -25 17 -25 8 -41 -19 -24 -39
14 -17 2 -45 -21 -45 -10 0 -22 -6 -26 -13 -4 -7 -21 -21 -36 -31 -24 -15 -49
-18 -150 -17 -123 1 -143 5 -117 21 11 7 12 12 3 21 -9 9 -16 8 -32 -3 -12 -8
-18 -18 -14 -21 16 -17 -16 -5 -37 13 -13 11 -27 20 -32 20 -11 0 -128 118
-128 130 0 6 5 10 10 10 6 0 10 4 10 10 0 5 -10 9 -22 7 -16 -1 -23 4 -25 18
-1 11 0 14 3 8 8 -18 31 -16 38 2 5 13 -32 65 -46 65 -3 0 -8 -10 -12 -22 -5
-21 -7 -20 -26 16 -25 51 -35 102 -21 111 6 3 27 -3 47 -15 19 -12 38 -19 42
-16 3 4 -4 9 -16 13 -12 3 -22 12 -22 19 0 19 61 44 78 31 19 -15 14 -26 -8
-20 -23 6 -25 -6 -8 -54 10 -28 10 -36 -1 -42 -7 -5 -10 -14 -7 -20 13 -20 35
14 38 60 3 34 5 39 12 24 4 -11 12 -27 17 -35 5 -8 13 -25 19 -38 5 -12 32
-45 60 -73 55 -55 57 -59 34 -59 -20 0 -13 -24 8 -28 9 -2 18 4 20 12 3 14 6
14 32 1 16 -9 36 -13 44 -10 8 3 20 1 26 -4 8 -7 31 -5 67 4 29 8 62 12 73 9
13 -4 16 -2 11 6 -4 7 2 18 14 26 36 26 72 116 70 176 -1 29 -1 58 1 63 1 6 2
21 1 34 -1 20 -3 22 -16 11 -13 -11 -20 -9 -43 13 -24 23 -37 27 -84 27 -71 0
-88 -7 -88 -35 0 -25 26 -53 38 -40 4 4 1 10 -5 12 -25 9 -12 23 20 23 26 -1
29 -2 15 -11 -22 -13 -23 -29 -2 -29 9 0 18 9 21 20 7 26 28 26 46 0 8 -11 16
-18 19 -15 12 13 30 -58 25 -97 -6 -44 -32 -74 -51 -59 -15 12 -66 16 -93 7
-26 -8 -31 -44 -8 -52 28 -11 15 -24 -25 -24 -22 0 -40 4 -40 9 0 5 -10 11
-22 13 -18 2 -23 10 -23 32 0 24 -5 31 -27 37 -19 5 -28 3 -28 -4 0 -7 -6 -1
-14 13 -9 17 -13 58 -12 123 l1 99 -30 -7 c-80 -16 -151 -17 -164 -2 -7 9 -20
13 -29 10 -9 -3 -14 -2 -10 2 5 5 -2 13 -14 19 -12 6 -23 17 -26 24 -3 10 2
10 22 1 30 -14 39 -9 30 14 -6 16 -13 19 -66 31 -71 16 -58 210 20 289 25 25
32 27 57 17 15 -6 30 -8 33 -5 3 3 0 5 -6 5 -7 0 -12 9 -12 20 0 11 2 20 4 20
2 0 12 3 20 6 12 5 15 2 10 -10 -3 -9 -2 -16 4 -16 6 0 12 5 14 11 3 9 10 9
27 -1 37 -19 52 3 44 68 -6 51 -6 52 -39 52 -28 0 -33 -4 -36 -27 l-3 -28
-181 0 -181 -1 -28 -28 c-42 -42 -75 -94 -82 -127 -7 -37 -13 -40 -51 -33 -21
4 -32 13 -35 28 -2 11 -5 -4 -5 -34 0 -30 2 -48 5 -40 2 8 7 21 9 29 4 11 8
10 24 -4 27 -25 25 -50 -7 -80 -25 -22 -26 -25 -8 -25 18 0 20 -7 21 -68 0
-37 -5 -70 -10 -74 -7 -5 -7 -8 2 -8 6 0 12 -5 12 -10 0 -6 10 -33 23 -60 18
-42 26 -50 50 -50 15 0 28 5 28 10 1 6 3 15 4 20 1 6 3 14 4 18 2 14 50 32 86
32 35 0 47 -16 21 -26 -20 -8 -28 -32 -13 -40 7 -4 8 -3 4 2 -4 4 9 13 30 19
31 9 40 8 50 -4 7 -10 8 -20 2 -27 -6 -8 -4 -14 6 -18 21 -8 21 -99 0 -116 -9
-7 -13 -15 -10 -18 9 -9 -47 -62 -64 -61 -12 0 -10 4 7 16 30 21 28 33 -8 33
-26 0 -30 -4 -31 -27 -1 -16 -1 -31 0 -36 0 -4 -26 -6 -60 -6 -52 1 -57 3 -37
13 23 12 38 56 19 56 -6 0 -11 -5 -11 -10 0 -7 -7 -7 -21 1 -15 8 -24 8 -32 0
-7 -7 -5 -12 6 -17 24 -9 21 -24 -5 -24 -30 1 -72 36 -62 51 5 9 2 10 -10 6
-11 -4 -19 -1 -23 11 -4 9 -16 29 -26 44 -14 19 -17 31 -10 40 5 7 7 24 3 38
-5 22 -7 23 -13 6 -6 -15 -10 -16 -22 -6 -9 7 -14 18 -14 24 1 6 -2 20 -6 30
-6 13 -4 21 3 24 7 2 12 8 12 13 0 6 -4 8 -9 4 -12 -7 -18 14 -25 85 -9 88 23
300 45 300 5 0 9 9 9 20 0 12 6 20 13 19 30 -4 47 2 47 16 0 8 -4 15 -10 15
-5 0 -10 -4 -10 -10 0 -5 -4 -10 -10 -10 -14 0 -13 33 2 48 23 23 5 27 -132
24 l-85 -2 3 -369 c2 -293 0 -369 -10 -368 -47 1 -67 -4 -62 -17 3 -8 18 -16
32 -18 16 -2 27 -9 27 -18 0 -11 -15 -16 -62 -18 l-63 -3 0 309 c0 267 2 313
17 342 15 31 17 32 30 15 12 -18 13 -17 13 8 0 22 -5 27 -24 27 -20 0 -25 -6
-29 -32 -2 -18 -5 -1 -5 39 -2 65 0 73 23 91 15 12 25 30 25 46 0 23 -4 26
-34 26 -30 0 -35 -3 -38 -27 -3 -25 -7 -28 -43 -28 -22 0 -62 3 -90 7 -27 4
-41 4 -30 1 11 -3 23 -10 27 -17 4 -6 7 -209 6 -451 -1 -242 -3 -423 -5 -402
-5 45 -23 39 -23 -8 0 -22 6 -38 18 -44 16 -10 16 -12 -2 -26 -27 -21 -114
-19 -147 3 -30 20 -99 79 -99 86 0 2 10 6 22 10 19 4 20 8 10 18 -11 11 -16 9
-30 -10 -15 -20 -20 -21 -36 -9 -16 11 -28 10 -85 -9 -36 -13 -78 -23 -93 -24
-16 0 -28 -4 -28 -10 0 -12 -132 -13 -146 -1 -5 5 -26 14 -46 21 -22 6 -38 18
-38 26 0 9 -5 12 -11 9 -14 -9 -68 45 -69 68 0 9 5 17 11 17 5 0 8 4 4 9 -3 6
-14 8 -24 6 -15 -3 -21 6 -30 40 -6 24 -11 59 -11 78 0 31 4 35 69 65 38 18
74 32 80 32 16 0 10 -105 -6 -106 -7 -1 -17 -2 -23 -3 -19 -2 -10 -30 12 -37
15 -4 25 -2 32 9 8 13 17 9 59 -29 37 -33 57 -44 82 -44 19 0 37 -5 40 -11 4
-6 14 -7 24 -4 29 12 71 14 71 5 0 -6 5 -10 12 -10 6 0 8 3 5 7 -10 10 13 33
34 33 12 0 16 5 13 14 -12 33 78 31 141 -2 16 -9 36 -15 43 -14 6 2 12 -2 12
-8 0 -5 7 -10 15 -10 8 0 15 6 15 14 0 8 -7 16 -15 20 -13 4 -15 38 -15 217 0
188 2 210 15 199 19 -15 27 -10 15 10 -9 15 -136 24 -145 10 -3 -5 -1 -20 5
-34 6 -16 6 -27 0 -31 -6 -4 -10 -1 -10 6 0 8 -4 8 -15 -1 -8 -7 -14 -20 -13
-29 2 -12 -4 -16 -25 -14 -15 1 -25 -2 -22 -8 7 -10 -4 -53 -11 -46 -5 5 -54
-34 -95 -75 -15 -16 -31 -28 -36 -28 -6 0 -18 -9 -28 -20 -10 -11 -26 -20 -36
-20 -24 0 -60 59 -48 81 10 19 -13 45 -31 34 -17 -11 -11 7 9 24 34 29 74 118
66 148 -4 17 -9 23 -14 15 -5 -8 -15 1 -29 27 -32 56 -84 71 -131 39 -21 -15
-26 -15 -64 6 -33 17 -42 27 -41 46 1 14 -5 29 -12 33 -19 11 -17 23 6 45 11
10 18 25 15 33 -15 39 150 172 244 199 42 12 169 12 176 0z m-532 -7 l28 -5
-3 -76 c-3 -64 -6 -77 -20 -80 -12 -2 -18 3 -18 14 0 16 -2 16 -15 4 -12 -13
-15 -81 -17 -425 l-3 -410 -77 -1 c-74 -1 -78 0 -78 21 0 39 -30 83 -88 132
-31 27 -62 54 -68 62 -6 8 -18 11 -27 8 -11 -4 -20 1 -27 13 -7 13 -26 21 -65
25 -53 7 -85 24 -85 46 0 16 -32 10 -46 -8 -12 -17 -13 -17 -19 -1 -5 13 -12
15 -30 8 -25 -10 -35 2 -35 43 0 12 -9 37 -20 55 -11 17 -22 49 -25 70 -5 32
-2 40 21 56 15 10 40 19 55 20 27 1 43 16 17 16 -6 0 -3 9 7 20 10 11 24 20
30 20 7 0 23 8 36 18 13 10 59 37 102 60 68 36 82 40 100 30 22 -12 76 -12 89
0 4 4 -9 8 -28 9 -20 1 -34 -3 -34 -10 0 -7 -4 -6 -9 2 -16 25 17 40 78 33 51
-5 54 -4 49 15 -3 11 -2 27 3 34 6 12 -23 14 -197 11 -113 -3 -257 -1 -320 3
-111 7 -114 7 -114 31 l0 24 278 3 277 2 -312 3 -313 2 0 -35 c0 -19 5 -35 10
-35 6 0 10 -9 10 -20 0 -24 9 -26 24 -5 8 12 11 -23 9 -136 -1 -131 -3 -152
-19 -163 -9 -7 -26 -11 -36 -8 -16 4 -18 -3 -18 -72 0 -59 3 -76 14 -76 8 0
21 -3 29 -6 10 -3 17 2 20 13 3 10 5 -6 6 -34 1 -41 -2 -53 -14 -53 -8 0 -15
-4 -15 -10 0 -5 -9 -10 -20 -10 -16 0 -20 -7 -20 -35 0 -33 12 -46 25 -25 3 5
12 7 19 4 8 -3 16 2 19 13 3 10 5 -26 6 -79 1 -81 -2 -98 -14 -98 -8 0 -15 9
-15 19 0 28 -27 51 -61 51 -22 0 -29 -5 -29 -20 0 -16 7 -20 36 -20 28 0 35
-3 32 -17 -4 -20 -37 -28 -74 -19 l-24 6 0 396 c0 303 -3 398 -12 407 -8 8
-51 12 -116 12 -56 0 -98 -1 -92 -3 5 -2 10 -9 10 -16 0 -7 13 -31 28 -52 16
-22 27 -45 24 -52 -2 -8 6 -16 18 -19 16 -4 20 -11 16 -27 -3 -11 -11 -59 -17
-106 -6 -47 -13 -92 -16 -100 -7 -23 -9 -340 -1 -348 3 -4 8 -47 10 -96 l3
-88 -66 -2 -66 -2 -13 35 c-9 26 -10 36 -1 39 16 5 14 22 -3 22 -8 0 -16 -7
-20 -15 -8 -21 -30 -19 -51 5 -10 11 -24 20 -32 20 -7 0 -13 5 -13 11 0 5 6 7
13 3 6 -4 9 -4 5 1 -4 4 -3 14 4 22 8 10 8 17 0 25 -9 9 -12 7 -12 -9 0 -14
-6 -22 -17 -22 -10 0 -31 -2 -48 -6 -16 -3 -24 -2 -17 1 24 11 12 24 -23 24
-26 0 -33 -3 -29 -15 4 -10 0 -15 -13 -15 -12 0 -30 16 -46 41 -27 41 -28 70
-1 48 8 -6 17 -9 20 -6 9 9 -6 28 -17 22 -5 -4 -9 -2 -9 4 0 6 -6 8 -12 6 -7
-3 -20 -1 -28 5 -12 7 -12 12 -3 21 9 9 15 9 27 0 9 -7 17 -8 20 -2 3 5 0 12
-6 14 -15 6 35 53 67 63 11 3 36 18 55 33 59 44 94 67 128 82 29 12 32 18 32
56 0 24 3 43 8 43 4 0 7 23 8 50 1 54 -13 65 -43 34 -9 -9 -26 -14 -39 -11
-16 3 -21 0 -17 -10 4 -9 -19 -39 -57 -78 -55 -56 -67 -63 -92 -58 -22 4 -28
2 -28 -11 0 -13 5 -16 20 -11 24 7 26 -7 5 -25 -8 -7 -15 -19 -15 -26 0 -8 -7
-14 -15 -14 -8 0 -15 -8 -15 -17 -1 -17 -1 -17 -14 0 -8 10 -20 15 -29 11 -9
-3 -26 1 -39 10 -12 9 -33 16 -45 16 l-23 0 0 235 c0 150 4 235 10 235 6 0 10
7 10 16 0 14 -8 16 -50 10 l-50 -7 0 79 c0 43 3 82 7 85 7 8 1804 8 1846 0z
m-614 -273 c-24 -16 -49 -30 -55 -30 -5 0 -23 -13 -39 -30 -16 -16 -33 -30
-39 -30 -5 0 -17 -7 -27 -16 -16 -15 -18 -11 -24 49 -4 36 -4 70 0 76 4 7 49
11 117 11 l111 0 -44 -30z m2426 13 c-33 -85 -37 -111 -34 -225 l4 -118 -87 0
c-49 0 -91 0 -95 0 -15 1 -5 161 10 178 8 10 17 30 21 46 8 32 40 80 76 113
33 29 116 34 105 6z m-1715 -167 c24 -12 55 -16 99 -15 58 2 66 0 74 -20 8
-17 5 -27 -16 -49 -19 -20 -27 -39 -27 -65 0 -35 -2 -37 -32 -37 -17 0 -60
-13 -95 -30 -34 -16 -65 -30 -68 -30 -3 0 -5 66 -5 147 0 138 1 145 18 131 9
-8 33 -23 52 -32z m620 -246 l0 -90 -112 1 c-79 0 -106 3 -90 9 12 5 25 16 28
24 3 8 30 31 60 52 29 20 56 44 59 53 4 14 13 20 53 40 1 0 2 -39 2 -89z
m-1134 -127 c30 -25 34 -33 34 -76 0 -61 -24 -104 -68 -122 -45 -20 -93 3
-116 55 -20 46 -20 68 -1 107 18 36 32 49 60 56 41 10 57 6 91 -20z"/>
<path d="M13835 4140 c-10 -11 -27 -20 -37 -20 -19 0 -36 -26 -25 -37 4 -3 18
2 33 11 14 10 28 15 31 12 3 -3 -6 -11 -21 -17 -34 -16 -33 -37 2 -45 15 -4
29 -10 32 -13 10 -13 81 -51 95 -51 10 0 14 21 17 81 4 97 -7 114 -52 81 -16
-12 -36 -22 -45 -22 -15 0 -15 1 -1 16 20 19 20 24 3 24 -8 0 -22 -9 -32 -20z"/>
<path d="M13550 3617 c-14 -8 -24 -19 -23 -25 2 -7 -5 -11 -15 -10 -61 5 -82
-15 -41 -40 15 -10 19 -20 15 -38 -6 -22 -3 -24 24 -24 27 0 30 3 25 20 -8 25
20 28 33 4 8 -14 12 -14 31 7 15 16 18 25 9 30 -9 6 -9 11 1 23 12 14 10 16
-10 16 l-23 0 22 16 c12 8 22 19 22 25 0 13 -41 11 -70 -4z"/>
<path d="M11610 3571 c0 -12 6 -21 13 -21 22 0 38 -22 26 -36 -8 -9 -5 -11 10
-7 12 3 21 1 21 -6 0 -5 6 -8 14 -5 14 6 30 -22 20 -37 -3 -5 2 -9 10 -9 9 0
25 -20 36 -45 11 -25 26 -45 33 -45 6 0 32 21 57 46 25 25 53 50 63 55 24 14
21 38 -9 61 -14 11 -23 27 -20 34 3 8 0 15 -7 15 -7 1 -23 4 -37 6 -14 3 -71
7 -127 10 -99 4 -103 3 -103 -16z"/>
<path d="M13501 3351 c-24 -6 -42 -31 -23 -31 22 0 35 -85 16 -101 -18 -15
-18 -45 1 -53 9 -3 22 5 32 19 l18 23 21 -25 c24 -30 54 -26 54 7 0 15 -7 20
-27 20 -24 1 -25 2 -10 11 26 15 21 33 -23 79 -22 23 -38 46 -34 51 3 5 4 9 2
8 -2 -1 -14 -4 -27 -8z"/>
<path d="M9649 3588 c0 -2 -1 -51 -2 -111 -2 -95 0 -107 15 -107 9 0 30 16 45
35 15 19 32 35 36 35 5 0 23 11 41 25 40 30 46 31 39 5 -3 -11 -11 -20 -19
-20 -19 0 -28 -20 -14 -33 9 -9 14 -8 24 6 7 9 21 17 31 17 12 0 16 6 12 18
-2 9 -6 23 -8 31 -5 15 44 46 93 59 18 4 33 15 33 23 0 11 -29 14 -162 17 -90
1 -163 1 -164 0z"/>
<path d="M11140 3456 c0 -83 -4 -117 -13 -125 -8 -6 -17 -8 -20 -4 -4 3 -7
-48 -7 -114 0 -112 1 -121 20 -126 18 -5 20 -14 20 -115 0 -109 0 -110 -25
-116 -30 -8 -32 -26 -7 -49 24 -22 35 -21 53 1 19 24 11 756 -8 760 -10 1 -13
-26 -13 -112z"/>
<path d="M11041 3373 c-9 -19 -21 -26 -126 -74 -96 -45 -128 -80 -86 -94 10
-3 26 -14 36 -25 10 -11 28 -20 40 -20 27 0 45 -18 45 -47 0 -16 6 -23 20 -23
12 0 20 7 20 17 0 14 4 13 24 -6 14 -13 29 -20 35 -16 15 9 15 265 0 265 -8 0
-7 5 1 15 7 9 10 18 7 21 -3 3 -10 -3 -16 -13z"/>
<path d="M830 4385 c-19 -8 -45 -14 -56 -14 -35 -1 -45 -24 -42 -93 l3 -63 55
-3 c65 -4 166 14 198 34 21 14 23 21 20 82 l-3 67 -70 2 c-38 0 -86 -5 -105
-12z"/>
<path d="M827 4174 c-4 -4 -7 -35 -7 -70 l0 -62 -117 -6 c-65 -4 -154 -10
-198 -14 l-80 -7 0 -70 0 -70 110 -3 c61 -1 160 2 220 8 61 6 139 13 175 16
36 3 71 10 78 16 7 6 12 36 12 75 0 56 -3 66 -20 70 -16 4 -20 15 -22 62 l-3
56 -70 3 c-39 1 -74 0 -78 -4z"/>
<path d="M197 4034 c-13 -14 -8 -131 7 -143 9 -8 46 -11 103 -9 l88 3 0 75 0
75 -95 3 c-53 1 -99 0 -103 -4z"/>
<path d="M887 3724 c-4 -4 -7 -36 -7 -72 0 -56 3 -65 20 -69 19 -5 18 -8 -12
-27 -58 -37 -72 -45 -105 -62 -18 -9 -48 -34 -68 -55 -19 -21 -39 -39 -43 -39
-5 0 -17 -8 -26 -19 -13 -15 -16 -34 -14 -87 l3 -69 47 -3 c45 -3 47 -5 50
-35 2 -24 8 -33 26 -35 17 -3 22 -10 22 -33 0 -21 11 -41 40 -70 22 -22 40
-45 40 -50 0 -5 7 -12 15 -15 8 -4 15 -11 15 -18 0 -6 13 -37 29 -68 24 -48
26 -60 16 -75 -7 -10 -15 -32 -19 -49 -4 -17 -21 -46 -39 -65 -73 -76 -82 -96
-82 -189 l0 -85 45 -3 c76 -6 199 16 244 42 22 14 68 39 101 56 33 17 78 42
100 55 47 28 137 73 218 110 l58 26 -3 72 -3 72 -75 0 c-62 0 -76 3 -82 18 -4
10 -18 17 -32 17 -21 0 -25 5 -28 38 -3 32 -7 37 -30 40 -22 3 -27 9 -30 35
-2 24 -8 33 -25 35 -14 2 -23 11 -25 25 -3 21 -8 22 -83 22 -76 0 -79 -1 -86
-25 -5 -16 -7 -19 -8 -7 -1 10 -8 20 -16 23 -8 4 -15 12 -15 18 0 7 -12 23
-27 37 l-28 24 165 5 165 5 0 70 0 70 -35 12 c-21 7 -96 12 -184 12 -131 1
-147 3 -136 16 7 8 16 15 20 15 15 0 159 71 166 81 3 6 17 14 30 20 24 8 25
13 22 76 l-3 68 -37 3 -37 3 -3 52 -3 52 -101 3 c-55 1 -103 0 -107 -4z m603
-932 c0 -4 -24 -17 -52 -30 -70 -30 -163 -77 -213 -107 -22 -13 -67 -38 -100
-55 -33 -17 -80 -43 -104 -57 -28 -17 -61 -27 -91 -28 -25 -1 -52 -5 -59 -9
-9 -6 -10 0 -5 21 8 34 15 42 21 26 7 -19 69 -16 112 6 20 11 54 38 74 60 20
23 41 41 46 41 5 0 12 6 14 13 3 6 6 2 6 -10 1 -13 6 -23 12 -23 12 0 65 28
89 46 8 7 44 26 80 44 36 17 74 36 85 42 18 10 61 25 78 27 4 1 7 -2 7 -7z"/>
<path d="M13042 1228 c-8 -8 -12 -66 -12 -194 0 -152 3 -184 16 -194 22 -19
170 -26 189 -10 9 7 15 29 15 51 0 28 4 39 15 39 11 0 15 -11 15 -39 0 -64 -4
-63 280 -64 58 0 188 2 290 4 l185 4 0 205 0 205 -491 2 c-370 2 -493 0 -502
-9z m258 -83 c0 -22 -4 -24 -57 -27 l-58 -3 -3 -37 -3 -38 55 0 c53 0 56 -1
56 -24 0 -23 -4 -25 -52 -28 l-53 -3 -3 -40 c-4 -50 -10 -56 -45 -47 l-27 7
-6 123 c-2 67 -2 127 1 132 3 6 49 10 101 10 93 0 94 0 94 -25z m120 -109 l0
-134 -30 -4 c-17 -3 -33 -2 -35 2 -3 5 -8 230 -6 263 1 4 17 7 36 7 l35 0 0
-134z m232 116 c6 -6 8 -23 4 -37 -5 -21 -10 -24 -21 -15 -7 6 -31 10 -52 8
-30 -2 -38 -7 -38 -22 0 -14 14 -24 55 -38 62 -21 80 -39 80 -80 0 -63 -86
-102 -169 -77 -43 13 -47 19 -31 49 9 16 15 18 36 10 39 -15 84 -12 91 5 7 20
5 22 -55 43 -66 24 -82 38 -82 74 0 41 16 67 53 84 35 15 112 13 129 -4z m150
-34 l3 -53 45 0 45 0 3 53 3 52 35 0 34 0 0 -141 0 -140 -32 3 c-32 3 -33 5
-38 53 l-5 50 -45 0 -45 0 -5 -50 c-3 -31 -10 -50 -17 -49 -7 1 -22 2 -33 3
-19 1 -20 8 -20 129 0 71 3 132 7 135 3 4 19 7 34 7 27 0 28 -2 31 -52z"/>
</g>
</svg>
