<?xml version="1.0" standalone="no"?>
<!DOCTYPE svg PUBLIC "-//W3C//DTD SVG 20010904//EN"
 "http://www.w3.org/TR/2001/REC-SVG-20010904/DTD/svg10.dtd">
<svg version="1.0" xmlns="http://www.w3.org/2000/svg"
 width="1536.000000pt" height="2048.000000pt" viewBox="0 0 1536.000000 2048.000000"
 preserveAspectRatio="xMidYMid meet">
<metadata>
Created by potrace 1.16, written by Peter Selinger 2001-2019
</metadata>
<g transform="translate(0.000000,2048.000000) scale(0.100000,-0.100000)"
fill="#000000" stroke="none">
<path d="M8272 11980 c-103 -15 -230 -77 -359 -176 -24 -19 -50 -40 -57 -47
-8 -7 -27 -24 -42 -38 -16 -13 -65 -65 -109 -115 -111 -125 -125 -143 -125
-153 0 -5 -4 -11 -8 -13 -12 -4 -74 -94 -103 -148 -36 -68 -66 -108 -144 -190
-40 -41 -80 -88 -91 -105 -10 -16 -24 -36 -31 -43 -12 -13 -41 -105 -50 -158
-3 -17 0 -62 6 -101 8 -51 8 -93 0 -152 -11 -84 2 -275 22 -312 5 -10 12 -45
15 -77 7 -67 5 -70 -81 -82 -27 -4 -86 -14 -130 -23 -44 -8 -93 -18 -110 -21
-16 -3 -64 -12 -105 -20 -81 -17 -179 -34 -247 -43 -52 -7 -65 12 -35 54 29
42 120 246 127 287 4 20 11 36 15 36 5 0 11 15 15 33 4 17 13 55 20 82 35 129
49 253 51 475 2 188 0 243 -17 335 -25 140 -46 215 -81 287 -15 32 -28 62 -28
66 0 4 -17 25 -36 47 -20 22 -41 46 -47 55 -7 8 -28 27 -47 41 -93 68 -189 89
-310 69 -36 -6 -81 -13 -100 -16 -37 -6 -64 -17 -220 -92 -102 -49 -120 -60
-220 -138 -118 -93 -308 -296 -385 -414 -17 -25 -37 -53 -45 -62 -29 -32 -136
-211 -187 -313 -19 -38 -48 -95 -63 -125 -16 -30 -35 -77 -43 -105 -8 -27 -29
-88 -46 -135 -17 -47 -31 -92 -31 -101 0 -9 -9 -36 -20 -60 -11 -25 -20 -66
-20 -95 0 -27 -5 -55 -11 -61 -7 -7 -15 -50 -20 -98 -4 -47 -12 -92 -19 -100
-6 -7 -11 -42 -12 -77 0 -34 -7 -90 -15 -122 -8 -32 -13 -74 -11 -92 1 -19 -2
-38 -7 -43 -6 -5 -53 -21 -105 -34 -109 -28 -235 -69 -330 -105 -36 -13 -94
-36 -130 -49 -36 -14 -87 -33 -115 -43 -94 -34 -298 -128 -306 -142 -9 -15 2
-56 19 -70 23 -19 135 -14 230 11 209 55 553 96 695 84 68 -6 65 -2 98 -148
23 -105 52 -199 75 -244 8 -14 14 -33 14 -42 0 -28 30 -91 64 -134 18 -22 45
-62 61 -90 51 -89 208 -225 260 -225 9 0 33 -9 55 -20 50 -26 182 -41 250 -28
61 11 182 72 255 128 88 68 201 194 279 313 38 58 116 216 116 235 0 19 29 21
122 6 393 -63 672 -78 994 -55 71 6 185 13 253 16 l123 6 -6 -103 c-13 -197
-16 -223 -25 -261 -15 -62 -17 -278 -3 -304 16 -29 76 -32 91 -5 5 9 12 98 15
197 12 361 22 475 41 488 15 12 220 48 345 62 25 3 69 8 99 11 l54 6 88 -91
c48 -50 91 -91 96 -91 11 0 63 -56 63 -68 0 -5 26 -31 57 -56 52 -43 113 -110
169 -183 12 -16 29 -53 39 -83 10 -30 22 -61 27 -67 6 -7 13 -45 17 -85 4 -53
10 -73 21 -75 30 -6 44 15 48 75 5 65 -27 187 -53 208 -8 6 -23 31 -34 55 -10
24 -41 69 -68 99 -27 30 -58 70 -68 88 l-19 32 33 60 c21 39 42 102 58 173 14
62 29 119 34 128 11 21 104 47 216 60 143 17 184 38 168 90 -14 42 -107 49
-204 14 -53 -18 -115 -20 -129 -2 -7 8 -3 53 13 147 22 127 42 309 66 600 6
69 14 129 18 133 5 5 66 13 137 19 71 5 136 14 145 18 9 5 42 9 73 9 30 0 59
2 64 5 10 6 104 13 292 21 74 4 173 11 220 17 94 12 122 14 320 23 218 9 273
12 505 26 248 14 619 18 631 6 4 -4 -2 -24 -13 -45 -29 -51 -33 -91 -10 -106
15 -9 21 -7 32 9 45 65 83 108 106 120 17 9 81 17 183 21 132 6 161 10 181 26
21 16 23 22 13 49 -6 16 -20 37 -32 44 -23 16 -117 21 -176 11 -19 -3 -48 -8
-65 -11 -16 -3 -145 -7 -285 -10 -140 -3 -322 -10 -405 -15 -82 -5 -213 -12
-290 -15 -77 -3 -189 -10 -250 -16 -60 -5 -150 -12 -200 -14 -182 -8 -292 -15
-375 -25 -47 -5 -125 -12 -175 -15 -49 -3 -142 -10 -205 -16 -63 -6 -124 -10
-135 -10 -11 0 -75 -5 -142 -11 -100 -9 -126 -8 -139 3 -14 12 -15 42 -10 274
6 260 -8 508 -34 595 -5 19 -10 54 -10 78 0 50 -23 140 -60 237 -4 11 -22 66
-40 122 -35 109 -62 157 -127 225 -85 90 -123 112 -220 127 -78 12 -74 12
-151 1z m301 -174 c34 -33 76 -88 94 -121 34 -66 98 -247 108 -310 4 -22 12
-56 18 -75 6 -19 12 -42 13 -50 1 -8 5 -33 8 -55 28 -178 31 -230 31 -545 0
-230 -3 -321 -12 -336 -11 -18 -24 -23 -85 -27 -116 -8 -401 -36 -428 -43 -50
-11 -138 -15 -144 -6 -7 11 40 122 52 122 12 0 68 92 76 124 4 16 34 70 66
120 32 50 65 113 75 140 9 27 31 81 50 120 54 112 71 316 33 402 -17 40 -84
139 -112 166 -33 32 -52 44 -126 80 -59 28 -75 31 -176 34 -153 4 -238 -20
-381 -107 -42 -25 -65 -34 -70 -26 -3 6 -1 13 5 15 7 2 12 9 12 15 0 7 28 42
63 78 34 36 69 75 77 88 18 26 130 122 186 159 33 22 57 29 169 56 132 31 153
34 229 41 33 3 61 7 63 9 12 12 51 -14 106 -68z m-2164 -110 c90 -57 169 -206
202 -381 62 -333 26 -766 -82 -1003 -16 -35 -29 -67 -29 -71 0 -14 -89 -190
-113 -224 -50 -71 -72 -88 -132 -102 -149 -34 -298 -62 -370 -68 -11 -1 -25
-5 -30 -9 -6 -3 -49 -13 -95 -22 -47 -9 -125 -25 -175 -35 -49 -11 -128 -27
-175 -36 -47 -9 -107 -22 -135 -30 -27 -7 -106 -25 -175 -40 -69 -14 -163 -35
-209 -46 -46 -11 -90 -18 -98 -15 -11 5 -13 26 -9 103 2 54 7 105 10 113 3 8
8 42 10 75 3 33 11 89 20 125 8 36 15 79 16 97 0 17 4 34 9 37 10 6 24 63 22
87 -1 9 5 22 14 29 8 7 15 22 15 34 0 62 105 350 145 396 7 8 18 31 24 51 18
56 209 361 236 377 7 4 24 26 39 50 15 23 38 48 51 54 14 6 25 17 25 23 0 7
23 33 50 59 28 26 50 53 50 61 0 8 42 46 93 85 50 38 97 75 104 80 15 12 134
72 188 95 187 78 169 73 323 74 134 1 145 0 181 -23z m1654 -220 c3 -7 25 -15
49 -18 23 -3 82 -18 130 -33 156 -50 213 -136 213 -325 0 -89 -38 -253 -67
-288 -8 -9 -19 -28 -25 -42 -58 -127 -100 -210 -118 -235 -13 -16 -37 -61 -55
-99 -18 -39 -43 -78 -55 -88 -13 -10 -37 -42 -54 -72 -28 -51 -34 -55 -83 -66
-29 -7 -69 -14 -88 -16 -19 -2 -52 -6 -72 -9 -23 -3 -40 0 -45 8 -4 7 -10 73
-13 147 -7 154 -18 189 -66 203 -30 9 -32 12 -37 71 -3 41 0 71 10 93 12 26
13 42 3 87 -6 31 -16 58 -21 61 -5 4 -9 15 -9 25 0 22 -26 50 -46 50 -8 0 -23
-9 -35 -21 -17 -17 -20 -29 -15 -67 11 -90 17 -438 10 -559 l-7 -122 -38 -15
c-22 -9 -80 -20 -131 -26 -78 -9 -94 -8 -107 4 -19 19 -37 275 -20 291 5 5 24
10 42 10 44 0 45 21 8 135 -17 51 -31 109 -31 129 0 35 24 116 39 136 5 5 16
33 25 60 9 28 27 70 41 94 14 23 25 49 25 57 0 8 3 14 8 14 4 0 16 16 26 35
19 34 168 185 183 185 4 0 21 10 36 23 67 53 86 64 157 96 41 18 82 37 90 42
39 23 63 30 70 19 4 -7 13 -2 24 14 18 28 41 34 49 12z m757 -1281 c12 -15 11
-60 -10 -275 -6 -52 -12 -120 -15 -150 -2 -30 -16 -111 -30 -180 -15 -69 -28
-135 -30 -147 -13 -85 -18 -105 -30 -109 -11 -5 -184 10 -255 21 -14 2 -70 9
-125 14 -179 19 -296 56 -382 123 -30 24 -65 49 -77 57 -59 40 -67 54 -61 96
9 59 25 104 39 112 7 5 26 31 41 58 56 97 186 283 208 297 27 18 122 39 197
44 30 2 91 9 135 14 44 5 116 13 160 16 44 4 100 10 125 14 72 12 97 11 110
-5z m-860 -100 c0 -20 -133 -225 -146 -225 -16 0 -24 34 -24 102 0 93 19 116
110 131 49 8 60 7 60 -8z m-426 -64 c3 -4 1 -35 -4 -67 -6 -32 -11 -96 -11
-141 -2 -62 -5 -83 -16 -83 -7 0 -13 7 -13 15 0 8 -3 15 -8 15 -8 0 -72 80
-116 144 -36 53 -35 94 2 102 15 3 36 9 47 14 26 11 112 12 119 1z m-303 -44
c8 -7 24 -28 35 -47 10 -19 24 -42 31 -50 7 -9 24 -38 39 -65 14 -28 53 -76
85 -108 39 -39 59 -66 59 -82 0 -27 -143 -195 -165 -195 -7 0 -17 6 -22 13
-17 20 -53 139 -53 171 0 17 -5 48 -11 69 -9 33 -14 38 -36 35 -20 -2 -33 -16
-56 -58 -61 -115 -95 -128 -120 -47 -21 65 -55 91 -85 64 -10 -9 -31 -53 -46
-97 -19 -53 -49 -108 -88 -162 -81 -113 -100 -122 -112 -51 -15 86 -49 208
-60 215 -24 16 -55 7 -78 -23 -49 -66 -114 -129 -138 -134 -65 -15 -130 103
-130 237 0 48 4 59 36 96 19 23 43 42 51 42 9 0 37 13 63 29 27 17 69 32 101
36 30 4 79 14 109 22 30 9 66 18 80 19 47 7 95 14 155 24 33 5 78 12 100 15
22 2 83 13 135 24 52 11 97 20 100 20 3 0 12 -5 21 -12z m462 -92 c-1 -11 -4
-60 -6 -110 -6 -96 -19 -145 -39 -145 -7 0 -24 9 -37 19 l-24 18 39 122 c29
90 43 121 54 118 8 -1 14 -11 13 -22z m-1548 -135 c15 -30 15 -30 -37 -84 -79
-80 -156 -127 -213 -129 -41 -2 -50 2 -71 28 -15 19 -20 33 -14 39 31 31 -24
50 -71 26 -56 -30 19 -203 86 -198 11 0 27 -2 35 -5 54 -20 89 -15 162 23 40
22 90 55 110 74 34 31 39 33 53 20 18 -18 18 -30 4 -131 -7 -43 -11 -86 -11
-95 0 -10 -3 -20 -9 -23 -5 -4 -9 -17 -9 -30 0 -27 -35 -179 -45 -195 -10 -16
-85 -12 -171 9 -44 11 -140 32 -214 46 -74 14 -162 32 -195 40 -99 24 -350 65
-489 80 -32 4 -68 8 -80 10 -11 2 -55 6 -96 10 -41 3 -78 11 -82 18 -7 12 -12
97 -8 147 3 40 24 75 46 76 11 1 67 16 124 33 139 43 175 53 197 55 19 2 93
17 199 42 33 8 68 14 77 14 9 0 56 11 103 25 47 14 99 25 114 25 15 0 63 9
106 19 44 11 108 22 144 26 36 4 70 11 75 15 10 8 54 14 132 18 27 2 35 -3 48
-28z m1430 -214 c16 -38 49 -66 77 -66 10 0 18 -6 19 -12 6 -75 -19 -418 -32
-434 -6 -7 -32 -16 -57 -19 -26 -3 -81 -10 -122 -15 -107 -13 -424 -31 -563
-31 -148 0 -511 37 -657 66 -8 2 -21 4 -27 4 -18 1 -16 29 7 119 23 90 29 122
37 180 6 47 27 56 57 23 40 -44 120 -32 196 28 59 46 57 47 75 -34 20 -90 52
-125 115 -125 41 0 72 24 128 99 15 20 29 38 32 41 7 7 38 60 57 98 19 38 36
41 57 10 23 -33 78 -28 126 11 21 17 43 31 48 31 5 0 19 -26 30 -58 29 -79 70
-117 127 -117 39 0 50 6 88 43 24 24 66 77 93 118 27 41 54 74 62 74 7 0 19
-15 27 -34z m-2898 -116 c7 -14 13 -51 13 -82 l0 -57 -182 1 c-169 0 -198 -2
-373 -35 -104 -20 -191 -34 -193 -32 -2 2 1 12 7 23 7 13 26 23 53 27 24 3 62
15 85 26 24 10 50 19 58 19 8 0 23 4 33 9 9 6 51 14 92 20 46 6 79 16 86 26 6
8 20 15 31 15 10 0 24 5 31 12 6 6 29 11 51 10 26 -1 43 3 48 13 5 8 23 17 41
19 18 2 36 7 40 10 15 16 67 0 79 -24z m3243 -61 c47 -38 92 -76 100 -83 26
-22 60 -66 60 -76 0 -6 22 -26 49 -46 30 -21 48 -41 45 -48 -3 -8 -28 -16 -57
-19 -29 -4 -81 -13 -117 -21 -36 -9 -105 -18 -154 -22 l-89 -7 8 104 c4 57 9
136 10 174 3 119 2 115 33 115 19 0 53 -21 112 -71z m355 -60 c28 -5 102 -16
165 -23 63 -8 126 -16 140 -19 14 -3 37 -8 53 -12 36 -7 34 -22 -5 -34 -18 -5
-53 -17 -78 -26 -25 -9 -94 -27 -154 -40 l-110 -23 -50 56 c-28 31 -63 69 -78
85 -16 17 -28 34 -28 38 0 12 82 10 145 -2z m-3285 -95 c177 -14 443 -60 770
-130 205 -45 244 -53 283 -59 41 -7 44 -15 23 -66 -7 -19 -17 -43 -21 -54 -5
-11 -8 -23 -7 -27 1 -3 -5 -12 -13 -18 -8 -7 -15 -17 -15 -22 0 -14 -86 -141
-114 -167 -14 -13 -23 -29 -19 -34 4 -6 0 -8 -11 -4 -10 4 -15 3 -11 -3 6 -10
-61 -80 -120 -124 -22 -17 -42 -33 -45 -36 -13 -15 -87 -52 -142 -70 -66 -22
-165 -26 -233 -10 -66 15 -183 89 -229 143 -22 28 -55 66 -72 86 -32 36 -122
216 -142 281 -6 19 -23 71 -37 116 -14 45 -25 93 -25 108 0 15 -4 35 -9 45 -6
10 -8 27 -5 39 6 22 4 22 194 6z m3645 -115 c-4 -18 -16 -50 -26 -73 -10 -22
-19 -57 -19 -77 0 -23 -7 -42 -20 -54 -19 -17 -21 -17 -40 0 -55 50 -160 158
-160 166 0 12 19 21 59 30 20 5 61 15 91 23 30 8 70 15 88 15 33 1 33 0 27
-30z"/>
</g>
</svg>
